<svg width="33" height="42" viewBox="0 0 33 42" fill="none" xmlns="http://www.w3.org/2000/svg">
<path d="M21.4624 16.6767C19.994 17.648 18.267 18.1667 16.5 18.1667C14.1304 18.1667 11.8588 17.2348 10.1847 15.5777C8.51087 13.9207 7.57143 11.6744 7.57143 9.33334C7.57143 7.58741 8.09442 5.88026 9.07485 4.42775C10.0553 2.97518 11.4495 1.84228 13.0815 1.17308C14.7136 0.503869 16.5099 0.328695 18.2428 0.669922C19.9758 1.01114 21.5669 1.85327 22.8153 3.08902C24.0636 4.32471 24.9131 5.89847 25.2572 7.611C25.6013 9.32349 25.4248 11.0986 24.7496 12.712C24.0745 14.3256 22.9308 15.7055 21.4624 16.6767ZM31.9579 40.9612C31.61 41.3056 31.137 41.5 30.6429 41.5H2.35714C1.86297 41.5 1.39005 41.3056 1.04215 40.9612C0.694417 40.617 0.5 40.1512 0.5 39.6667C0.5 35.4691 2.18446 31.4423 5.18449 28.4726C8.18469 25.5027 12.2549 23.8333 16.5 23.8333C20.7451 23.8333 24.8153 25.5027 27.8155 28.4726C30.8155 31.4423 32.5 35.4691 32.5 39.6667C32.5 40.1512 32.3056 40.617 31.9579 40.9612Z" stroke="white"/>
</svg>
