<svg width="15" height="14" viewBox="0 0 15 14" fill="none" xmlns="http://www.w3.org/2000/svg">
<ellipse cx="7.5" cy="7" rx="7.5" ry="7" fill="url(#paint0_linear_1074_5215)"/>
<path d="M5.83539 4.92041C5.66132 4.92035 5.49113 4.97191 5.34637 5.06859C5.20161 5.16526 5.08877 5.30269 5.02212 5.4635C4.95548 5.62432 4.93803 5.80128 4.97197 5.97201C5.00592 6.14275 5.08974 6.29957 5.21282 6.42266C5.33591 6.54575 5.49274 6.62957 5.66348 6.66352C5.83421 6.69746 6.01117 6.68001 6.17198 6.61336C6.3328 6.54672 6.47023 6.43388 6.5669 6.28912C6.66357 6.14435 6.71514 5.97417 6.71508 5.8001C6.71483 5.56687 6.62207 5.34326 6.45715 5.17834C6.29223 5.01342 6.06862 4.92066 5.83539 4.92041ZM5.83539 6.34291C5.72803 6.34291 5.62309 6.31107 5.53382 6.25143C5.44456 6.19178 5.37498 6.10701 5.3339 6.00782C5.29281 5.90864 5.28206 5.7995 5.30301 5.6942C5.32395 5.5889 5.37565 5.49218 5.45156 5.41627C5.52748 5.34036 5.6242 5.28866 5.72949 5.26772C5.83479 5.24677 5.94393 5.25752 6.04312 5.2986C6.1423 5.33969 6.22708 5.40926 6.28672 5.49853C6.34637 5.58779 6.3782 5.69274 6.3782 5.8001C6.37829 5.94417 6.32115 6.08238 6.21937 6.18435C6.11758 6.28631 5.97947 6.34368 5.83539 6.34385V6.34291ZM9.85477 5.09385H8.37164C8.05624 5.09426 7.75388 5.21974 7.53086 5.44276C7.30784 5.66578 7.18237 5.96814 7.18195 6.28354V6.62166H11.0445V6.28447C11.0443 5.96891 10.9189 5.66631 10.6959 5.44309C10.4728 5.21986 10.1703 5.09426 9.85477 5.09385ZM7.51883 6.28447C7.51908 6.05837 7.60901 5.8416 7.76889 5.68172C7.92877 5.52184 8.14554 5.43191 8.37164 5.43166H9.85477C10.0809 5.43191 10.2976 5.52184 10.4575 5.68172C10.6174 5.8416 10.7073 6.05837 10.7076 6.28447H7.51883Z" fill="white"/>
<path d="M11.6196 6.051V7.061H4.38082V4.82568H4.04395V7.061V8.45318V9.17443H4.38082V8.45318H11.6196V9.17443H11.9564V8.45318V7.061V6.051H11.6196Z" fill="white"/>
<defs>
<linearGradient id="paint0_linear_1074_5215" x1="10.8088" y1="2.1875" x2="2.06928" y2="12.3224" gradientUnits="userSpaceOnUse">
<stop stop-color="#4959EE"/>
<stop offset="0.547509" stop-color="#0B2749"/>
<stop offset="1" stop-color="#0B2749"/>
</linearGradient>
</defs>
</svg>
