<svg width="226" height="31" viewBox="0 0 226 31" fill="none" xmlns="http://www.w3.org/2000/svg">
<path d="M18.6577 7.049C18.345 7.049 18.044 7.00933 17.7547 6.93C17.47 6.846 17.2437 6.74567 17.0757 6.629L17.4117 5.964C17.5797 6.07133 17.7804 6.16 18.0137 6.23C18.247 6.3 18.4804 6.335 18.7137 6.335C18.989 6.335 19.1874 6.29767 19.3087 6.223C19.4347 6.14833 19.4977 6.048 19.4977 5.922C19.4977 5.81933 19.4557 5.74233 19.3717 5.691C19.2877 5.635 19.178 5.593 19.0427 5.565C18.9074 5.537 18.7557 5.51133 18.5877 5.488C18.4244 5.46467 18.2587 5.43433 18.0907 5.397C17.9274 5.355 17.778 5.29667 17.6427 5.222C17.5074 5.14267 17.3977 5.03767 17.3137 4.907C17.2297 4.77633 17.1877 4.60367 17.1877 4.389C17.1877 4.151 17.2554 3.94567 17.3907 3.773C17.526 3.59567 17.715 3.46033 17.9577 3.367C18.205 3.269 18.4967 3.22 18.8327 3.22C19.0847 3.22 19.339 3.248 19.5957 3.304C19.8524 3.36 20.0647 3.43933 20.2327 3.542L19.8967 4.207C19.7194 4.09967 19.5397 4.02733 19.3577 3.99C19.1804 3.948 19.003 3.927 18.8257 3.927C18.5597 3.927 18.3614 3.96667 18.2307 4.046C18.1047 4.12533 18.0417 4.22567 18.0417 4.347C18.0417 4.459 18.0837 4.543 18.1677 4.599C18.2517 4.655 18.3614 4.69933 18.4967 4.732C18.632 4.76467 18.7814 4.79267 18.9447 4.816C19.1127 4.83467 19.2784 4.865 19.4417 4.907C19.605 4.949 19.7544 5.00733 19.8897 5.082C20.0297 5.152 20.1417 5.25233 20.2257 5.383C20.3097 5.51367 20.3517 5.684 20.3517 5.894C20.3517 6.12733 20.2817 6.33033 20.1417 6.503C20.0064 6.67567 19.8127 6.811 19.5607 6.909C19.3087 7.00233 19.0077 7.049 18.6577 7.049ZM22.6873 7.049C22.3699 7.049 22.0899 6.99067 21.8473 6.874C21.6046 6.75267 21.4156 6.57067 21.2803 6.328C21.1449 6.08067 21.0773 5.77033 21.0773 5.397V3.262H21.9523V5.278C21.9523 5.614 22.0269 5.866 22.1763 6.034C22.3303 6.19733 22.5473 6.279 22.8273 6.279C23.0326 6.279 23.2099 6.237 23.3593 6.153C23.5133 6.069 23.6323 5.943 23.7163 5.775C23.8049 5.607 23.8493 5.39933 23.8493 5.152V3.262H24.7243V7H23.8913V5.992L24.0383 6.3C23.9123 6.54267 23.7279 6.72933 23.4853 6.86C23.2426 6.986 22.9766 7.049 22.6873 7.049ZM27.9909 3.22C28.2896 3.22 28.5556 3.27833 28.7889 3.395C29.0269 3.51167 29.2136 3.69133 29.3489 3.934C29.4842 4.172 29.5519 4.48 29.5519 4.858V7H28.6769V4.97C28.6769 4.63867 28.5976 4.39133 28.4389 4.228C28.2849 4.06467 28.0679 3.983 27.7879 3.983C27.5826 3.983 27.4006 4.025 27.2419 4.109C27.0832 4.193 26.9596 4.319 26.8709 4.487C26.7869 4.65033 26.7449 4.858 26.7449 5.11V7H25.8699V3.262H26.7029V4.27L26.5559 3.962C26.6866 3.724 26.8756 3.542 27.1229 3.416C27.3749 3.28533 27.6642 3.22 27.9909 3.22Z" fill="#0B2749"/>
<path d="M23.1287 16.35C24.0887 16.35 24.9037 16.555 25.5737 16.965C26.2537 17.365 26.7737 17.95 27.1337 18.72C27.4937 19.49 27.6737 20.44 27.6737 21.57C27.6737 22.77 27.4537 23.785 27.0137 24.615C26.5837 25.445 25.9837 26.075 25.2137 26.505C24.4437 26.935 23.5487 27.15 22.5287 27.15C21.9987 27.15 21.4937 27.095 21.0137 26.985C20.5337 26.875 20.1187 26.705 19.7687 26.475L20.4887 25.005C20.7787 25.195 21.0937 25.33 21.4337 25.41C21.7737 25.48 22.1237 25.515 22.4837 25.515C23.4737 25.515 24.2587 25.21 24.8387 24.6C25.4187 23.99 25.7087 23.09 25.7087 21.9C25.7087 21.71 25.7037 21.49 25.6937 21.24C25.6837 20.98 25.6487 20.72 25.5887 20.46L26.1887 21.12C26.0187 21.53 25.7737 21.875 25.4537 22.155C25.1337 22.425 24.7587 22.63 24.3287 22.77C23.8987 22.91 23.4237 22.98 22.9037 22.98C22.2237 22.98 21.6087 22.85 21.0587 22.59C20.5187 22.32 20.0887 21.945 19.7687 21.465C19.4487 20.975 19.2887 20.405 19.2887 19.755C19.2887 19.055 19.4587 18.455 19.7987 17.955C20.1387 17.445 20.5987 17.05 21.1787 16.77C21.7687 16.49 22.4187 16.35 23.1287 16.35ZM23.2337 17.88C22.8337 17.88 22.4787 17.955 22.1687 18.105C21.8587 18.245 21.6137 18.45 21.4337 18.72C21.2637 18.98 21.1787 19.295 21.1787 19.665C21.1787 20.215 21.3687 20.65 21.7487 20.97C22.1287 21.29 22.6387 21.45 23.2787 21.45C23.6987 21.45 24.0687 21.375 24.3887 21.225C24.7087 21.065 24.9587 20.85 25.1387 20.58C25.3187 20.3 25.4087 19.99 25.4087 19.65C25.4087 19.32 25.3237 19.025 25.1537 18.765C24.9837 18.495 24.7387 18.28 24.4187 18.12C24.0987 17.96 23.7037 17.88 23.2337 17.88Z" fill="#0B2749"/>
<path d="M49.2067 3.255C49.5054 3.255 49.769 3.31333 49.9977 3.43C50.2264 3.54667 50.4037 3.724 50.5297 3.962C50.6604 4.2 50.7257 4.501 50.7257 4.865V7H50.0537V4.942C50.0537 4.58267 49.9697 4.312 49.8017 4.13C49.6337 3.948 49.398 3.857 49.0947 3.857C48.8707 3.857 48.6747 3.90367 48.5067 3.997C48.3387 4.09033 48.208 4.228 48.1147 4.41C48.026 4.592 47.9817 4.81833 47.9817 5.089V7H47.3097V4.942C47.3097 4.58267 47.2257 4.312 47.0577 4.13C46.8944 3.948 46.6587 3.857 46.3507 3.857C46.1314 3.857 45.9377 3.90367 45.7697 3.997C45.6017 4.09033 45.471 4.228 45.3777 4.41C45.2844 4.592 45.2377 4.81833 45.2377 5.089V7H44.5657V3.29H45.2097V4.277L45.1047 4.025C45.2214 3.78233 45.401 3.59333 45.6437 3.458C45.8864 3.32267 46.1687 3.255 46.4907 3.255C46.8454 3.255 47.151 3.34367 47.4077 3.521C47.6644 3.69367 47.8324 3.95733 47.9117 4.312L47.6387 4.2C47.7507 3.91533 47.9467 3.68667 48.2267 3.514C48.5067 3.34133 48.8334 3.255 49.2067 3.255ZM53.5512 7.042C53.1779 7.042 52.8465 6.96033 52.5572 6.797C52.2679 6.63367 52.0392 6.40967 51.8712 6.125C51.7032 5.83567 51.6192 5.509 51.6192 5.145C51.6192 4.77633 51.7032 4.44967 51.8712 4.165C52.0392 3.88033 52.2679 3.65867 52.5572 3.5C52.8465 3.33667 53.1779 3.255 53.5512 3.255C53.9199 3.255 54.2489 3.33667 54.5382 3.5C54.8322 3.65867 55.0609 3.88033 55.2242 4.165C55.3922 4.445 55.4762 4.77167 55.4762 5.145C55.4762 5.51367 55.3922 5.84033 55.2242 6.125C55.0609 6.40967 54.8322 6.63367 54.5382 6.797C54.2489 6.96033 53.9199 7.042 53.5512 7.042ZM53.5512 6.454C53.7892 6.454 54.0015 6.40033 54.1882 6.293C54.3795 6.18567 54.5289 6.034 54.6362 5.838C54.7435 5.63733 54.7972 5.40633 54.7972 5.145C54.7972 4.879 54.7435 4.65033 54.6362 4.459C54.5289 4.263 54.3795 4.11133 54.1882 4.004C54.0015 3.89667 53.7892 3.843 53.5512 3.843C53.3132 3.843 53.1009 3.89667 52.9142 4.004C52.7275 4.11133 52.5782 4.263 52.4662 4.459C52.3542 4.65033 52.2982 4.879 52.2982 5.145C52.2982 5.40633 52.3542 5.63733 52.4662 5.838C52.5782 6.034 52.7275 6.18567 52.9142 6.293C53.1009 6.40033 53.3132 6.454 53.5512 6.454ZM58.3866 3.255C58.6899 3.255 58.9559 3.31333 59.1846 3.43C59.4179 3.54667 59.5999 3.724 59.7306 3.962C59.8612 4.2 59.9266 4.501 59.9266 4.865V7H59.2546V4.942C59.2546 4.58267 59.1659 4.312 58.9886 4.13C58.8159 3.948 58.5709 3.857 58.2536 3.857C58.0156 3.857 57.8079 3.90367 57.6306 3.997C57.4532 4.09033 57.3156 4.228 57.2176 4.41C57.1242 4.592 57.0776 4.81833 57.0776 5.089V7H56.4056V3.29H57.0496V4.291L56.9446 4.025C57.0659 3.78233 57.2526 3.59333 57.5046 3.458C57.7566 3.32267 58.0506 3.255 58.3866 3.255Z" fill="#7D9AAF"/>
<path d="M46.5387 27V16.95L47.0187 17.46H44.0637V16.5H47.6187V27H46.5387ZM54.3136 27.09C53.5036 27.09 52.7836 26.88 52.1536 26.46C51.5236 26.03 51.0286 25.42 50.6686 24.63C50.3086 23.83 50.1286 22.87 50.1286 21.75C50.1286 20.63 50.3086 19.675 50.6686 18.885C51.0286 18.085 51.5236 17.475 52.1536 17.055C52.7836 16.625 53.5036 16.41 54.3136 16.41C55.1236 16.41 55.8436 16.625 56.4736 17.055C57.1036 17.475 57.5986 18.085 57.9586 18.885C58.3286 19.675 58.5136 20.63 58.5136 21.75C58.5136 22.87 58.3286 23.83 57.9586 24.63C57.5986 25.42 57.1036 26.03 56.4736 26.46C55.8436 26.88 55.1236 27.09 54.3136 27.09ZM54.3136 26.1C54.9336 26.1 55.4736 25.935 55.9336 25.605C56.3936 25.265 56.7536 24.775 57.0136 24.135C57.2736 23.485 57.4036 22.69 57.4036 21.75C57.4036 20.81 57.2736 20.02 57.0136 19.38C56.7536 18.73 56.3936 18.24 55.9336 17.91C55.4736 17.57 54.9336 17.4 54.3136 17.4C53.7136 17.4 53.1786 17.57 52.7086 17.91C52.2386 18.24 51.8736 18.73 51.6136 19.38C51.3536 20.02 51.2236 20.81 51.2236 21.75C51.2236 22.69 51.3536 23.485 51.6136 24.135C51.8736 24.775 52.2386 25.265 52.7086 25.605C53.1786 25.935 53.7136 26.1 54.3136 26.1Z" fill="#7D9AAF"/>
<path d="M75.8397 7.042C75.4664 7.042 75.177 6.94167 74.9717 6.741C74.7664 6.54033 74.6637 6.25333 74.6637 5.88V2.478H75.3357V5.852C75.3357 6.05267 75.3847 6.20667 75.4827 6.314C75.5854 6.42133 75.73 6.475 75.9167 6.475C76.1267 6.475 76.3017 6.41667 76.4417 6.3L76.6517 6.783C76.549 6.87167 76.4254 6.937 76.2807 6.979C76.1407 7.021 75.9937 7.042 75.8397 7.042ZM74.0337 3.843V3.29H76.3997V3.843H74.0337ZM79.0251 7.042C78.7078 7.042 78.4278 6.98367 78.1851 6.867C77.9471 6.75033 77.7605 6.573 77.6251 6.335C77.4945 6.09233 77.4291 5.789 77.4291 5.425V3.29H78.1011V5.348C78.1011 5.712 78.1875 5.985 78.3601 6.167C78.5375 6.349 78.7848 6.44 79.1021 6.44C79.3355 6.44 79.5385 6.39333 79.7111 6.3C79.8838 6.202 80.0168 6.062 80.1101 5.88C80.2035 5.69333 80.2501 5.46933 80.2501 5.208V3.29H80.9221V7H80.2851V5.999L80.3901 6.265C80.2688 6.51233 80.0868 6.70367 79.8441 6.839C79.6015 6.97433 79.3285 7.042 79.0251 7.042ZM83.8535 7.042C83.4568 7.042 83.1068 6.96033 82.8035 6.797C82.5048 6.63367 82.2715 6.40967 82.1035 6.125C81.9401 5.84033 81.8585 5.51367 81.8585 5.145C81.8585 4.77633 81.9378 4.44967 82.0965 4.165C82.2598 3.88033 82.4815 3.65867 82.7615 3.5C83.0461 3.33667 83.3658 3.255 83.7205 3.255C84.0798 3.255 84.3971 3.33433 84.6725 3.493C84.9478 3.65167 85.1625 3.87567 85.3165 4.165C85.4751 4.44967 85.5545 4.78333 85.5545 5.166C85.5545 5.194 85.5521 5.22667 85.5475 5.264C85.5475 5.30133 85.5451 5.33633 85.5405 5.369H82.3835V4.886H85.1905L84.9175 5.054C84.9221 4.816 84.8731 4.60367 84.7705 4.417C84.6678 4.23033 84.5255 4.08567 84.3435 3.983C84.1661 3.87567 83.9585 3.822 83.7205 3.822C83.4871 3.822 83.2795 3.87567 83.0975 3.983C82.9155 4.08567 82.7731 4.23267 82.6705 4.424C82.5678 4.61067 82.5165 4.82533 82.5165 5.068V5.18C82.5165 5.42733 82.5725 5.649 82.6845 5.845C82.8011 6.03633 82.9621 6.18567 83.1675 6.293C83.3728 6.40033 83.6085 6.454 83.8745 6.454C84.0938 6.454 84.2921 6.41667 84.4695 6.342C84.6515 6.26733 84.8101 6.15533 84.9455 6.006L85.3165 6.44C85.1485 6.636 84.9385 6.78533 84.6865 6.888C84.4391 6.99067 84.1615 7.042 83.8535 7.042Z" fill="#7D9AAF"/>
<path d="M76.5387 27V16.95L77.0187 17.46H74.0637V16.5H77.6187V27H76.5387ZM81.9586 27V16.95L82.4386 17.46H79.4836V16.5H83.0386V27H81.9586Z" fill="#7D9AAF"/>
<path d="M100.35 7L98.9707 3.29H99.6077L100.833 6.65H100.532L101.806 3.29H102.373L103.619 6.65H103.325L104.578 3.29H105.18L103.794 7H103.15L101.981 3.934H102.177L100.994 7H100.35ZM107.411 7.042C107.014 7.042 106.664 6.96033 106.361 6.797C106.062 6.63367 105.829 6.40967 105.661 6.125C105.498 5.84033 105.416 5.51367 105.416 5.145C105.416 4.77633 105.495 4.44967 105.654 4.165C105.817 3.88033 106.039 3.65867 106.319 3.5C106.604 3.33667 106.923 3.255 107.278 3.255C107.637 3.255 107.955 3.33433 108.23 3.493C108.505 3.65167 108.72 3.87567 108.874 4.165C109.033 4.44967 109.112 4.78333 109.112 5.166C109.112 5.194 109.11 5.22667 109.105 5.264C109.105 5.30133 109.103 5.33633 109.098 5.369H105.941V4.886H108.748L108.475 5.054C108.48 4.816 108.431 4.60367 108.328 4.417C108.225 4.23033 108.083 4.08567 107.901 3.983C107.724 3.87567 107.516 3.822 107.278 3.822C107.045 3.822 106.837 3.87567 106.655 3.983C106.473 4.08567 106.331 4.23267 106.228 4.424C106.125 4.61067 106.074 4.82533 106.074 5.068V5.18C106.074 5.42733 106.13 5.649 106.242 5.845C106.359 6.03633 106.52 6.18567 106.725 6.293C106.93 6.40033 107.166 6.454 107.432 6.454C107.651 6.454 107.85 6.41667 108.027 6.342C108.209 6.26733 108.368 6.15533 108.503 6.006L108.874 6.44C108.706 6.636 108.496 6.78533 108.244 6.888C107.997 6.99067 107.719 7.042 107.411 7.042ZM111.578 7.042C111.219 7.042 110.897 6.96267 110.612 6.804C110.332 6.64533 110.111 6.42367 109.947 6.139C109.784 5.85433 109.702 5.523 109.702 5.145C109.702 4.767 109.784 4.438 109.947 4.158C110.111 3.87333 110.332 3.65167 110.612 3.493C110.897 3.33433 111.219 3.255 111.578 3.255C111.891 3.255 112.173 3.325 112.425 3.465C112.677 3.605 112.878 3.815 113.027 4.095C113.181 4.375 113.258 4.725 113.258 5.145C113.258 5.565 113.184 5.915 113.034 6.195C112.89 6.475 112.691 6.68733 112.439 6.832C112.187 6.972 111.9 7.042 111.578 7.042ZM111.634 6.454C111.868 6.454 112.078 6.40033 112.264 6.293C112.456 6.18567 112.605 6.034 112.712 5.838C112.824 5.63733 112.88 5.40633 112.88 5.145C112.88 4.879 112.824 4.65033 112.712 4.459C112.605 4.263 112.456 4.11133 112.264 4.004C112.078 3.89667 111.868 3.843 111.634 3.843C111.396 3.843 111.184 3.89667 110.997 4.004C110.811 4.11133 110.661 4.263 110.549 4.459C110.437 4.65033 110.381 4.879 110.381 5.145C110.381 5.40633 110.437 5.63733 110.549 5.838C110.661 6.034 110.811 6.18567 110.997 6.293C111.184 6.40033 111.396 6.454 111.634 6.454ZM112.901 7V5.999L112.943 5.138L112.873 4.277V1.806H113.545V7H112.901Z" fill="#7D9AAF"/>
<path d="M103.539 27V16.95L104.019 17.46H101.064V16.5H104.619V27H103.539ZM106.934 27V26.235L111.299 21.96C111.699 21.57 111.999 21.23 112.199 20.94C112.399 20.64 112.534 20.36 112.604 20.1C112.674 19.84 112.709 19.595 112.709 19.365C112.709 18.755 112.499 18.275 112.079 17.925C111.669 17.575 111.059 17.4 110.249 17.4C109.629 17.4 109.079 17.495 108.599 17.685C108.129 17.875 107.724 18.17 107.384 18.57L106.619 17.91C107.029 17.43 107.554 17.06 108.194 16.8C108.834 16.54 109.549 16.41 110.339 16.41C111.049 16.41 111.664 16.525 112.184 16.755C112.704 16.975 113.104 17.3 113.384 17.73C113.674 18.16 113.819 18.665 113.819 19.245C113.819 19.585 113.769 19.92 113.669 20.25C113.579 20.58 113.409 20.93 113.159 21.3C112.919 21.66 112.564 22.07 112.094 22.53L108.089 26.46L107.789 26.04H114.299V27H106.934Z" fill="#7D9AAF"/>
<path d="M130.84 7.042C130.466 7.042 130.177 6.94167 129.972 6.741C129.766 6.54033 129.664 6.25333 129.664 5.88V2.478H130.336V5.852C130.336 6.05267 130.385 6.20667 130.483 6.314C130.585 6.42133 130.73 6.475 130.917 6.475C131.127 6.475 131.302 6.41667 131.442 6.3L131.652 6.783C131.549 6.87167 131.425 6.937 131.281 6.979C131.141 7.021 130.994 7.042 130.84 7.042ZM129.034 3.843V3.29H131.4V3.843H129.034ZM134.445 3.255C134.748 3.255 135.014 3.31333 135.243 3.43C135.476 3.54667 135.658 3.724 135.789 3.962C135.92 4.2 135.985 4.501 135.985 4.865V7H135.313V4.942C135.313 4.58267 135.224 4.312 135.047 4.13C134.874 3.948 134.629 3.857 134.312 3.857C134.074 3.857 133.866 3.90367 133.689 3.997C133.512 4.09033 133.374 4.228 133.276 4.41C133.183 4.592 133.136 4.81833 133.136 5.089V7H132.464V1.806H133.136V4.291L133.003 4.025C133.124 3.78233 133.311 3.59333 133.563 3.458C133.815 3.32267 134.109 3.255 134.445 3.255ZM138.79 7.042C138.472 7.042 138.192 6.98367 137.95 6.867C137.712 6.75033 137.525 6.573 137.39 6.335C137.259 6.09233 137.194 5.789 137.194 5.425V3.29H137.866V5.348C137.866 5.712 137.952 5.985 138.125 6.167C138.302 6.349 138.549 6.44 138.867 6.44C139.1 6.44 139.303 6.39333 139.476 6.3C139.648 6.202 139.781 6.062 139.875 5.88C139.968 5.69333 140.015 5.46933 140.015 5.208V3.29H140.687V7H140.05V5.999L140.155 6.265C140.033 6.51233 139.851 6.70367 139.609 6.839C139.366 6.97433 139.093 7.042 138.79 7.042ZM141.966 7V3.29H142.61V4.298L142.547 4.046C142.65 3.78933 142.822 3.59333 143.065 3.458C143.308 3.32267 143.606 3.255 143.961 3.255V3.906C143.933 3.90133 143.905 3.899 143.877 3.899C143.854 3.899 143.83 3.899 143.807 3.899C143.448 3.899 143.163 4.00633 142.953 4.221C142.743 4.43567 142.638 4.746 142.638 5.152V7H141.966Z" fill="#7D9AAF"/>
<path d="M132.539 27V16.95L133.019 17.46H130.064V16.5H133.619V27H132.539ZM139.264 27.09C138.504 27.09 137.784 26.97 137.104 26.73C136.434 26.48 135.894 26.15 135.484 25.74L136.009 24.885C136.349 25.235 136.804 25.525 137.374 25.755C137.954 25.985 138.584 26.1 139.264 26.1C140.134 26.1 140.799 25.91 141.259 25.53C141.729 25.15 141.964 24.64 141.964 24C141.964 23.36 141.734 22.85 141.274 22.47C140.824 22.09 140.109 21.9 139.129 21.9H138.379V21.105L141.619 17.04L141.769 17.46H135.919V16.5H142.669V17.265L139.429 21.33L138.904 20.985H139.309C140.569 20.985 141.509 21.265 142.129 21.825C142.759 22.385 143.074 23.105 143.074 23.985C143.074 24.575 142.934 25.105 142.654 25.575C142.374 26.045 141.949 26.415 141.379 26.685C140.819 26.955 140.114 27.09 139.264 27.09Z" fill="#7D9AAF"/>
<path d="M159.664 7V2.961C159.664 2.597 159.769 2.30767 159.979 2.093C160.193 1.87367 160.497 1.764 160.889 1.764C161.033 1.764 161.171 1.78267 161.302 1.82C161.437 1.85267 161.551 1.90633 161.645 1.981L161.442 2.492C161.372 2.436 161.292 2.394 161.204 2.366C161.115 2.33333 161.022 2.317 160.924 2.317C160.728 2.317 160.578 2.373 160.476 2.485C160.373 2.59233 160.322 2.75333 160.322 2.968V3.465L160.336 3.773V7H159.664ZM159.034 3.843V3.29H161.4V3.843H159.034ZM162.033 7V3.29H162.677V4.298L162.614 4.046C162.717 3.78933 162.89 3.59333 163.132 3.458C163.375 3.32267 163.674 3.255 164.028 3.255V3.906C164 3.90133 163.972 3.899 163.944 3.899C163.921 3.899 163.898 3.899 163.874 3.899C163.515 3.899 163.23 4.00633 163.02 4.221C162.81 4.43567 162.705 4.746 162.705 5.152V7H162.033ZM164.857 7V3.29H165.529V7H164.857ZM165.193 2.576C165.062 2.576 164.952 2.534 164.864 2.45C164.78 2.366 164.738 2.26333 164.738 2.142C164.738 2.016 164.78 1.911 164.864 1.827C164.952 1.743 165.062 1.701 165.193 1.701C165.323 1.701 165.431 1.743 165.515 1.827C165.603 1.90633 165.648 2.00667 165.648 2.128C165.648 2.254 165.606 2.36133 165.522 2.45C165.438 2.534 165.328 2.576 165.193 2.576Z" fill="#7D9AAF"/>
<path d="M161.539 27V16.95L162.019 17.46H159.064V16.5H162.619V27H161.539ZM164.949 24.24V23.46L170.514 16.5H171.714L166.194 23.46L165.609 23.28H174.054V24.24H164.949ZM170.874 27V24.24L170.904 23.28V20.85H171.954V27H170.874Z" fill="#7D9AAF"/>
<path d="M190.63 7.042C190.322 7.042 190.028 7 189.748 6.916C189.472 6.832 189.255 6.72933 189.097 6.608L189.377 6.076C189.535 6.18333 189.731 6.27433 189.965 6.349C190.198 6.42367 190.436 6.461 190.679 6.461C190.991 6.461 191.215 6.41667 191.351 6.328C191.491 6.23933 191.561 6.11567 191.561 5.957C191.561 5.84033 191.519 5.74933 191.435 5.684C191.351 5.61867 191.239 5.56967 191.099 5.537C190.963 5.50433 190.812 5.47633 190.644 5.453C190.476 5.425 190.308 5.39233 190.14 5.355C189.972 5.313 189.818 5.257 189.678 5.187C189.538 5.11233 189.426 5.012 189.342 4.886C189.258 4.75533 189.216 4.58267 189.216 4.368C189.216 4.144 189.279 3.948 189.405 3.78C189.531 3.612 189.708 3.48367 189.937 3.395C190.17 3.30167 190.445 3.255 190.763 3.255C191.005 3.255 191.25 3.28533 191.498 3.346C191.75 3.402 191.955 3.48367 192.114 3.591L191.827 4.123C191.659 4.011 191.484 3.934 191.302 3.892C191.12 3.85 190.938 3.829 190.756 3.829C190.462 3.829 190.242 3.878 190.098 3.976C189.953 4.06933 189.881 4.19067 189.881 4.34C189.881 4.466 189.923 4.564 190.007 4.634C190.095 4.69933 190.207 4.75067 190.343 4.788C190.483 4.82533 190.637 4.858 190.805 4.886C190.973 4.90933 191.141 4.942 191.309 4.984C191.477 5.02133 191.628 5.075 191.764 5.145C191.904 5.215 192.016 5.313 192.1 5.439C192.188 5.565 192.233 5.733 192.233 5.943C192.233 6.167 192.167 6.36067 192.037 6.524C191.906 6.68733 191.722 6.81567 191.484 6.909C191.246 6.99767 190.961 7.042 190.63 7.042ZM195.376 7V6.216L195.341 6.069V4.732C195.341 4.44733 195.257 4.228 195.089 4.074C194.925 3.91533 194.678 3.836 194.347 3.836C194.127 3.836 193.913 3.87333 193.703 3.948C193.493 4.018 193.315 4.11367 193.171 4.235L192.891 3.731C193.082 3.577 193.311 3.46033 193.577 3.381C193.847 3.297 194.13 3.255 194.424 3.255C194.932 3.255 195.324 3.37867 195.6 3.626C195.875 3.87333 196.013 4.25133 196.013 4.76V7H195.376ZM194.158 7.042C193.882 7.042 193.64 6.99533 193.43 6.902C193.224 6.80867 193.066 6.68033 192.954 6.517C192.842 6.349 192.786 6.16 192.786 5.95C192.786 5.74933 192.832 5.56733 192.926 5.404C193.024 5.24067 193.18 5.11 193.395 5.012C193.614 4.914 193.908 4.865 194.277 4.865H195.453V5.348H194.305C193.969 5.348 193.742 5.404 193.626 5.516C193.509 5.628 193.451 5.76333 193.451 5.922C193.451 6.104 193.523 6.251 193.668 6.363C193.812 6.47033 194.013 6.524 194.27 6.524C194.522 6.524 194.741 6.468 194.928 6.356C195.119 6.244 195.257 6.08067 195.341 5.866L195.474 6.328C195.385 6.54733 195.229 6.72233 195.005 6.853C194.781 6.979 194.498 7.042 194.158 7.042ZM198.53 7.042C198.157 7.042 197.867 6.94167 197.662 6.741C197.457 6.54033 197.354 6.25333 197.354 5.88V2.478H198.026V5.852C198.026 6.05267 198.075 6.20667 198.173 6.314C198.276 6.42133 198.42 6.475 198.607 6.475C198.817 6.475 198.992 6.41667 199.132 6.3L199.342 6.783C199.239 6.87167 199.116 6.937 198.971 6.979C198.831 7.021 198.684 7.042 198.53 7.042ZM196.724 3.843V3.29H199.09V3.843H196.724Z" fill="#7D9AAF"/>
<path d="M192.539 27V16.95L193.019 17.46H190.064V16.5H193.619V27H192.539ZM199.444 27.09C198.694 27.09 197.979 26.97 197.299 26.73C196.619 26.48 196.079 26.15 195.679 25.74L196.204 24.885C196.534 25.235 196.984 25.525 197.554 25.755C198.134 25.985 198.759 26.1 199.429 26.1C200.319 26.1 200.994 25.905 201.454 25.515C201.924 25.115 202.159 24.595 202.159 23.955C202.159 23.505 202.049 23.12 201.829 22.8C201.619 22.47 201.259 22.215 200.749 22.035C200.239 21.855 199.539 21.765 198.649 21.765H196.414L196.954 16.5H202.699V17.46H197.389L197.944 16.935L197.479 21.345L196.924 20.805H198.889C199.949 20.805 200.799 20.935 201.439 21.195C202.079 21.455 202.539 21.82 202.819 22.29C203.109 22.75 203.254 23.29 203.254 23.91C203.254 24.5 203.114 25.04 202.834 25.53C202.554 26.01 202.134 26.39 201.574 26.67C201.014 26.95 200.304 27.09 199.444 27.09Z" fill="#7D9AAF"/>
<path d="M217.686 20.1947L219.953 23.0088L226 15.5046L219.953 8.00033L217.686 10.8144L221.465 15.5046L217.686 20.1947Z" fill="#AE937A"/>
<path d="M217.686 20.1947L219.953 23.0088L226 15.5046L219.953 8.00033L217.686 10.8144L221.465 15.5046L217.686 20.1947Z" fill="#4959EE"/>
<path d="M8.31445 10.8141L6.04689 8L6.96182e-05 15.5042L6.04689 23.0085L8.31445 20.1944L4.53519 15.5042L8.31445 10.8141Z" fill="#AE937A"/>
<path d="M8.31445 10.8141L6.04689 8L6.96182e-05 15.5042L6.04689 23.0085L8.31445 20.1944L4.53519 15.5042L8.31445 10.8141Z" fill="#4959EE"/>
</svg>
