<svg width="33" height="31" viewBox="0 0 33 31" fill="none" xmlns="http://www.w3.org/2000/svg">
<ellipse cx="16.5" cy="15.5" rx="16.5" ry="15.5" fill="url(#paint0_linear_1023_938)"/>
<g clip-path="url(#clip0_1023_938)">
<path d="M24.1875 7.1875H9.8125C9.12214 7.1875 8.5625 7.74714 8.5625 8.4375V23.4375C8.5625 24.1279 9.12214 24.6875 9.8125 24.6875H24.1875C24.8779 24.6875 25.4375 24.1279 25.4375 23.4375V8.4375C25.4375 7.74714 24.8779 7.1875 24.1875 7.1875Z" fill="#D9D8DA"/>
<path d="M12.3125 13.4375H10.4375V15.3125H12.3125V13.4375Z" fill="#57565D"/>
<path d="M12.3125 17.1875H10.4375V19.0625H12.3125V17.1875Z" fill="#57565D"/>
<path d="M12.3125 20.9375H10.4375V22.8125H12.3125V20.9375Z" fill="#57565D"/>
<path d="M19.8125 13.4375H17.9375V15.3125H19.8125V13.4375Z" fill="#57565D"/>
<path d="M19.8125 17.1875H17.9375V19.0625H19.8125V17.1875Z" fill="#57565D"/>
<path d="M16.0625 17.1875H14.1875V19.0625H16.0625V17.1875Z" fill="#57565D"/>
<path d="M16.0625 20.9375H14.1875V22.8125H16.0625V20.9375Z" fill="#57565D"/>
<path d="M19.8125 20.9375H17.9375V22.8125H19.8125V20.9375Z" fill="#57565D"/>
<path d="M23.5625 13.4375H21.6875V15.3125H23.5625V13.4375Z" fill="#57565D"/>
<path d="M23.5625 17.1875H21.6875V19.0625H23.5625V17.1875Z" fill="#57565D"/>
<path d="M16.0312 13.3936L14.7812 15.2686L14.1562 14.0186" stroke="black" stroke-linecap="round" stroke-linejoin="round"/>
<path d="M23.5312 20.8936L22.2812 22.7686L21.6562 21.5186" stroke="black" stroke-linecap="round" stroke-linejoin="round"/>
<path d="M25.4375 8.4375V11.5625H8.5625V8.4375C8.56349 8.10628 8.6955 7.78892 8.92971 7.55471C9.16392 7.3205 9.48128 7.18849 9.8125 7.1875H24.1875C24.5187 7.18849 24.8361 7.3205 25.0703 7.55471C25.3045 7.78892 25.4365 8.10628 25.4375 8.4375Z" fill="#ED456A"/>
<path d="M12.3125 6.25C12.3125 5.73223 11.8928 5.3125 11.375 5.3125C10.8572 5.3125 10.4375 5.73223 10.4375 6.25V8.125C10.4375 8.64277 10.8572 9.0625 11.375 9.0625C11.8928 9.0625 12.3125 8.64277 12.3125 8.125V6.25Z" fill="#57565D"/>
<path d="M23.5625 6.25C23.5625 5.73223 23.1428 5.3125 22.625 5.3125C22.1072 5.3125 21.6875 5.73223 21.6875 6.25V8.125C21.6875 8.64277 22.1072 9.0625 22.625 9.0625C23.1428 9.0625 23.5625 8.64277 23.5625 8.125V6.25Z" fill="#57565D"/>
<path d="M16.0625 20.625H14.1875C14.1046 20.625 14.0251 20.6579 13.9665 20.7165C13.9079 20.7751 13.875 20.8546 13.875 20.9375V22.8125C13.875 22.8954 13.9079 22.9749 13.9665 23.0335C14.0251 23.0921 14.1046 23.125 14.1875 23.125H16.0625C16.1454 23.125 16.2249 23.0921 16.2835 23.0335C16.3421 22.9749 16.375 22.8954 16.375 22.8125V20.9375C16.375 20.8546 16.3421 20.7751 16.2835 20.7165C16.2249 20.6579 16.1454 20.625 16.0625 20.625ZM15.75 22.5H14.5V21.25H15.75V22.5ZM17.9375 23.125H19.8125C19.8954 23.125 19.9749 23.0921 20.0335 23.0335C20.0921 22.9749 20.125 22.8954 20.125 22.8125V20.9375C20.125 20.8546 20.0921 20.7751 20.0335 20.7165C19.9749 20.6579 19.8954 20.625 19.8125 20.625H17.9375C17.8546 20.625 17.7751 20.6579 17.7165 20.7165C17.6579 20.7751 17.625 20.8546 17.625 20.9375V22.8125C17.625 22.8954 17.6579 22.9749 17.7165 23.0335C17.7751 23.0921 17.8546 23.125 17.9375 23.125ZM18.25 21.25H19.5V22.5H18.25V21.25ZM10.4375 15.625H12.3125C12.3954 15.625 12.4749 15.5921 12.5335 15.5335C12.5921 15.4749 12.625 15.3954 12.625 15.3125V13.4375C12.625 13.3546 12.5921 13.2751 12.5335 13.2165C12.4749 13.1579 12.3954 13.125 12.3125 13.125H10.4375C10.3546 13.125 10.2751 13.1579 10.2165 13.2165C10.1579 13.2751 10.125 13.3546 10.125 13.4375V15.3125C10.125 15.3954 10.1579 15.4749 10.2165 15.5335C10.2751 15.5921 10.3546 15.625 10.4375 15.625ZM10.75 13.75H12V15H10.75V13.75ZM16.0625 16.875H14.1875C14.1046 16.875 14.0251 16.9079 13.9665 16.9665C13.9079 17.0251 13.875 17.1046 13.875 17.1875V19.0625C13.875 19.1454 13.9079 19.2249 13.9665 19.2835C14.0251 19.3421 14.1046 19.375 14.1875 19.375H16.0625C16.1454 19.375 16.2249 19.3421 16.2835 19.2835C16.3421 19.2249 16.375 19.1454 16.375 19.0625V17.1875C16.375 17.1046 16.3421 17.0251 16.2835 16.9665C16.2249 16.9079 16.1454 16.875 16.0625 16.875ZM15.75 18.75H14.5V17.5H15.75V18.75ZM24.1875 6.875H23.875V6.25C23.875 5.91848 23.7433 5.60054 23.5089 5.36612C23.2745 5.1317 22.9565 5 22.625 5C22.2935 5 21.9755 5.1317 21.7411 5.36612C21.5067 5.60054 21.375 5.91848 21.375 6.25V6.875H12.625V6.25C12.625 5.91848 12.4933 5.60054 12.2589 5.36612C12.0245 5.1317 11.7065 5 11.375 5C11.0435 5 10.7255 5.1317 10.4911 5.36612C10.2567 5.60054 10.125 5.91848 10.125 6.25V6.875H9.8125C9.3981 6.875 9.00067 7.03962 8.70765 7.33265C8.41462 7.62567 8.25 8.0231 8.25 8.4375V23.4375C8.25 23.8519 8.41462 24.2493 8.70765 24.5424C9.00067 24.8354 9.3981 25 9.8125 25H24.1875C24.6019 25 24.9993 24.8354 25.2924 24.5424C25.5854 24.2493 25.75 23.8519 25.75 23.4375V8.4375C25.75 8.0231 25.5854 7.62567 25.2924 7.33265C24.9993 7.03962 24.6019 6.875 24.1875 6.875ZM22 6.25C22 6.08424 22.0658 5.92527 22.1831 5.80806C22.3003 5.69085 22.4592 5.625 22.625 5.625C22.7908 5.625 22.9497 5.69085 23.0669 5.80806C23.1842 5.92527 23.25 6.08424 23.25 6.25V8.125C23.25 8.29076 23.1842 8.44973 23.0669 8.56694C22.9497 8.68415 22.7908 8.75 22.625 8.75C22.4592 8.75 22.3003 8.68415 22.1831 8.56694C22.0658 8.44973 22 8.29076 22 8.125V6.25ZM10.75 6.25C10.75 6.08424 10.8158 5.92527 10.9331 5.80806C11.0503 5.69085 11.2092 5.625 11.375 5.625C11.5408 5.625 11.6997 5.69085 11.8169 5.80806C11.9342 5.92527 12 6.08424 12 6.25V8.125C12 8.29076 11.9342 8.44973 11.8169 8.56694C11.6997 8.68415 11.5408 8.75 11.375 8.75C11.2092 8.75 11.0503 8.68415 10.9331 8.56694C10.8158 8.44973 10.75 8.29076 10.75 8.125V6.25ZM25.125 23.4375C25.125 23.6861 25.0262 23.9246 24.8504 24.1004C24.6746 24.2762 24.4361 24.375 24.1875 24.375H9.8125C9.56386 24.375 9.3254 24.2762 9.14959 24.1004C8.97377 23.9246 8.875 23.6861 8.875 23.4375V11.875H25.125V23.4375ZM25.125 11.25H8.875V8.4375C8.875 8.18886 8.97377 7.9504 9.14959 7.77459C9.3254 7.59877 9.56386 7.5 9.8125 7.5H10.125V8.125C10.125 8.45652 10.2567 8.77446 10.4911 9.00888C10.7255 9.2433 11.0435 9.375 11.375 9.375C11.7065 9.375 12.0245 9.2433 12.2589 9.00888C12.4933 8.77446 12.625 8.45652 12.625 8.125V7.5H21.375V8.125C21.375 8.45652 21.5067 8.77446 21.7411 9.00888C21.9755 9.2433 22.2935 9.375 22.625 9.375C22.9565 9.375 23.2745 9.2433 23.5089 9.00888C23.7433 8.77446 23.875 8.45652 23.875 8.125V7.5H24.1875C24.4361 7.5 24.6746 7.59877 24.8504 7.77459C25.0262 7.9504 25.125 8.18886 25.125 8.4375V11.25ZM21.6875 15.625H23.5625C23.6454 15.625 23.7249 15.5921 23.7835 15.5335C23.8421 15.4749 23.875 15.3954 23.875 15.3125V13.4375C23.875 13.3546 23.8421 13.2751 23.7835 13.2165C23.7249 13.1579 23.6454 13.125 23.5625 13.125H21.6875C21.6046 13.125 21.5251 13.1579 21.4665 13.2165C21.4079 13.2751 21.375 13.3546 21.375 13.4375V15.3125C21.375 15.3954 21.4079 15.4749 21.4665 15.5335C21.5251 15.5921 21.6046 15.625 21.6875 15.625ZM22 13.75H23.25V15H22V13.75ZM21.6875 19.375H23.5625C23.6454 19.375 23.7249 19.3421 23.7835 19.2835C23.8421 19.2249 23.875 19.1454 23.875 19.0625V17.1875C23.875 17.1046 23.8421 17.0251 23.7835 16.9665C23.7249 16.9079 23.6454 16.875 23.5625 16.875H21.6875C21.6046 16.875 21.5251 16.9079 21.4665 16.9665C21.4079 17.0251 21.375 17.1046 21.375 17.1875V19.0625C21.375 19.1454 21.4079 19.2249 21.4665 19.2835C21.5251 19.3421 21.6046 19.375 21.6875 19.375ZM22 17.5H23.25V18.75H22V17.5ZM17.9375 15.625H19.8125C19.8954 15.625 19.9749 15.5921 20.0335 15.5335C20.0921 15.4749 20.125 15.3954 20.125 15.3125V13.4375C20.125 13.3546 20.0921 13.2751 20.0335 13.2165C19.9749 13.1579 19.8954 13.125 19.8125 13.125H17.9375C17.8546 13.125 17.7751 13.1579 17.7165 13.2165C17.6579 13.2751 17.625 13.3546 17.625 13.4375V15.3125C17.625 15.3954 17.6579 15.4749 17.7165 15.5335C17.7751 15.5921 17.8546 15.625 17.9375 15.625ZM18.25 13.75H19.5V15H18.25V13.75ZM14.5 15.4081C14.5245 15.457 14.5614 15.4986 14.607 15.5288C14.6527 15.559 14.7054 15.5766 14.76 15.58H14.7794C14.8308 15.58 14.8815 15.5672 14.9269 15.5429C14.9722 15.5186 15.0109 15.4835 15.0394 15.4406L16.2894 13.5656C16.3122 13.5315 16.328 13.4932 16.336 13.4529C16.3439 13.4127 16.3439 13.3712 16.3359 13.331C16.3278 13.2907 16.3119 13.2525 16.2891 13.2184C16.2663 13.1842 16.237 13.155 16.2028 13.1322C16.1687 13.1094 16.1304 13.0936 16.0901 13.0856C16.0499 13.0776 16.0084 13.0777 15.9682 13.0857C15.9279 13.0937 15.8896 13.1096 15.8555 13.1325C15.8214 13.1553 15.7922 13.1846 15.7694 13.2188L14.8181 14.6456L14.4375 13.8788C14.4192 13.842 14.3938 13.8093 14.3628 13.7824C14.3318 13.7554 14.2958 13.7349 14.2568 13.7219C14.2179 13.7089 14.1767 13.7037 14.1358 13.7066C14.0948 13.7095 14.0549 13.7204 14.0181 13.7388C13.9814 13.7571 13.9486 13.7825 13.9217 13.8135C13.8948 13.8445 13.8743 13.8805 13.8613 13.9194C13.8483 13.9584 13.8431 13.9995 13.846 14.0405C13.8489 14.0814 13.8598 14.1214 13.8781 14.1581L14.5 15.4081ZM10.4375 19.375H12.3125C12.3954 19.375 12.4749 19.3421 12.5335 19.2835C12.5921 19.2249 12.625 19.1454 12.625 19.0625V17.1875C12.625 17.1046 12.5921 17.0251 12.5335 16.9665C12.4749 16.9079 12.3954 16.875 12.3125 16.875H10.4375C10.3546 16.875 10.2751 16.9079 10.2165 16.9665C10.1579 17.0251 10.125 17.1046 10.125 17.1875V19.0625C10.125 19.1454 10.1579 19.2249 10.2165 19.2835C10.2751 19.3421 10.3546 19.375 10.4375 19.375ZM10.75 17.5H12V18.75H10.75V17.5ZM17.9375 19.375H19.8125C19.8954 19.375 19.9749 19.3421 20.0335 19.2835C20.0921 19.2249 20.125 19.1454 20.125 19.0625V17.1875C20.125 17.1046 20.0921 17.0251 20.0335 16.9665C19.9749 16.9079 19.8954 16.875 19.8125 16.875H17.9375C17.8546 16.875 17.7751 16.9079 17.7165 16.9665C17.6579 17.0251 17.625 17.1046 17.625 17.1875V19.0625C17.625 19.1454 17.6579 19.2249 17.7165 19.2835C17.7751 19.3421 17.8546 19.375 17.9375 19.375ZM18.25 17.5H19.5V18.75H18.25V17.5ZM10.4375 23.125H12.3125C12.3954 23.125 12.4749 23.0921 12.5335 23.0335C12.5921 22.9749 12.625 22.8954 12.625 22.8125V20.9375C12.625 20.8546 12.5921 20.7751 12.5335 20.7165C12.4749 20.6579 12.3954 20.625 12.3125 20.625H10.4375C10.3546 20.625 10.2751 20.6579 10.2165 20.7165C10.1579 20.7751 10.125 20.8546 10.125 20.9375V22.8125C10.125 22.8954 10.1579 22.9749 10.2165 23.0335C10.2751 23.0921 10.3546 23.125 10.4375 23.125ZM10.75 21.25H12V22.5H10.75V21.25ZM22 22.9081C22.0245 22.957 22.0614 22.9986 22.107 23.0288C22.1527 23.059 22.2054 23.0766 22.26 23.08H22.2794C22.3308 23.08 22.3815 23.0672 22.4269 23.0429C22.4722 23.0186 22.5109 22.9835 22.5394 22.9406L23.7894 21.0656C23.8122 21.0315 23.828 20.9932 23.836 20.9529C23.8439 20.9127 23.8439 20.8712 23.8359 20.831C23.8278 20.7907 23.8119 20.7525 23.7891 20.7184C23.7663 20.6842 23.737 20.655 23.7028 20.6322C23.6687 20.6094 23.6304 20.5936 23.5901 20.5856C23.5499 20.5776 23.5084 20.5777 23.4682 20.5857C23.4279 20.5937 23.3896 20.6096 23.3555 20.6325C23.3214 20.6553 23.2922 20.6846 23.2694 20.7188L22.3181 22.1456L21.9375 21.3787C21.9005 21.3046 21.8355 21.2481 21.7568 21.2219C21.6782 21.1956 21.5923 21.2017 21.5181 21.2388C21.4439 21.2758 21.3875 21.3408 21.3613 21.4194C21.335 21.4981 21.3411 21.5839 21.3781 21.6581L22 22.9081Z" fill="white"/>
</g>
<defs>
<linearGradient id="paint0_linear_1023_938" x1="23.7794" y1="4.84375" x2="4.40955" y2="27.1614" gradientUnits="userSpaceOnUse">
<stop stop-color="#4959EE"/>
<stop offset="0.547509" stop-color="#0B2749"/>
<stop offset="1" stop-color="#0B2749"/>
</linearGradient>
<clipPath id="clip0_1023_938">
<rect width="20" height="20" fill="white" transform="translate(7 5)"/>
</clipPath>
</defs>
</svg>
