<svg width="522" height="200" viewBox="0 0 522 200" fill="none" xmlns="http://www.w3.org/2000/svg">
<path d="M50.7935 171V165" stroke="black"/>
<path d="M51.2882 187V182.1H51.8622L54.0602 185.803H53.7522L55.9222 182.1H56.4962L56.5032 187H55.8312L55.8242 183.157H55.9852L54.0532 186.405H53.7312L51.7852 183.157H51.9602V187H51.2882ZM59.4648 187.042C59.0914 187.042 58.7601 186.96 58.4708 186.797C58.1814 186.634 57.9528 186.41 57.7848 186.125C57.6168 185.836 57.5328 185.509 57.5328 185.145C57.5328 184.776 57.6168 184.45 57.7848 184.165C57.9528 183.88 58.1814 183.659 58.4708 183.5C58.7601 183.337 59.0914 183.255 59.4648 183.255C59.8334 183.255 60.1624 183.337 60.4518 183.5C60.7458 183.659 60.9744 183.88 61.1378 184.165C61.3058 184.445 61.3898 184.772 61.3898 185.145C61.3898 185.514 61.3058 185.84 61.1378 186.125C60.9744 186.41 60.7458 186.634 60.4518 186.797C60.1624 186.96 59.8334 187.042 59.4648 187.042ZM59.4648 186.454C59.7028 186.454 59.9151 186.4 60.1018 186.293C60.2931 186.186 60.4424 186.034 60.5498 185.838C60.6571 185.637 60.7108 185.406 60.7108 185.145C60.7108 184.879 60.6571 184.65 60.5498 184.459C60.4424 184.263 60.2931 184.111 60.1018 184.004C59.9151 183.897 59.7028 183.843 59.4648 183.843C59.2268 183.843 59.0144 183.897 58.8278 184.004C58.6411 184.111 58.4918 184.263 58.3798 184.459C58.2678 184.65 58.2118 184.879 58.2118 185.145C58.2118 185.406 58.2678 185.637 58.3798 185.838C58.4918 186.034 58.6411 186.186 58.8278 186.293C59.0144 186.4 59.2268 186.454 59.4648 186.454ZM64.3001 183.255C64.6035 183.255 64.8695 183.313 65.0981 183.43C65.3315 183.547 65.5135 183.724 65.6441 183.962C65.7748 184.2 65.8401 184.501 65.8401 184.865V187H65.1681V184.942C65.1681 184.583 65.0795 184.312 64.9021 184.13C64.7295 183.948 64.4845 183.857 64.1671 183.857C63.9291 183.857 63.7215 183.904 63.5441 183.997C63.3668 184.09 63.2291 184.228 63.1311 184.41C63.0378 184.592 62.9911 184.818 62.9911 185.089V187H62.3191V183.29H62.9631V184.291L62.8581 184.025C62.9795 183.782 63.1661 183.593 63.4181 183.458C63.6701 183.323 63.9641 183.255 64.3001 183.255Z" fill="#B7C4CA"/>
<path d="M128.677 171V165" stroke="black"/>
<path d="M129.187 187V182.709H127.507V182.1H131.56V182.709H129.88V187H129.187ZM133.696 187.042C133.379 187.042 133.099 186.984 132.856 186.867C132.618 186.75 132.431 186.573 132.296 186.335C132.165 186.092 132.1 185.789 132.1 185.425V183.29H132.772V185.348C132.772 185.712 132.858 185.985 133.031 186.167C133.208 186.349 133.456 186.44 133.773 186.44C134.006 186.44 134.209 186.393 134.382 186.3C134.555 186.202 134.688 186.062 134.781 185.88C134.874 185.693 134.921 185.469 134.921 185.208V183.29H135.593V187H134.956V185.999L135.061 186.265C134.94 186.512 134.758 186.704 134.515 186.839C134.272 186.974 133.999 187.042 133.696 187.042ZM138.524 187.042C138.128 187.042 137.778 186.96 137.474 186.797C137.176 186.634 136.942 186.41 136.774 186.125C136.611 185.84 136.529 185.514 136.529 185.145C136.529 184.776 136.609 184.45 136.767 184.165C136.931 183.88 137.152 183.659 137.432 183.5C137.717 183.337 138.037 183.255 138.391 183.255C138.751 183.255 139.068 183.334 139.343 183.493C139.619 183.652 139.833 183.876 139.987 184.165C140.146 184.45 140.225 184.783 140.225 185.166C140.225 185.194 140.223 185.227 140.218 185.264C140.218 185.301 140.216 185.336 140.211 185.369H137.054V184.886H139.861L139.588 185.054C139.593 184.816 139.544 184.604 139.441 184.417C139.339 184.23 139.196 184.086 139.014 183.983C138.837 183.876 138.629 183.822 138.391 183.822C138.158 183.822 137.95 183.876 137.768 183.983C137.586 184.086 137.444 184.233 137.341 184.424C137.239 184.611 137.187 184.825 137.187 185.068V185.18C137.187 185.427 137.243 185.649 137.355 185.845C137.472 186.036 137.633 186.186 137.838 186.293C138.044 186.4 138.279 186.454 138.545 186.454C138.765 186.454 138.963 186.417 139.14 186.342C139.322 186.267 139.481 186.155 139.616 186.006L139.987 186.44C139.819 186.636 139.609 186.785 139.357 186.888C139.11 186.991 138.832 187.042 138.524 187.042Z" fill="#B7C4CA"/>
<path d="M213.217 171V165" stroke="black"/>
<path d="M206.801 186.52L205.163 181.62H205.884L207.389 186.142H207.025L208.586 181.62H209.23L210.756 186.142H210.406L211.932 181.62H212.597L210.959 186.52H210.224L208.796 182.327H208.985L207.55 186.52H206.801ZM214.727 186.562C214.33 186.562 213.98 186.48 213.677 186.317C213.378 186.153 213.145 185.929 212.977 185.645C212.813 185.36 212.732 185.033 212.732 184.665C212.732 184.296 212.811 183.969 212.97 183.685C213.133 183.4 213.355 183.178 213.635 183.02C213.919 182.856 214.239 182.775 214.594 182.775C214.953 182.775 215.27 182.854 215.546 183.013C215.821 183.171 216.036 183.395 216.19 183.685C216.348 183.969 216.428 184.303 216.428 184.686C216.428 184.714 216.425 184.746 216.421 184.784C216.421 184.821 216.418 184.856 216.414 184.889H213.257V184.406H216.064L215.791 184.574C215.795 184.336 215.746 184.123 215.644 183.937C215.541 183.75 215.399 183.605 215.217 183.503C215.039 183.395 214.832 183.342 214.594 183.342C214.36 183.342 214.153 183.395 213.971 183.503C213.789 183.605 213.646 183.752 213.544 183.944C213.441 184.13 213.39 184.345 213.39 184.588V184.7C213.39 184.947 213.446 185.169 213.558 185.365C213.674 185.556 213.835 185.705 214.041 185.813C214.246 185.92 214.482 185.974 214.748 185.974C214.967 185.974 215.165 185.936 215.343 185.862C215.525 185.787 215.683 185.675 215.819 185.526L216.19 185.96C216.022 186.156 215.812 186.305 215.56 186.408C215.312 186.51 215.035 186.562 214.727 186.562ZM218.894 186.562C218.535 186.562 218.213 186.482 217.928 186.324C217.648 186.165 217.426 185.943 217.263 185.659C217.1 185.374 217.018 185.043 217.018 184.665C217.018 184.287 217.1 183.958 217.263 183.678C217.426 183.393 217.648 183.171 217.928 183.013C218.213 182.854 218.535 182.775 218.894 182.775C219.207 182.775 219.489 182.845 219.741 182.985C219.993 183.125 220.194 183.335 220.343 183.615C220.497 183.895 220.574 184.245 220.574 184.665C220.574 185.085 220.499 185.435 220.35 185.715C220.205 185.995 220.007 186.207 219.755 186.352C219.503 186.492 219.216 186.562 218.894 186.562ZM218.95 185.974C219.183 185.974 219.393 185.92 219.58 185.813C219.771 185.705 219.921 185.554 220.028 185.358C220.14 185.157 220.196 184.926 220.196 184.665C220.196 184.399 220.14 184.17 220.028 183.979C219.921 183.783 219.771 183.631 219.58 183.524C219.393 183.416 219.183 183.363 218.95 183.363C218.712 183.363 218.5 183.416 218.313 183.524C218.126 183.631 217.977 183.783 217.865 183.979C217.753 184.17 217.697 184.399 217.697 184.665C217.697 184.926 217.753 185.157 217.865 185.358C217.977 185.554 218.126 185.705 218.313 185.813C218.5 185.92 218.712 185.974 218.95 185.974ZM220.217 186.52V185.519L220.259 184.658L220.189 183.797V181.326H220.861V186.52H220.217Z" fill="#B7C4CA"/>
<path d="M284.443 171V165" stroke="black"/>
<path d="M283.467 187V182.709H281.787V182.1H285.84V182.709H284.16V187H283.467ZM288.486 183.255C288.789 183.255 289.055 183.313 289.284 183.43C289.517 183.547 289.699 183.724 289.83 183.962C289.96 184.2 290.026 184.501 290.026 184.865V187H289.354V184.942C289.354 184.583 289.265 184.312 289.088 184.13C288.915 183.948 288.67 183.857 288.353 183.857C288.115 183.857 287.907 183.904 287.73 183.997C287.552 184.09 287.415 184.228 287.317 184.41C287.223 184.592 287.177 184.818 287.177 185.089V187H286.505V181.806H287.177V184.291L287.044 184.025C287.165 183.782 287.352 183.593 287.604 183.458C287.856 183.323 288.15 183.255 288.486 183.255ZM292.83 187.042C292.513 187.042 292.233 186.984 291.99 186.867C291.752 186.75 291.566 186.573 291.43 186.335C291.3 186.092 291.234 185.789 291.234 185.425V183.29H291.906V185.348C291.906 185.712 291.993 185.985 292.165 186.167C292.343 186.349 292.59 186.44 292.907 186.44C293.141 186.44 293.344 186.393 293.516 186.3C293.689 186.202 293.822 186.062 293.915 185.88C294.009 185.693 294.055 185.469 294.055 185.208V183.29H294.727V187H294.09V185.999L294.195 186.265C294.074 186.512 293.892 186.704 293.649 186.839C293.407 186.974 293.134 187.042 292.83 187.042ZM296.007 187V183.29H296.651V184.298L296.588 184.046C296.69 183.789 296.863 183.593 297.106 183.458C297.348 183.323 297.647 183.255 298.002 183.255V183.906C297.974 183.901 297.946 183.899 297.918 183.899C297.894 183.899 297.871 183.899 297.848 183.899C297.488 183.899 297.204 184.006 296.994 184.221C296.784 184.436 296.679 184.746 296.679 185.152V187H296.007Z" fill="#B7C4CA"/>
<path d="M362.326 171V165" stroke="black"/>
<path d="M361.288 184.417H363.815V185.019H361.288V184.417ZM361.358 187H360.658V182.1H364.116V182.709H361.358V187ZM364.935 187V183.29H365.579V184.298L365.516 184.046C365.619 183.789 365.792 183.593 366.034 183.458C366.277 183.323 366.576 183.255 366.93 183.255V183.906C366.902 183.901 366.874 183.899 366.846 183.899C366.823 183.899 366.8 183.899 366.776 183.899C366.417 183.899 366.132 184.006 365.922 184.221C365.712 184.436 365.607 184.746 365.607 185.152V187H364.935ZM367.759 187V183.29H368.431V187H367.759ZM368.095 182.576C367.964 182.576 367.854 182.534 367.766 182.45C367.682 182.366 367.64 182.263 367.64 182.142C367.64 182.016 367.682 181.911 367.766 181.827C367.854 181.743 367.964 181.701 368.095 181.701C368.225 181.701 368.333 181.743 368.417 181.827C368.505 181.906 368.55 182.007 368.55 182.128C368.55 182.254 368.508 182.361 368.424 182.45C368.34 182.534 368.23 182.576 368.095 182.576Z" fill="#B7C4CA"/>
<path d="M440.209 171V165" stroke="black"/>
<path d="M440.948 187.056C440.575 187.056 440.218 187 439.877 186.888C439.536 186.771 439.268 186.622 439.072 186.44L439.331 185.894C439.518 186.057 439.756 186.193 440.045 186.3C440.334 186.407 440.635 186.461 440.948 186.461C441.233 186.461 441.464 186.428 441.641 186.363C441.818 186.298 441.949 186.209 442.033 186.097C442.117 185.98 442.159 185.85 442.159 185.705C442.159 185.537 442.103 185.402 441.991 185.299C441.884 185.196 441.741 185.115 441.564 185.054C441.391 184.989 441.2 184.933 440.99 184.886C440.78 184.839 440.568 184.786 440.353 184.725C440.143 184.66 439.949 184.578 439.772 184.48C439.599 184.382 439.459 184.251 439.352 184.088C439.245 183.92 439.191 183.705 439.191 183.444C439.191 183.192 439.256 182.961 439.387 182.751C439.522 182.536 439.728 182.366 440.003 182.24C440.283 182.109 440.638 182.044 441.067 182.044C441.352 182.044 441.634 182.081 441.914 182.156C442.194 182.231 442.437 182.338 442.642 182.478L442.411 183.038C442.201 182.898 441.979 182.798 441.746 182.737C441.513 182.672 441.286 182.639 441.067 182.639C440.792 182.639 440.565 182.674 440.388 182.744C440.211 182.814 440.08 182.907 439.996 183.024C439.917 183.141 439.877 183.271 439.877 183.416C439.877 183.589 439.931 183.726 440.038 183.829C440.15 183.932 440.292 184.013 440.465 184.074C440.642 184.135 440.836 184.191 441.046 184.242C441.256 184.289 441.466 184.342 441.676 184.403C441.891 184.464 442.084 184.543 442.257 184.641C442.434 184.739 442.577 184.87 442.684 185.033C442.791 185.196 442.845 185.406 442.845 185.663C442.845 185.91 442.777 186.141 442.642 186.356C442.507 186.566 442.297 186.736 442.012 186.867C441.732 186.993 441.377 187.056 440.948 187.056ZM446.073 187V186.216L446.038 186.069V184.732C446.038 184.447 445.954 184.228 445.786 184.074C445.622 183.915 445.375 183.836 445.044 183.836C444.824 183.836 444.61 183.873 444.4 183.948C444.19 184.018 444.012 184.114 443.868 184.235L443.588 183.731C443.779 183.577 444.008 183.46 444.274 183.381C444.544 183.297 444.827 183.255 445.121 183.255C445.629 183.255 446.021 183.379 446.297 183.626C446.572 183.873 446.71 184.251 446.71 184.76V187H446.073ZM444.855 187.042C444.579 187.042 444.337 186.995 444.127 186.902C443.921 186.809 443.763 186.68 443.651 186.517C443.539 186.349 443.483 186.16 443.483 185.95C443.483 185.749 443.529 185.567 443.623 185.404C443.721 185.241 443.877 185.11 444.092 185.012C444.311 184.914 444.605 184.865 444.974 184.865H446.15V185.348H445.002C444.666 185.348 444.439 185.404 444.323 185.516C444.206 185.628 444.148 185.763 444.148 185.922C444.148 186.104 444.22 186.251 444.365 186.363C444.509 186.47 444.71 186.524 444.967 186.524C445.219 186.524 445.438 186.468 445.625 186.356C445.816 186.244 445.954 186.081 446.038 185.866L446.171 186.328C446.082 186.547 445.926 186.722 445.702 186.853C445.478 186.979 445.195 187.042 444.855 187.042ZM449.227 187.042C448.854 187.042 448.565 186.942 448.359 186.741C448.154 186.54 448.051 186.253 448.051 185.88V182.478H448.723V185.852C448.723 186.053 448.772 186.207 448.87 186.314C448.973 186.421 449.118 186.475 449.304 186.475C449.514 186.475 449.689 186.417 449.829 186.3L450.039 186.783C449.937 186.872 449.813 186.937 449.668 186.979C449.528 187.021 449.381 187.042 449.227 187.042ZM447.421 183.843V183.29H449.787V183.843H447.421Z" fill="#B7C4CA"/>
<path d="M518.093 171V165" stroke="black"/>
<path d="M508.238 187.056C507.865 187.056 507.508 187 507.167 186.888C506.827 186.771 506.558 186.622 506.362 186.44L506.621 185.894C506.808 186.057 507.046 186.193 507.335 186.3C507.625 186.407 507.926 186.461 508.238 186.461C508.523 186.461 508.754 186.428 508.931 186.363C509.109 186.298 509.239 186.209 509.323 186.097C509.407 185.98 509.449 185.85 509.449 185.705C509.449 185.537 509.393 185.402 509.281 185.299C509.174 185.196 509.032 185.115 508.854 185.054C508.682 184.989 508.49 184.933 508.28 184.886C508.07 184.839 507.858 184.786 507.643 184.725C507.433 184.66 507.24 184.578 507.062 184.48C506.89 184.382 506.75 184.251 506.642 184.088C506.535 183.92 506.481 183.705 506.481 183.444C506.481 183.192 506.547 182.961 506.677 182.751C506.813 182.536 507.018 182.366 507.293 182.24C507.573 182.109 507.928 182.044 508.357 182.044C508.642 182.044 508.924 182.081 509.204 182.156C509.484 182.231 509.727 182.338 509.932 182.478L509.701 183.038C509.491 182.898 509.27 182.798 509.036 182.737C508.803 182.672 508.577 182.639 508.357 182.639C508.082 182.639 507.856 182.674 507.678 182.744C507.501 182.814 507.37 182.907 507.286 183.024C507.207 183.141 507.167 183.271 507.167 183.416C507.167 183.589 507.221 183.726 507.328 183.829C507.44 183.932 507.583 184.013 507.755 184.074C507.933 184.135 508.126 184.191 508.336 184.242C508.546 184.289 508.756 184.342 508.966 184.403C509.181 184.464 509.375 184.543 509.547 184.641C509.725 184.739 509.867 184.87 509.974 185.033C510.082 185.196 510.135 185.406 510.135 185.663C510.135 185.91 510.068 186.141 509.932 186.356C509.797 186.566 509.587 186.736 509.302 186.867C509.022 186.993 508.668 187.056 508.238 187.056ZM512.621 187.042C512.304 187.042 512.024 186.984 511.781 186.867C511.543 186.75 511.356 186.573 511.221 186.335C511.09 186.092 511.025 185.789 511.025 185.425V183.29H511.697V185.348C511.697 185.712 511.783 185.985 511.956 186.167C512.133 186.349 512.381 186.44 512.698 186.44C512.931 186.44 513.134 186.393 513.307 186.3C513.48 186.202 513.613 186.062 513.706 185.88C513.799 185.693 513.846 185.469 513.846 185.208V183.29H514.518V187H513.881V185.999L513.986 186.265C513.865 186.512 513.683 186.704 513.44 186.839C513.197 186.974 512.924 187.042 512.621 187.042ZM517.778 183.255C518.081 183.255 518.347 183.313 518.576 183.43C518.809 183.547 518.991 183.724 519.122 183.962C519.253 184.2 519.318 184.501 519.318 184.865V187H518.646V184.942C518.646 184.583 518.557 184.312 518.38 184.13C518.207 183.948 517.962 183.857 517.645 183.857C517.407 183.857 517.199 183.904 517.022 183.997C516.845 184.09 516.707 184.228 516.609 184.41C516.516 184.592 516.469 184.818 516.469 185.089V187H515.797V183.29H516.441V184.291L516.336 184.025C516.457 183.782 516.644 183.593 516.896 183.458C517.148 183.323 517.442 183.255 517.778 183.255Z" fill="#B7C4CA"/>
<path d="M50.7935 5V165" stroke="black"/>
<path d="M46.105 165H50.7936" stroke="black"/>
<path d="M38.2019 169.356C37.5459 169.356 36.9579 169.188 36.4379 168.852C35.9259 168.516 35.5179 168.028 35.2139 167.388C34.9179 166.748 34.7699 165.972 34.7699 165.06C34.7699 164.148 34.9179 163.372 35.2139 162.732C35.5179 162.092 35.9259 161.604 36.4379 161.268C36.9579 160.932 37.5459 160.764 38.2019 160.764C38.8499 160.764 39.4339 160.932 39.9539 161.268C40.4739 161.604 40.8819 162.092 41.1779 162.732C41.4739 163.372 41.6219 164.148 41.6219 165.06C41.6219 165.972 41.4739 166.748 41.1779 167.388C40.8819 168.028 40.4739 168.516 39.9539 168.852C39.4339 169.188 38.8499 169.356 38.2019 169.356ZM38.2019 168.288C38.6419 168.288 39.0259 168.168 39.3539 167.928C39.6899 167.688 39.9499 167.328 40.1339 166.848C40.3259 166.368 40.4219 165.772 40.4219 165.06C40.4219 164.348 40.3259 163.752 40.1339 163.272C39.9499 162.792 39.6899 162.432 39.3539 162.192C39.0259 161.952 38.6419 161.832 38.2019 161.832C37.7619 161.832 37.3739 161.952 37.0379 162.192C36.7019 162.432 36.4379 162.792 36.2459 163.272C36.0619 163.752 35.9699 164.348 35.9699 165.06C35.9699 165.772 36.0619 166.368 36.2459 166.848C36.4379 167.328 36.7019 167.688 37.0379 167.928C37.3739 168.168 37.7619 168.288 38.2019 168.288Z" fill="#B7C4CA"/>
<path d="M46.105 125H50.7936" stroke="black"/>
<path d="M21.7685 129.096C21.1765 129.096 20.6005 129.004 20.0405 128.82C19.4885 128.636 19.0365 128.388 18.6845 128.076L19.2365 127.128C19.5165 127.392 19.8805 127.608 20.3285 127.776C20.7765 127.944 21.2525 128.028 21.7565 128.028C22.3965 128.028 22.8885 127.892 23.2325 127.62C23.5765 127.348 23.7485 126.984 23.7485 126.528C23.7485 126.216 23.6725 125.944 23.5205 125.712C23.3685 125.48 23.1045 125.304 22.7285 125.184C22.3605 125.056 21.8525 124.992 21.2045 124.992H19.2965L19.7405 120.6H24.4805V121.644H20.1845L20.8085 121.056L20.4605 124.524L19.8365 123.948H21.4565C22.2965 123.948 22.9725 124.056 23.4845 124.272C23.9965 124.488 24.3685 124.788 24.6005 125.172C24.8325 125.548 24.9485 125.984 24.9485 126.48C24.9485 126.96 24.8325 127.4 24.6005 127.8C24.3685 128.192 24.0165 128.508 23.5445 128.748C23.0805 128.98 22.4885 129.096 21.7685 129.096ZM29.3791 129.096C28.7231 129.096 28.1351 128.928 27.6151 128.592C27.1031 128.256 26.6951 127.768 26.3911 127.128C26.0951 126.488 25.9471 125.712 25.9471 124.8C25.9471 123.888 26.0951 123.112 26.3911 122.472C26.6951 121.832 27.1031 121.344 27.6151 121.008C28.1351 120.672 28.7231 120.504 29.3791 120.504C30.0271 120.504 30.6111 120.672 31.1311 121.008C31.6511 121.344 32.0591 121.832 32.3551 122.472C32.6511 123.112 32.7991 123.888 32.7991 124.8C32.7991 125.712 32.6511 126.488 32.3551 127.128C32.0591 127.768 31.6511 128.256 31.1311 128.592C30.6111 128.928 30.0271 129.096 29.3791 129.096ZM29.3791 128.028C29.8191 128.028 30.2031 127.908 30.5311 127.668C30.8671 127.428 31.1271 127.068 31.3111 126.588C31.5031 126.108 31.5991 125.512 31.5991 124.8C31.5991 124.088 31.5031 123.492 31.3111 123.012C31.1271 122.532 30.8671 122.172 30.5311 121.932C30.2031 121.692 29.8191 121.572 29.3791 121.572C28.9391 121.572 28.5511 121.692 28.2151 121.932C27.8791 122.172 27.6151 122.532 27.4231 123.012C27.2391 123.492 27.1471 124.088 27.1471 124.8C27.1471 125.512 27.2391 126.108 27.4231 126.588C27.6151 127.068 27.8791 127.428 28.2151 127.668C28.5511 127.908 28.9391 128.028 29.3791 128.028ZM35.691 126.972L35.631 125.508L40.395 120.6H41.763L38.079 124.488L37.407 125.232L35.691 126.972ZM34.635 129V120.6H35.835V129H34.635ZM40.587 129L37.143 124.992L37.947 124.104L41.991 129H40.587Z" fill="#B7C4CA"/>
<path d="M44.124 85H50.7934" stroke="black"/>
<path d="M9.03384 89V88.184L12.4538 84.884C12.7578 84.596 12.9818 84.344 13.1258 84.128C13.2778 83.904 13.3778 83.7 13.4258 83.516C13.4818 83.324 13.5098 83.14 13.5098 82.964C13.5098 82.532 13.3578 82.192 13.0538 81.944C12.7498 81.696 12.3058 81.572 11.7218 81.572C11.2738 81.572 10.8698 81.648 10.5098 81.8C10.1498 81.944 9.83784 82.172 9.57384 82.484L8.75784 81.776C9.07784 81.368 9.50584 81.056 10.0418 80.84C10.5858 80.616 11.1818 80.504 11.8298 80.504C12.4138 80.504 12.9218 80.6 13.3538 80.792C13.7858 80.976 14.1178 81.244 14.3498 81.596C14.5898 81.948 14.7098 82.364 14.7098 82.844C14.7098 83.116 14.6738 83.384 14.6018 83.648C14.5298 83.912 14.3938 84.192 14.1938 84.488C13.9938 84.784 13.7058 85.116 13.3298 85.484L10.2818 88.424L9.99384 87.956H15.0698V89H9.03384ZM18.7685 89.096C18.1765 89.096 17.6005 89.004 17.0405 88.82C16.4885 88.636 16.0365 88.388 15.6845 88.076L16.2365 87.128C16.5165 87.392 16.8805 87.608 17.3285 87.776C17.7765 87.944 18.2525 88.028 18.7565 88.028C19.3965 88.028 19.8885 87.892 20.2325 87.62C20.5765 87.348 20.7485 86.984 20.7485 86.528C20.7485 86.216 20.6725 85.944 20.5205 85.712C20.3685 85.48 20.1045 85.304 19.7285 85.184C19.3605 85.056 18.8525 84.992 18.2045 84.992H16.2965L16.7405 80.6H21.4805V81.644H17.1845L17.8085 81.056L17.4605 84.524L16.8365 83.948H18.4565C19.2965 83.948 19.9725 84.056 20.4845 84.272C20.9965 84.488 21.3685 84.788 21.6005 85.172C21.8325 85.548 21.9485 85.984 21.9485 86.48C21.9485 86.96 21.8325 87.4 21.6005 87.8C21.3685 88.192 21.0165 88.508 20.5445 88.748C20.0805 88.98 19.4885 89.096 18.7685 89.096ZM26.3791 89.096C25.7231 89.096 25.1351 88.928 24.6151 88.592C24.1031 88.256 23.6951 87.768 23.3911 87.128C23.0951 86.488 22.9471 85.712 22.9471 84.8C22.9471 83.888 23.0951 83.112 23.3911 82.472C23.6951 81.832 24.1031 81.344 24.6151 81.008C25.1351 80.672 25.7231 80.504 26.3791 80.504C27.0271 80.504 27.6111 80.672 28.1311 81.008C28.6511 81.344 29.0591 81.832 29.3551 82.472C29.6511 83.112 29.7991 83.888 29.7991 84.8C29.7991 85.712 29.6511 86.488 29.3551 87.128C29.0591 87.768 28.6511 88.256 28.1311 88.592C27.6111 88.928 27.0271 89.096 26.3791 89.096ZM26.3791 88.028C26.8191 88.028 27.2031 87.908 27.5311 87.668C27.8671 87.428 28.1271 87.068 28.3111 86.588C28.5031 86.108 28.5991 85.512 28.5991 84.8C28.5991 84.088 28.5031 83.492 28.3111 83.012C28.1271 82.532 27.8671 82.172 27.5311 81.932C27.2031 81.692 26.8191 81.572 26.3791 81.572C25.9391 81.572 25.5511 81.692 25.2151 81.932C24.8791 82.172 24.6151 82.532 24.4231 83.012C24.2391 83.492 24.1471 84.088 24.1471 84.8C24.1471 85.512 24.2391 86.108 24.4231 86.588C24.6151 87.068 24.8791 87.428 25.2151 87.668C25.5511 87.908 25.9391 88.028 26.3791 88.028ZM32.691 86.972L32.631 85.508L37.395 80.6H38.763L35.079 84.488L34.407 85.232L32.691 86.972ZM31.635 89V80.6H32.835V89H31.635ZM37.587 89L34.143 84.992L34.947 84.104L38.991 89H37.587Z" fill="#B7C4CA"/>
<path d="M41.5581 45H50.7933" stroke="black"/>
<path d="M5.62684 49.3558C5.03484 49.3558 4.45884 49.2638 3.89884 49.0798C3.34684 48.8958 2.89484 48.6478 2.54284 48.3358L3.09484 47.3878C3.37484 47.6518 3.73884 47.8678 4.18684 48.0358C4.63484 48.2038 5.11084 48.2878 5.61484 48.2878C6.25484 48.2878 6.74684 48.1518 7.09084 47.8798C7.43484 47.6078 7.60684 47.2438 7.60684 46.7878C7.60684 46.4758 7.53084 46.2038 7.37884 45.9718C7.22684 45.7398 6.96284 45.5638 6.58684 45.4438C6.21884 45.3158 5.71084 45.2518 5.06284 45.2518H3.15484L3.59884 40.8598H8.33884V41.9038H4.04284L4.66684 41.3158L4.31884 44.7838L3.69484 44.2078H5.31484C6.15484 44.2078 6.83084 44.3158 7.34284 44.5318C7.85484 44.7478 8.22684 45.0478 8.45884 45.4318C8.69084 45.8078 8.80684 46.2438 8.80684 46.7398C8.80684 47.2198 8.69084 47.6598 8.45884 48.0598C8.22684 48.4518 7.87484 48.7678 7.40284 49.0078C6.93884 49.2398 6.34684 49.3558 5.62684 49.3558ZM13.2375 49.3558C12.5815 49.3558 11.9935 49.1878 11.4735 48.8518C10.9615 48.5158 10.5535 48.0278 10.2495 47.3878C9.95346 46.7478 9.80546 45.9718 9.80546 45.0598C9.80546 44.1478 9.95346 43.3718 10.2495 42.7318C10.5535 42.0918 10.9615 41.6038 11.4735 41.2678C11.9935 40.9318 12.5815 40.7638 13.2375 40.7638C13.8855 40.7638 14.4695 40.9318 14.9895 41.2678C15.5095 41.6038 15.9175 42.0918 16.2135 42.7318C16.5095 43.3718 16.6575 44.1478 16.6575 45.0598C16.6575 45.9718 16.5095 46.7478 16.2135 47.3878C15.9175 48.0278 15.5095 48.5158 14.9895 48.8518C14.4695 49.1878 13.8855 49.3558 13.2375 49.3558ZM13.2375 48.2878C13.6775 48.2878 14.0615 48.1678 14.3895 47.9278C14.7255 47.6878 14.9855 47.3278 15.1695 46.8478C15.3615 46.3678 15.4575 45.7718 15.4575 45.0598C15.4575 44.3478 15.3615 43.7518 15.1695 43.2718C14.9855 42.7918 14.7255 42.4318 14.3895 42.1918C14.0615 41.9518 13.6775 41.8318 13.2375 41.8318C12.7975 41.8318 12.4095 41.9518 12.0735 42.1918C11.7375 42.4318 11.4735 42.7918 11.2815 43.2718C11.0975 43.7518 11.0055 44.3478 11.0055 45.0598C11.0055 45.7718 11.0975 46.3678 11.2815 46.8478C11.4735 47.3278 11.7375 47.6878 12.0735 47.9278C12.4095 48.1678 12.7975 48.2878 13.2375 48.2878ZM21.2414 49.3558C20.5854 49.3558 19.9974 49.1878 19.4774 48.8518C18.9654 48.5158 18.5574 48.0278 18.2534 47.3878C17.9574 46.7478 17.8094 45.9718 17.8094 45.0598C17.8094 44.1478 17.9574 43.3718 18.2534 42.7318C18.5574 42.0918 18.9654 41.6038 19.4774 41.2678C19.9974 40.9318 20.5854 40.7638 21.2414 40.7638C21.8894 40.7638 22.4734 40.9318 22.9934 41.2678C23.5134 41.6038 23.9214 42.0918 24.2174 42.7318C24.5134 43.3718 24.6614 44.1478 24.6614 45.0598C24.6614 45.9718 24.5134 46.7478 24.2174 47.3878C23.9214 48.0278 23.5134 48.5158 22.9934 48.8518C22.4734 49.1878 21.8894 49.3558 21.2414 49.3558ZM21.2414 48.2878C21.6814 48.2878 22.0654 48.1678 22.3934 47.9278C22.7294 47.6878 22.9894 47.3278 23.1734 46.8478C23.3654 46.3678 23.4614 45.7718 23.4614 45.0598C23.4614 44.3478 23.3654 43.7518 23.1734 43.2718C22.9894 42.7918 22.7294 42.4318 22.3934 42.1918C22.0654 41.9518 21.6814 41.8318 21.2414 41.8318C20.8014 41.8318 20.4134 41.9518 20.0774 42.1918C19.7414 42.4318 19.4774 42.7918 19.2854 43.2718C19.1014 43.7518 19.0094 44.3478 19.0094 45.0598C19.0094 45.7718 19.1014 46.3678 19.2854 46.8478C19.4774 47.3278 19.7414 47.6878 20.0774 47.9278C20.4134 48.1678 20.8014 48.2878 21.2414 48.2878ZM27.5533 47.2318L27.4933 45.7678L32.2573 40.8598H33.6253L29.9413 44.7478L29.2693 45.4918L27.5533 47.2318ZM26.4973 49.2598V40.8598H27.6973V49.2598H26.4973ZM32.4493 49.2598L29.0053 45.2518L29.8093 44.3638L33.8533 49.2598H32.4493Z" fill="#B7C4CA"/>
<path d="M46.105 5H50.7936" stroke="black"/>
<path d="M28.2875 13.4551V5.53508L28.8035 6.09908H26.3915V5.05508H29.4755V13.4551H28.2875ZM31.9969 13.4551V5.05508H32.9809L36.7489 11.4031H36.2209L39.9409 5.05508H40.9249L40.9369 13.4551H39.7849L39.7729 6.86708H40.0489L36.7369 12.4351H36.1849L32.8489 6.86708H33.1489V13.4551H31.9969Z" fill="#B7C4CA"/>
<path d="M50.7935 5V165" stroke="#F3F3F3"/>
<path d="M128.677 5V165" stroke="#F3F3F3"/>
<path d="M206.56 5V165" stroke="#F3F3F3"/>
<path d="M284.443 5V165" stroke="#F3F3F3"/>
<path d="M362.326 5V165" stroke="#F3F3F3"/>
<path d="M440.209 5V165" stroke="#F3F3F3"/>
<path d="M518.093 5V165" stroke="#F3F3F3"/>
<mask id="path-33-outside-1_423_227" maskUnits="userSpaceOnUse" x="46" y="36.541" width="475" height="133" fill="black">
<rect fill="white" x="46" y="36.541" width="475" height="133"/>
<path d="M48 168.001C96.5 92 63.5 95.3171 107 70.6589C150.5 46.0006 170.333 71.8424 196.5 45.5006C222.667 19.1589 276 76.5003 287.5 70.6589C299 64.8174 355.5 49.5003 378 63.5003C400.5 77.5003 425 120 440.167 123.084C455.333 126.167 519.5 168.001 519.5 168.001"/>
</mask>
<path d="M48 168.001C96.5 92 63.5 95.3171 107 70.6589C150.5 46.0006 170.333 71.8424 196.5 45.5006C222.667 19.1589 276 76.5003 287.5 70.6589C299 64.8174 355.5 49.5003 378 63.5003C400.5 77.5003 425 120 440.167 123.084C455.333 126.167 519.5 168.001 519.5 168.001" fill="url(#paint0_linear_423_227)" fill-opacity="0.5"/>
<path d="M49.0116 168.646C73.3496 130.508 77.2641 112.212 80.5316 100.396C82.1468 94.5552 83.5587 90.5032 87.1551 86.3715C90.794 82.191 96.734 77.8576 107.592 71.7028L106.408 69.6149C95.516 75.7892 89.2685 80.288 85.3449 84.7958C81.3788 89.3522 79.8532 93.8444 78.2184 99.7565C74.9859 111.446 71.1504 129.493 46.9884 167.355L49.0116 168.646ZM107.592 71.7028C129.058 59.5343 144.628 59.8259 158.242 59.911C165.056 59.9536 171.506 59.9511 177.904 58.236C184.346 56.5095 190.674 53.0686 197.351 46.3463L195.649 44.6549C189.243 51.1035 183.279 54.3105 177.283 55.9179C171.244 57.5366 165.111 57.5539 158.257 57.5111C144.539 57.4253 128.442 57.1252 106.408 69.6149L107.592 71.7028ZM197.351 46.3463C203.534 40.1224 211.328 38.7872 219.93 40.3215C228.578 41.864 237.91 46.2929 246.905 51.4339C251.391 53.9984 255.768 56.7249 259.913 59.3355C264.049 61.9405 267.967 64.4387 271.5 66.5216C275.024 68.5998 278.231 70.3044 280.948 71.3011C283.586 72.2688 286.117 72.7071 288.043 71.7287L286.957 69.589C286.008 70.0709 284.357 69.9951 281.775 69.048C279.272 68.1298 276.22 66.5188 272.719 64.4542C269.225 62.3944 265.349 59.9228 261.192 57.3047C257.044 54.6921 252.63 51.9421 248.096 49.3503C239.048 44.1788 229.422 39.5765 220.351 37.9588C211.234 36.3326 202.549 37.708 195.649 44.6549L197.351 46.3463ZM288.043 71.7287C293.632 68.89 310.491 63.6256 328.806 60.8252C337.945 59.428 347.39 58.6536 355.923 59.0896C364.479 59.5267 371.992 61.1755 377.366 64.5192L378.634 62.4814C372.758 58.8251 364.771 57.1385 356.046 56.6927C347.297 56.2457 337.68 57.0406 328.444 58.4528C310.009 61.2714 292.868 66.5863 286.957 69.589L288.043 71.7287ZM377.366 64.5192C382.861 67.9382 388.528 73.132 394.203 79.1091C399.872 85.0806 405.493 91.7719 410.919 98.1623C416.328 104.534 421.553 110.619 426.383 115.303C431.164 119.939 435.76 123.412 439.928 124.26L440.406 121.908C436.99 121.213 432.836 118.218 428.054 113.58C423.322 108.991 418.172 102.997 412.748 96.6091C407.34 90.2391 401.669 83.4877 395.943 77.4566C390.222 71.4311 384.389 66.0624 378.634 62.4814L377.366 64.5192ZM439.928 124.26C441.686 124.617 444.246 125.561 447.439 126.994C450.61 128.417 454.334 130.29 458.395 132.461C466.517 136.802 475.939 142.308 484.9 147.725C493.859 153.141 502.346 158.462 508.594 162.429C511.717 164.412 514.281 166.057 516.063 167.206C516.954 167.78 517.65 168.23 518.123 168.537C518.359 168.69 518.54 168.808 518.661 168.887C518.722 168.926 518.768 168.956 518.799 168.976C518.814 168.986 518.826 168.993 518.833 168.998C518.837 169.001 518.84 169.003 518.842 169.004C518.843 169.005 518.844 169.005 518.844 169.005C518.844 169.006 518.845 169.006 519.5 168.001C520.155 166.995 520.155 166.995 520.155 166.995C520.154 166.995 520.153 166.994 520.152 166.993C520.15 166.992 520.147 166.99 520.143 166.988C520.135 166.982 520.124 166.975 520.108 166.965C520.077 166.944 520.031 166.914 519.97 166.875C519.847 166.795 519.666 166.677 519.429 166.523C518.954 166.216 518.256 165.764 517.363 165.188C515.577 164.037 513.009 162.39 509.88 160.403C503.623 156.43 495.12 151.099 486.142 145.672C477.165 140.245 467.702 134.714 459.527 130.344C455.439 128.16 451.662 126.259 448.421 124.804C445.201 123.359 442.439 122.321 440.406 121.908L439.928 124.26Z" fill="#4959EE" mask="url(#path-33-outside-1_423_227)"/>
<defs>
<linearGradient id="paint0_linear_423_227" x1="283.75" y1="38.541" x2="283.75" y2="168.001" gradientUnits="userSpaceOnUse">
<stop stop-color="#0D99FF" stop-opacity="0.75"/>
<stop offset="1" stop-color="#0D99FF" stop-opacity="0"/>
</linearGradient>
</defs>
</svg>
