<svg width="33" height="31" viewBox="0 0 33 31" fill="none" xmlns="http://www.w3.org/2000/svg">
<ellipse cx="16.5" cy="15.5" rx="16.5" ry="15.5" fill="url(#paint0_linear_1023_1037)"/>
<path d="M16.9879 8.04004C14.5219 8.04004 12.4279 9.96004 12.2299 12.414C12.2179 12.558 12.2119 12.684 12.2119 12.81V13.626C14.4259 12.864 15.4459 11.664 15.9019 10.764C16.0699 10.434 16.3879 10.23 16.7479 10.212C17.1079 10.194 17.4379 10.362 17.6359 10.668L17.7019 10.77C18.3679 11.796 19.2079 13.044 21.7519 13.386V12.804C21.7519 11.532 21.2539 10.332 20.3599 9.42604C19.4599 8.53204 18.2599 8.04004 16.9879 8.04004Z" fill="#ED456A"/>
<path d="M24.072 14V17.174C24.072 17.48 24.048 17.78 24 18.086C24.882 17.948 25.566 17.084 25.566 16.034C25.566 15.02 24.918 14.168 24.072 14Z" fill="#ED456A"/>
<path d="M14.2282 22.1516C14.1982 22.1456 14.1682 22.1396 14.1382 22.1396C14.0842 22.1396 14.0362 22.1516 13.9882 22.1756C13.9162 22.2176 13.8562 22.2836 13.8322 22.3676L13.7962 22.4876C13.7722 22.5656 13.7842 22.6556 13.8202 22.7276C13.8622 22.7996 13.9282 22.8536 14.0062 22.8776L15.8422 23.4176C15.9262 23.4416 16.0102 23.4356 16.0822 23.3936C16.1542 23.3516 16.2142 23.2856 16.2382 23.2016L16.2742 23.0816C16.2982 23.0036 16.2862 22.9136 16.2502 22.8416C16.2082 22.7696 16.1422 22.7156 16.0582 22.6916L14.2282 22.1516Z" fill="#8495A6"/>
<path d="M16.68 13.102L16.614 13C15.996 14.104 14.754 15.592 12.024 16.45L12 16.372V17.848C12 18.268 12.054 18.694 12.168 19.114C12.738 21.178 14.634 22.618 16.776 22.618C19.404 22.618 21.546 20.476 21.546 17.848V16.174C18.438 15.808 17.388 14.194 16.68 13.102Z" fill="#C8D6E4"/>
<path d="M9.56 18.014C9.518 17.732 9.494 17.45 9.494 17.174V14C8.642 14.174 8 15.02 8 16.034C8 17.078 8.684 17.948 9.566 18.086C9.56 18.062 9.56 18.038 9.56 18.014Z" fill="#ED456A"/>
<path d="M25.2488 13.1405C25.205 10.6013 24.4242 8.59472 22.9357 7.17918C20.4549 4.83698 16.9452 4.9975 16.8285 5.0048C14.3112 5.0121 12.3192 5.76364 10.8964 7.24485C8.88252 9.35356 8.67822 12.2649 8.67092 13.1624C7.67858 13.8045 7 14.9792 7 16.3291C7 17.7592 7.75155 18.9851 8.84604 19.598C8.80226 20.8311 9.07953 23.5454 11.9544 25.3988C11.896 25.7417 11.9325 26.0919 12.1003 26.3984C12.3046 26.7632 12.633 27.0332 13.0343 27.1499L15.267 27.8066C15.413 27.8504 15.5662 27.8723 15.7121 27.8723C15.9675 27.8723 16.2229 27.8066 16.4564 27.6826C16.8212 27.4856 17.0912 27.1499 17.2079 26.7486L17.2517 26.6027C17.3684 26.2014 17.3247 25.7782 17.1277 25.4061C16.9234 25.0412 16.595 24.7712 16.1937 24.6545L16.0186 24.6034C16.3396 24.6472 16.6607 24.6837 16.989 24.6837C20.0171 24.6837 22.5928 22.7428 23.556 20.0358C23.5778 20.0358 23.5924 20.0431 23.607 20.0431C25.475 20.0431 26.9999 18.3867 26.9999 16.3437C27.0072 14.9646 26.2922 13.768 25.2488 13.1405ZM8.18205 16.3364C8.18205 15.1033 8.97008 14.0672 9.9989 13.8629V17.7227C9.9989 18.0657 10.0281 18.4086 10.0792 18.7443C10.0865 18.7735 10.0792 18.8026 10.0865 18.8318C9.01386 18.6567 8.18205 17.606 8.18205 16.3364ZM12.7716 24.1291C12.6694 24.1875 12.5892 24.2751 12.5016 24.3553C10.3929 22.9544 10.0281 21.05 10.0135 19.9847C10.1375 19.9993 10.2616 20.0285 10.3929 20.0285C10.4002 20.0285 10.4148 20.0285 10.4221 20.0285C11.0642 21.8453 12.4214 23.2827 14.1288 24.0562L13.9682 24.0124C13.5596 23.8884 13.1364 23.9321 12.7716 24.1291ZM16.0915 25.9825C16.1426 26.07 16.1499 26.1795 16.1207 26.2743L16.077 26.4203C16.0478 26.5224 15.9821 26.6027 15.8872 26.6538C15.7997 26.7048 15.6902 26.7121 15.5954 26.683L13.3626 26.0263C13.2605 25.9971 13.1802 25.9314 13.1364 25.8438C13.0854 25.749 13.0781 25.6468 13.1072 25.552L13.151 25.4061C13.1802 25.3039 13.2459 25.2236 13.3407 25.1726C13.3991 25.1434 13.4575 25.1288 13.5231 25.1288C13.5596 25.1288 13.5961 25.1361 13.6326 25.1434L15.8654 25.8001C15.9602 25.8293 16.0405 25.8949 16.0915 25.9825ZM22.7898 17.7155C22.7898 20.9114 20.1849 23.5162 16.989 23.5162C14.3768 23.5162 12.0711 21.7651 11.3852 19.255C11.2466 18.7443 11.1809 18.2262 11.1809 17.7155V15.9205L11.2101 16.0153C14.5301 14.9719 16.0405 13.1624 16.792 11.8198L16.8723 11.9439C17.7333 13.2645 19.0102 15.2346 22.7898 15.687V17.7155ZM22.7898 14.4758C19.6888 14.0599 18.6672 12.5422 17.8646 11.2945L17.7844 11.1704C17.5436 10.7983 17.1423 10.594 16.7045 10.6159C16.2594 10.6378 15.8799 10.8931 15.6756 11.2872C15.1211 12.3744 13.8734 13.8337 11.1882 14.7676V13.7753C11.1882 13.6221 11.1955 13.4615 11.2101 13.2937C11.4582 10.3167 13.9974 7.97451 16.9963 7.97451C18.5432 7.97451 20.0025 8.58013 21.097 9.66732C22.1915 10.7691 22.7898 12.2284 22.7898 13.7753V14.4758ZM21.9288 8.82821C20.6008 7.51482 18.8497 6.79246 16.989 6.79246C13.5742 6.79246 10.6775 9.32438 10.1229 12.6662C10.0427 12.6735 9.95512 12.6808 9.87486 12.6954C9.96241 11.6301 10.3127 9.56516 11.7574 8.05477C12.9467 6.81435 14.6541 6.18685 16.8577 6.17955C16.8869 6.17955 20.0025 6.03362 22.1185 8.03288C23.286 9.13467 23.8989 10.718 24.0229 12.7027C23.9719 12.6954 23.9281 12.6881 23.877 12.6881C23.6581 11.2434 22.9868 9.89351 21.9288 8.82821ZM23.9208 18.8464C23.9792 18.4743 24.0083 18.1022 24.0083 17.7373V13.8847C25.0445 14.0963 25.8252 15.1252 25.8252 16.3583C25.8252 17.6279 24.9934 18.6786 23.9208 18.8464Z" fill="#D9D9D9"/>
<defs>
<linearGradient id="paint0_linear_1023_1037" x1="23.7794" y1="4.84375" x2="4.40955" y2="27.1614" gradientUnits="userSpaceOnUse">
<stop stop-color="#4959EE"/>
<stop offset="0.547509" stop-color="#0B2749"/>
<stop offset="1" stop-color="#0B2749"/>
</linearGradient>
</defs>
</svg>
