<svg width="45" height="48" viewBox="0 0 45 48" fill="none" xmlns="http://www.w3.org/2000/svg">
<path d="M31.9271 7.25052C32.5013 7.57989 33.181 7.66645 33.8181 7.49134C34.4552 7.31622 34.9979 6.89364 35.3278 6.31579C35.6008 5.82911 36.0259 5.44773 36.5365 5.23144C37.0471 5.01516 37.6143 4.97621 38.1492 5.1207C38.6841 5.26519 39.1564 5.58495 39.492 6.02984C39.8276 6.47473 40.0076 7.01958 40.0038 7.57895C40.0038 8.24897 39.7403 8.89154 39.2714 9.36532C38.8025 9.8391 38.1664 10.1053 37.5033 10.1053C36.8401 10.1053 36.2041 10.3714 35.7351 10.8452C35.2662 11.319 35.0027 11.9616 35.0027 12.6316C35.0027 13.3016 35.2662 13.9442 35.7351 14.418C36.2041 14.8917 36.8401 15.1579 37.5033 15.1579C38.8198 15.157 40.113 14.8061 41.2529 14.1404C42.3927 13.4746 43.339 12.5176 43.9968 11.3653C44.6545 10.213 45.0005 8.90609 45 7.57591C44.9995 6.24573 44.6524 4.93912 43.9938 3.78737C43.3351 2.63562 42.388 1.67929 41.2477 1.01448C40.1073 0.349664 38.8138 -0.000212954 37.4972 9.72417e-08C36.1806 0.000213148 34.8873 0.350509 33.7471 1.01569C32.607 1.68087 31.6602 2.6375 31.0019 3.78947C30.8366 4.07781 30.7293 4.39635 30.6864 4.72673C30.6434 5.05712 30.6656 5.39283 30.7515 5.71453C30.8375 6.03623 30.9857 6.33757 31.1874 6.60118C31.3892 6.8648 31.6406 7.08548 31.9271 7.25052ZM42.6793 25.2632C42.023 25.1771 41.3596 25.3574 40.8346 25.7647C40.3096 26.172 39.9659 26.7729 39.8787 27.4358C39.354 31.7183 37.2975 35.6592 34.0966 38.5162C30.8957 41.3732 26.7713 42.9492 22.5001 42.9474H8.52224L10.1476 41.3053C10.6133 40.8319 10.8747 40.1916 10.8747 39.5242C10.8747 38.8568 10.6133 38.2165 10.1476 37.7432C7.70944 35.2702 6.05019 32.1236 5.37882 28.6996C4.70744 25.2757 5.05399 21.7276 6.37479 18.5023C7.69559 15.277 9.93158 12.5187 12.8011 10.5749C15.6706 8.63106 19.0453 7.58864 22.5001 7.57895C23.1633 7.57895 23.7993 7.31278 24.2683 6.839C24.7372 6.36523 25.0007 5.72265 25.0007 5.05263C25.0007 4.38261 24.7372 3.74003 24.2683 3.26626C23.7993 2.79248 23.1633 2.52631 22.5001 2.52631C18.2723 2.54413 14.135 3.76481 10.5622 6.04849C6.98929 8.33217 4.1254 11.5865 2.2986 15.4386C0.471803 19.2908 -0.244025 23.5849 0.233128 27.829C0.710281 32.0732 2.36112 36.0957 4.9965 39.4358L0.720616 43.68C0.373649 44.0353 0.13861 44.4864 0.0451553 44.9765C-0.0482995 45.4665 0.00401807 45.9736 0.195506 46.4337C0.383096 46.895 0.701656 47.29 1.11104 47.5687C1.52043 47.8474 2.00232 47.9975 2.49598 48H22.5001C27.9799 48.0008 33.2717 45.9815 37.3828 42.321C41.4938 38.6605 44.1418 33.6104 44.8298 28.1179C44.8755 27.7876 44.8561 27.4514 44.7725 27.1288C44.689 26.8061 44.5431 26.5033 44.3432 26.2379C44.1432 25.9725 43.8933 25.7498 43.6077 25.5825C43.3222 25.4152 43.0066 25.3066 42.6793 25.2632ZM38.4534 17.8611C37.9982 17.6576 37.4932 17.596 37.0032 17.6842L36.5531 17.8358L36.103 18.0632L35.7279 18.3916C35.503 18.6244 35.3247 18.8989 35.2028 19.2C35.0549 19.5151 34.9862 19.8622 35.0027 20.2105C34.9955 20.5475 35.055 20.8825 35.1778 21.1958C35.3071 21.499 35.494 21.7736 35.7279 22.0042C35.9615 22.2384 36.2386 22.4236 36.5433 22.5493C36.8479 22.675 37.1742 22.7388 37.5033 22.7368C38.1664 22.7368 38.8025 22.4707 39.2714 21.9969C39.7403 21.5231 40.0038 20.8805 40.0038 20.2105C40.0122 19.8791 39.9437 19.5503 39.8037 19.2505C39.535 18.6435 39.0543 18.1578 38.4534 17.8863V17.8611Z" fill="url(#paint0_linear_1023_896)"/>
<defs>
<linearGradient id="paint0_linear_1023_896" x1="22.5" y1="0" x2="22.5" y2="48" gradientUnits="userSpaceOnUse">
<stop stop-color="#0D99FF"/>
<stop offset="1" stop-color="#0B2749"/>
</linearGradient>
</defs>
</svg>
