<svg width="169" height="169" viewBox="0 0 169 169" fill="none" xmlns="http://www.w3.org/2000/svg">
<path d="M168.173 84.0867C168.173 66.2669 162.512 48.9078 152.007 34.514C141.501 20.1203 126.694 9.43616 109.723 4.00327C92.7515 -1.42962 74.4929 -1.33038 57.5815 4.28668C40.6701 9.90373 25.9804 20.7482 15.6319 35.2553C5.28342 49.7624 -0.188737 67.182 0.0049709 85.0008C0.198679 102.82 6.04822 120.116 16.7096 134.395C27.371 148.674 42.293 159.196 59.3225 164.444C76.352 169.692 94.6085 169.395 111.458 163.594L100.428 131.554C90.3684 135.017 79.469 135.194 69.3021 132.061C59.1353 128.928 50.2266 122.646 43.8616 114.121C37.4966 105.597 34.0043 95.2705 33.8886 84.6324C33.773 73.9944 37.0399 63.5946 43.2181 54.9336C49.3963 46.2727 58.1663 39.7984 68.2627 36.4449C78.359 33.0914 89.2598 33.0322 99.392 36.2757C109.524 39.5192 118.364 45.8978 124.636 54.4911C130.908 63.0844 134.288 73.448 134.288 84.0867H168.173Z" fill="#276490"/>
<path d="M111.458 163.594C128.012 157.895 142.374 147.171 152.542 132.918C162.709 118.666 168.173 101.595 168.173 84.0869H134.288C134.288 94.5392 131.025 104.731 124.955 113.24C118.885 121.749 110.311 128.152 100.428 131.554L111.458 163.594Z" fill="#FF7E00"/>
</svg>
