<svg width="10" height="8" viewBox="0 0 10 8" fill="none" xmlns="http://www.w3.org/2000/svg">
<path d="M5.0375 0C1.875 0 0 3.75 0 3.75C0 3.75 1.875 7.5 5.0375 7.5C8.125 7.5 10 3.75 10 3.75C10 3.75 8.125 0 5.0375 0ZM5 1.25C6.3875 1.25 7.5 2.375 7.5 3.75C7.5 5.1375 6.3875 6.25 5 6.25C3.625 6.25 2.5 5.1375 2.5 3.75C2.5 2.375 3.625 1.25 5 1.25ZM5 2.5C4.3125 2.5 3.75 3.0625 3.75 3.75C3.75 4.4375 4.3125 5 5 5C5.6875 5 6.25 4.4375 6.25 3.75C6.25 3.625 6.2 3.5125 6.175 3.4C6.075 3.6 5.875 3.75 5.625 3.75C5.275 3.75 5 3.475 5 3.125C5 2.875 5.15 2.675 5.35 2.575C5.2375 2.5375 5.125 2.5 5 2.5Z" fill="white"/>
</svg>
