<svg width="40" height="41" viewBox="0 0 40 41" fill="none" xmlns="http://www.w3.org/2000/svg">
<g clip-path="url(#clip0_1114_1387)">
<path d="M35 0.111328H5C2.2425 0.111328 0 2.35383 0 5.11133V35.1113C0 37.8688 2.2425 40.1113 5 40.1113H35C37.7575 40.1113 40 37.8688 40 35.1113V5.11133C40 2.35383 37.7575 0.111328 35 0.111328Z" fill="#1976D2"/>
<path fill-rule="evenodd" clip-rule="evenodd" d="M33.75 20.1113H27.5V15.1113C27.5 13.7313 28.62 13.8613 30 13.8613H32.5V7.61133H27.5C25.5109 7.61133 23.6032 8.4015 22.1967 9.80803C20.7902 11.2146 20 13.1222 20 15.1113V20.1113H15V26.3613H20V40.1113H27.5V26.3613H31.25L33.75 20.1113Z" fill="#FAFAFA"/>
</g>
<defs>
<clipPath id="clip0_1114_1387">
<rect width="40" height="40" fill="white" transform="translate(0 0.111328)"/>
</clipPath>
</defs>
</svg>
