<svg width="15" height="14" viewBox="0 0 15 14" fill="none" xmlns="http://www.w3.org/2000/svg">
<ellipse cx="7.5" cy="7" rx="7.5" ry="7" fill="url(#paint0_linear_1074_5222)"/>
<g clip-path="url(#clip0_1074_5222)">
<path d="M10.9714 10.9114H7.48507C7.46364 10.9114 7.44245 10.9069 7.42289 10.8981C7.40333 10.8894 7.38584 10.8766 7.37157 10.8606C7.3573 10.8446 7.34657 10.8258 7.34007 10.8054C7.33358 10.7849 7.33148 10.7634 7.3339 10.7421L7.51183 9.18564C7.2414 9.08054 6.99132 8.92919 6.77277 8.73838C6.38937 8.40186 5.95245 7.78799 6.04405 6.77451C6.04747 6.73673 6.06489 6.70159 6.0929 6.676C6.12091 6.65041 6.15748 6.63622 6.19542 6.63623H10.2788C10.3192 6.63623 10.3579 6.65226 10.3864 6.68079C10.4149 6.70933 10.431 6.74803 10.431 6.78838V7.0542H10.7954V4.23389C10.7954 3.95922 10.9045 3.6958 11.0988 3.50158C11.293 3.30735 11.5564 3.19824 11.8311 3.19824C12.1057 3.19824 12.3692 3.30735 12.5634 3.50158C12.7576 3.6958 12.8667 3.95922 12.8667 4.23389V7.67256C12.8667 7.71291 12.8507 7.75161 12.8221 7.78014C12.7936 7.80868 12.7549 7.82471 12.7146 7.82471H12.1265V8.07861C12.1265 8.10276 12.1208 8.12656 12.1098 8.14806C12.0988 8.16955 12.0828 8.18811 12.0632 8.20222C12.0436 8.21632 12.0209 8.22555 11.997 8.22916C11.9732 8.23277 11.9488 8.23064 11.9259 8.22295C11.9234 8.22295 11.6273 8.12842 11.3849 8.25498C11.2995 8.30049 11.2282 8.36859 11.1788 8.45186H11.4247C11.4447 8.45186 11.4645 8.45579 11.4829 8.46344C11.5014 8.47108 11.5182 8.48229 11.5323 8.49642C11.5464 8.51055 11.5576 8.52732 11.5653 8.54578C11.5729 8.56424 11.5769 8.58402 11.5769 8.604V9.58311C11.5769 9.60308 11.5729 9.62285 11.5653 9.6413C11.5576 9.65975 11.5464 9.67651 11.5323 9.69062C11.5182 9.70473 11.5014 9.71592 11.4829 9.72355C11.4645 9.73117 11.4447 9.73508 11.4247 9.73506H10.9999L11.1224 10.7409C11.125 10.7623 11.1231 10.784 11.1167 10.8045C11.1103 10.8251 11.0996 10.8441 11.0853 10.8602C11.071 10.8763 11.0535 10.8892 11.0339 10.8981C11.0142 10.9069 10.9929 10.9114 10.9714 10.9114ZM7.65538 10.6073H10.7999L10.6773 9.60146C10.6746 9.58009 10.6766 9.5584 10.683 9.53784C10.6893 9.51727 10.7 9.4983 10.7143 9.48218C10.7286 9.46605 10.7461 9.45315 10.7658 9.44432C10.7854 9.43549 10.8067 9.43093 10.8282 9.43096H11.2732V8.75596H10.9476C10.9239 8.75598 10.9006 8.75046 10.8794 8.73986C10.8583 8.72925 10.8399 8.71384 10.8257 8.69486C10.8116 8.67589 10.8021 8.65387 10.798 8.63056C10.7939 8.60726 10.7953 8.58331 10.8021 8.56064C10.8845 8.28857 11.0343 8.09482 11.2474 7.98467C11.4515 7.879 11.6696 7.87588 11.8222 7.89385V7.67256C11.8222 7.65259 11.8261 7.63281 11.8338 7.61436C11.8414 7.59591 11.8526 7.57915 11.8668 7.56504C11.8809 7.55093 11.8977 7.53974 11.9161 7.53212C11.9346 7.52449 11.9544 7.52058 11.9743 7.52061H12.5626V4.23389C12.5595 4.04194 12.481 3.85891 12.3442 3.72428C12.2073 3.58965 12.023 3.5142 11.8311 3.5142C11.6391 3.5142 11.4548 3.58965 11.318 3.72428C11.1811 3.85891 11.1027 4.04194 11.0995 4.23389V7.20693C11.0995 7.2269 11.0956 7.24669 11.088 7.26514C11.0804 7.2836 11.0692 7.30038 11.0551 7.31451C11.041 7.32864 11.0242 7.33985 11.0058 7.3475C10.9873 7.35515 10.9675 7.35908 10.9476 7.35908H10.2788C10.2588 7.35908 10.2391 7.35515 10.2206 7.3475C10.2022 7.33985 10.1854 7.32864 10.1713 7.31451C10.1572 7.30038 10.146 7.2836 10.1384 7.26514C10.1308 7.24669 10.1268 7.2269 10.1269 7.20693V6.9415H6.3378C6.31105 7.58955 6.52452 8.11689 6.97335 8.51084C7.18935 8.70126 7.44188 8.84567 7.71554 8.93525C7.75052 8.94485 7.78091 8.96665 7.80122 8.99671C7.82153 9.02676 7.83042 9.06309 7.82628 9.09912L7.65538 10.6073Z" fill="white"/>
<path d="M5.52181 11.1741C5.46593 11.1742 5.41011 11.1702 5.35481 11.1622C5.07806 11.1212 4.19856 11.1394 4.0222 11.1503C3.83646 11.162 3.64427 11.1739 3.44817 11.1503C3.2929 11.1308 3.16888 11.0083 3.13938 10.8454C3.11302 10.6991 3.17376 10.5638 3.29427 10.5009C3.36751 10.4618 3.45794 10.4528 3.54544 10.4435C3.59778 10.4378 3.68567 10.4284 3.7095 10.4124C3.74544 10.3884 3.80716 10.3589 3.92083 10.3044C4.12552 10.2067 4.50677 10.0253 4.61614 9.89425C4.70442 9.78936 4.74114 9.34132 4.72435 8.98624C4.72435 8.98526 4.72435 8.98409 4.72435 8.98311C4.71829 8.74522 4.70892 8.48956 4.69915 8.21866C4.64603 6.74503 4.62649 5.83077 4.80228 5.56026C4.90403 5.40401 5.16966 5.19053 6.29759 5.14483C6.68138 5.12921 7.04505 5.13839 7.25911 5.14717C7.19114 4.74913 7.16751 4.31378 7.18255 3.7669C7.18265 3.74663 7.18679 3.72658 7.19475 3.70793C7.2027 3.68929 7.2143 3.67242 7.22887 3.65831C7.24343 3.64421 7.26067 3.63316 7.27956 3.62582C7.29846 3.61847 7.31863 3.61498 7.3389 3.61554C7.35916 3.6161 7.37911 3.6207 7.39757 3.62908C7.41603 3.63746 7.43263 3.64944 7.4464 3.66432C7.46016 3.67921 7.47081 3.69669 7.47773 3.71575C7.48464 3.73481 7.48767 3.75505 7.48665 3.7753C7.46966 4.38702 7.50267 4.84952 7.59368 5.27706C7.5986 5.30003 7.59811 5.32384 7.59227 5.3466C7.58643 5.36936 7.5754 5.39045 7.56003 5.40823C7.54466 5.426 7.52538 5.43996 7.5037 5.44903C7.48202 5.45809 7.45853 5.462 7.43509 5.46046C7.42962 5.46046 6.88313 5.42549 6.30774 5.44893C5.28763 5.49034 5.0929 5.67139 5.05774 5.72589C5.03255 5.76495 4.97337 5.92823 4.96712 6.60928C4.96282 7.07921 4.98353 7.65303 5.00364 8.20772C5.01341 8.47882 5.02317 8.73506 5.02884 8.97354C5.03567 9.12042 5.05814 9.8421 4.84935 10.0901C4.70872 10.2571 4.39212 10.4165 4.05247 10.5784C3.97962 10.6132 3.89837 10.6523 3.87884 10.6648C3.7929 10.722 3.68353 10.7337 3.57845 10.745C3.53255 10.7499 3.46438 10.7573 3.43899 10.7681C3.43678 10.785 3.44014 10.8021 3.44856 10.8169C3.45198 10.8246 3.45713 10.8313 3.46361 10.8366C3.47008 10.8419 3.4777 10.8457 3.48587 10.8476C3.65364 10.8685 3.82356 10.8579 4.00325 10.8466C4.15735 10.837 5.07747 10.8136 5.39935 10.861C5.57356 10.887 5.81341 10.8564 5.91419 10.7487C5.94524 10.7157 5.98313 10.6571 5.95599 10.53C5.83372 9.95811 5.81731 9.06514 5.81673 9.02764C5.81634 9.02173 5.81634 9.01579 5.81673 9.00987L6.04349 6.77335C6.0473 6.73589 6.06487 6.70118 6.0928 6.67593C6.12072 6.65068 6.15701 6.63668 6.19466 6.63663H9.7597C9.82884 6.63663 9.91302 6.58448 9.98489 6.49717C10.1433 6.30518 10.4732 5.65733 10.1117 3.79952C10.1078 3.77991 10.1079 3.75974 10.1118 3.74015C10.1158 3.72056 10.1235 3.70194 10.1347 3.68535C10.1458 3.66877 10.1601 3.65454 10.1768 3.64348C10.1934 3.63242 10.2121 3.62475 10.2317 3.62091C10.2513 3.61706 10.2715 3.61711 10.291 3.62106C10.3106 3.62501 10.3292 3.63278 10.3458 3.64392C10.3624 3.65507 10.3766 3.66937 10.3877 3.68601C10.3988 3.70266 10.4064 3.72132 10.4103 3.74092C10.5617 4.52042 10.6115 5.18077 10.5579 5.70362C10.5136 6.13995 10.3997 6.47178 10.2197 6.69014C10.0867 6.85147 9.92337 6.94014 9.7597 6.94014H6.33274L6.12103 9.03116C6.12298 9.1253 6.14349 9.95225 6.25345 10.4661C6.30599 10.7122 6.21868 10.8687 6.13626 10.9567C5.99095 11.1116 5.74563 11.1741 5.52181 11.1741Z" fill="white"/>
<path d="M5.84431 4.86032C5.82248 4.86032 5.8009 4.85562 5.78104 4.84655C5.76119 4.83748 5.74352 4.82423 5.72923 4.80773C5.71495 4.79122 5.70438 4.77183 5.69826 4.75088C5.69213 4.72992 5.69058 4.7079 5.69372 4.68629L5.73923 4.37262L5.32907 4.55426C5.3106 4.56374 5.29039 4.56935 5.26968 4.57073C5.24897 4.57211 5.22819 4.56923 5.20863 4.56228C5.18907 4.55533 5.17114 4.54445 5.15594 4.53031C5.14074 4.51617 5.12859 4.49907 5.12025 4.48006C5.11191 4.46105 5.10754 4.44054 5.10742 4.41978C5.10731 4.39902 5.11144 4.37846 5.11956 4.35936C5.12769 4.34025 5.13964 4.32302 5.15468 4.3087C5.16971 4.29439 5.18752 4.28331 5.207 4.27614L5.86872 3.98317C5.89355 3.97217 5.92087 3.96803 5.94784 3.97117C5.97481 3.97432 6.00045 3.98463 6.02208 4.00104C6.04372 4.01745 6.06056 4.03936 6.07086 4.06448C6.08115 4.08961 6.08453 4.11704 6.08063 4.14391L6.03552 4.45641L6.42888 4.28063C6.44709 4.27245 6.46673 4.26793 6.48669 4.26734C6.50664 4.26675 6.52652 4.2701 6.54518 4.27719C6.56384 4.28428 6.58093 4.29498 6.59545 4.30867C6.60998 4.32236 6.62167 4.33879 6.62985 4.357C6.63803 4.37521 6.64255 4.39485 6.64314 4.41481C6.64373 4.43476 6.64038 4.45464 6.63329 4.4733C6.6262 4.49196 6.6155 4.50905 6.60181 4.52357C6.58812 4.5381 6.5717 4.54979 6.55349 4.55797L5.90759 4.84801C5.88762 4.8566 5.86604 4.86079 5.84431 4.86032ZM6.60056 3.84508C6.57272 3.84513 6.5454 3.83752 6.5216 3.82309C6.4978 3.80866 6.47842 3.78795 6.46559 3.76325L6.25505 3.35914L6.17477 3.58707C6.16576 3.61278 6.15 3.63559 6.12914 3.65311C6.10828 3.67064 6.0831 3.68223 6.05622 3.68668C6.02935 3.69114 6.00177 3.68828 5.97638 3.67842C5.95098 3.66856 5.92871 3.65205 5.91188 3.63063L5.47399 3.07418C5.45035 3.04238 5.44005 3.0026 5.44528 2.96332C5.45052 2.92403 5.47087 2.88834 5.50202 2.86384C5.53317 2.83933 5.57265 2.82795 5.61206 2.83211C5.65147 2.83626 5.68771 2.85563 5.71306 2.8861L5.97966 3.22497L6.08434 2.9275C6.09424 2.89958 6.11207 2.87515 6.13566 2.85721C6.15924 2.83928 6.18755 2.82862 6.21711 2.82655C6.24666 2.82447 6.27618 2.83107 6.30204 2.84554C6.32789 2.86 6.34897 2.8817 6.36267 2.90797L6.73532 3.62301C6.74735 3.64618 6.75322 3.67206 6.75236 3.69816C6.7515 3.72425 6.74393 3.74969 6.73039 3.77201C6.71686 3.79434 6.6978 3.81281 6.67506 3.82564C6.65232 3.83847 6.62667 3.84523 6.60056 3.84528V3.84508Z" fill="white"/>
</g>
<defs>
<linearGradient id="paint0_linear_1074_5222" x1="10.8088" y1="2.1875" x2="2.06928" y2="12.3224" gradientUnits="userSpaceOnUse">
<stop stop-color="#4959EE"/>
<stop offset="0.547509" stop-color="#0B2749"/>
<stop offset="1" stop-color="#0B2749"/>
</linearGradient>
<clipPath id="clip0_1074_5222">
<rect width="10" height="10" fill="white" transform="translate(3 2)"/>
</clipPath>
</defs>
</svg>
