<svg width="15" height="14" viewBox="0 0 15 14" fill="none" xmlns="http://www.w3.org/2000/svg">
<ellipse cx="7.5" cy="7" rx="7.5" ry="7" fill="url(#paint0_linear_1074_5231)"/>
<g clip-path="url(#clip0_1074_5231)">
<path fill-rule="evenodd" clip-rule="evenodd" d="M5.92972 5.18641C5.86499 5.18641 5.8125 5.13412 5.8125 5.06943L5.81253 3.69335C5.81253 3.62866 5.86498 3.57617 5.92968 3.57617C5.99439 3.57617 6.04686 3.62866 6.04686 3.69335L6.0469 5.06943C6.0469 5.13412 5.99437 5.18641 5.92972 5.18641Z" fill="white"/>
<path fill-rule="evenodd" clip-rule="evenodd" d="M6.27582 4.44503H5.93C5.86527 4.44503 5.81278 4.39254 5.81278 4.32785C5.81282 4.26315 5.86527 4.21066 5.92996 4.21066H6.27582C6.40197 4.21066 6.50448 4.12095 6.50448 4.01048C6.50451 3.90021 6.40194 3.81029 6.27581 3.81029H5.93C5.86527 3.81029 5.81278 3.75801 5.81278 3.69311C5.81282 3.62842 5.86527 3.57593 5.92996 3.57593H6.27582C6.53115 3.57593 6.73884 3.77103 6.73884 4.01048C6.73887 4.25013 6.53113 4.44503 6.27582 4.44503ZM4.96018 10.1611C4.51731 10.1609 4.07397 10.1607 3.63088 10.1607C3.56621 10.1607 3.5137 10.1084 3.5137 10.0435C3.51371 9.96438 3.51227 9.88341 3.51064 9.80509C3.49865 9.17463 3.48501 8.45994 4.37445 8.33055C5.61016 8.11124 6.40946 7.80649 7.05173 7.56175C8.50676 7.00697 9.23708 6.72846 12.413 8.26626C12.4535 8.28579 12.4791 8.32668 12.4791 8.37164C12.4791 8.43614 12.4816 8.53135 12.4842 8.64161C12.4944 9.05785 12.5001 9.41509 12.4655 9.56828C12.4263 9.74405 12.2468 10.1528 11.4345 10.1528L11.0402 10.1546C11.04 10.1546 11.0404 10.1546 11.0402 10.1546C10.9758 10.1546 10.9226 10.1025 10.9224 10.0378C10.9222 9.97313 10.9745 9.92044 11.0392 9.92023L11.4339 9.9184C12.0543 9.9184 12.2033 9.66696 12.2368 9.51702C12.2678 9.37928 12.257 8.93884 12.2498 8.64731C12.248 8.57163 12.2464 8.50286 12.2456 8.4455C9.21699 6.98723 8.56066 7.23726 7.13514 7.78064C6.48335 8.02925 5.6722 8.33849 4.41351 8.56166C4.4123 8.56186 4.41107 8.56207 4.40984 8.56227C3.7564 8.65667 3.73157 9.09426 3.745 9.80061C3.74583 9.84191 3.74663 9.88402 3.74724 9.92634C4.15148 9.92654 4.55571 9.92654 4.96015 9.92674C5.02485 9.92674 5.07733 9.97923 5.07733 10.0439C5.07735 10.1086 5.02485 10.1611 4.96018 10.1611ZM6.85725 10.1615C6.66829 10.1615 6.48373 10.1615 6.30511 10.1615C6.24044 10.1615 6.18793 10.109 6.18793 10.0443C6.18793 9.97964 6.24041 9.92715 6.30511 9.92715C7.3148 9.92735 8.50694 9.92715 9.69443 9.92451C9.75918 9.92451 9.81181 9.9768 9.81181 10.0413C9.81205 10.1062 9.75973 10.1587 9.69504 10.1589C8.71755 10.1611 7.73672 10.1615 6.85725 10.1615Z" fill="white"/>
<path fill-rule="evenodd" clip-rule="evenodd" d="M7.123 8.35576L10.7774 8.36004C10.4142 8.19647 9.99026 8.027 9.57951 7.92345C9.35718 7.86751 9.15859 7.83699 8.97305 7.83028C8.77086 7.82295 8.57614 7.84309 8.37718 7.89192C8.02076 7.97899 7.64662 8.13626 7.2849 8.28802C7.2312 8.3106 7.17728 8.33318 7.123 8.35576ZM11.2996 8.59501L6.49799 8.58952C6.44063 8.58952 6.39179 8.54802 6.38243 8.49146C6.37311 8.43511 6.40603 8.37997 6.46014 8.36146C6.70163 8.27866 6.95207 8.17368 7.19416 8.07196C7.56443 7.91654 7.9471 7.75582 8.32143 7.66427C8.54175 7.61016 8.7576 7.58798 8.98139 7.59612C9.18383 7.60323 9.39824 7.6362 9.63687 7.69621C10.2655 7.85469 10.9165 8.15822 11.3515 8.37265C11.4003 8.39686 11.4261 8.45138 11.4137 8.50448C11.4014 8.55758 11.3541 8.59501 11.2996 8.59501Z" fill="white"/>
<path fill-rule="evenodd" clip-rule="evenodd" d="M8.98489 8.5924C8.92022 8.5924 8.86769 8.53991 8.86769 8.47522L8.86771 7.71312C8.86771 7.64843 8.92018 7.59595 8.98487 7.59595C9.04957 7.59594 9.10205 7.64843 9.10205 7.71313L9.10207 8.47522C9.10207 8.53991 9.04956 8.5924 8.98489 8.5924ZM3.99552 9.27697C3.87893 9.27697 3.75604 9.25887 3.62706 9.22286C3.56483 9.20557 3.52839 9.14088 3.54589 9.07862C3.56318 9.01617 3.62788 8.97975 3.69013 8.99725C3.95766 9.07191 4.18896 9.05339 4.37796 8.94191C4.71225 8.74478 4.81678 8.31755 4.8178 8.31328C4.83286 8.25042 4.89592 8.21136 4.95878 8.22601C5.02168 8.24086 5.06071 8.30352 5.04605 8.36658C5.04118 8.38794 4.91952 8.89329 4.49881 9.14271C4.34807 9.23222 4.1796 9.27698 3.99552 9.27697ZM5.63239 9.48876C5.32621 9.48876 5.07718 9.73798 5.07718 10.0442C5.0772 10.3503 5.32619 10.5995 5.63237 10.5995C5.93876 10.5995 6.18776 10.3503 6.18776 10.0442C6.18777 9.73798 5.93875 9.48876 5.63239 9.48876ZM5.63239 10.8339C5.19703 10.8339 4.84281 10.4795 4.84281 10.0442C4.84284 9.6088 5.197 9.2544 5.63237 9.2544C6.06798 9.2544 6.42212 9.6088 6.42212 10.0442C6.42213 10.4795 6.06794 10.8339 5.63239 10.8339ZM10.3671 9.91964C10.2983 9.91964 10.2426 9.97559 10.2426 10.0441C10.2426 10.1127 10.2983 10.1687 10.3671 10.1687C10.4356 10.1687 10.4916 10.1127 10.4916 10.0441C10.4916 9.97559 10.4356 9.91964 10.3671 9.91964ZM10.3671 10.403C10.1691 10.403 10.0082 10.2421 10.0082 10.0441C10.0082 9.8462 10.1691 9.68528 10.3671 9.68528C10.5648 9.68528 10.7259 9.8462 10.7259 10.0441C10.726 10.2421 10.5648 10.403 10.3671 10.403Z" fill="white"/>
<path fill-rule="evenodd" clip-rule="evenodd" d="M5.63262 9.91985C5.56404 9.91985 5.50829 9.9758 5.50829 10.0444C5.50829 10.1129 5.56403 10.1689 5.63259 10.1689C5.70137 10.1689 5.7571 10.1129 5.7571 10.0444C5.75712 9.9758 5.70136 9.91985 5.63262 9.91985ZM5.63262 10.4032C5.43487 10.4032 5.27393 10.2423 5.27393 10.0444C5.27393 9.84641 5.43485 9.68549 5.63259 9.68549C5.83054 9.68549 5.99146 9.84641 5.99146 10.0444C5.99148 10.2423 5.83053 10.4032 5.63262 10.4032ZM10.3673 9.48897C10.0611 9.48897 9.81188 9.73819 9.81188 10.0444C9.81189 10.3505 10.0611 10.5998 10.3673 10.5998C10.6735 10.5998 10.9225 10.3505 10.9225 10.0444C10.9225 9.73819 10.6735 9.48897 10.3673 9.48897ZM10.3673 10.8341C9.93173 10.8341 9.57752 10.4797 9.57752 10.0444C9.57753 9.60901 9.93171 9.25461 10.3673 9.25461C10.8027 9.25461 11.1568 9.60901 11.1568 10.0444C11.1568 10.4797 10.8026 10.8341 10.3673 10.8341ZM12.3703 9.4792H11.7967C11.732 9.4792 11.6795 9.42671 11.6795 9.36202L11.6795 8.79259C11.6795 8.72789 11.732 8.67541 11.7966 8.67541H12.3706C12.4353 8.67541 12.4877 8.7279 12.4877 8.7926C12.4878 8.85729 12.4352 8.90978 12.3706 8.90978L11.9138 8.90977V9.24484H12.3703C12.4351 9.24484 12.4875 9.29732 12.4875 9.36202C12.4875 9.42671 12.435 9.4792 12.3703 9.4792ZM6.54036 7.9947C6.47569 7.9947 6.42317 7.94222 6.42317 7.87752L6.42318 5.47998C6.42318 5.41528 6.47566 5.3628 6.54035 5.3628C6.60505 5.3628 6.65753 5.41529 6.65753 5.47998L6.65755 7.87752C6.65755 7.94222 6.60505 7.9947 6.54036 7.9947ZM6.01144 8.17231C5.94672 8.17231 5.89422 8.11982 5.89422 8.05513L5.89426 5.47997C5.89426 5.41528 5.94671 5.36279 6.0114 5.36279C6.07612 5.36279 6.12859 5.41528 6.12859 5.47997L6.12863 8.05513C6.12863 8.11982 6.0761 8.17231 6.01144 8.17231Z" fill="white"/>
<path fill-rule="evenodd" clip-rule="evenodd" d="M5.04006 5.36269H7.51146V3.39989H5.04006V5.36269ZM7.62864 5.59705H4.92288C4.85797 5.59705 4.80566 5.54456 4.80566 5.47987L4.8057 3.28271C4.8057 3.21801 4.85795 3.16553 4.92285 3.16553H7.62863C7.69331 3.16553 7.74578 3.21802 7.74578 3.28271L7.74581 5.47987C7.74581 5.54456 7.69331 5.59705 7.62864 5.59705Z" fill="white"/>
</g>
<defs>
<linearGradient id="paint0_linear_1074_5231" x1="10.8088" y1="2.1875" x2="2.06928" y2="12.3224" gradientUnits="userSpaceOnUse">
<stop stop-color="#4959EE"/>
<stop offset="0.547509" stop-color="#0B2749"/>
<stop offset="1" stop-color="#0B2749"/>
</linearGradient>
<clipPath id="clip0_1074_5231">
<rect width="10" height="10" fill="white" transform="translate(3 2)"/>
</clipPath>
</defs>
</svg>
