<svg width="81" height="12" viewBox="0 0 81 12" fill="none" xmlns="http://www.w3.org/2000/svg">
<path d="M17.35 10V9.13L20.13 6.49C20.3633 6.27 20.5367 6.07667 20.65 5.91C20.7633 5.74333 20.8367 5.59 20.87 5.45C20.91 5.30333 20.93 5.16667 20.93 5.04C20.93 4.72 20.82 4.47333 20.6 4.3C20.38 4.12 20.0567 4.03 19.63 4.03C19.29 4.03 18.98 4.09 18.7 4.21C18.4267 4.33 18.19 4.51333 17.99 4.76L17.08 4.06C17.3533 3.69333 17.72 3.41 18.18 3.21C18.6467 3.00333 19.1667 2.9 19.74 2.9C20.2467 2.9 20.6867 2.98333 21.06 3.15C21.44 3.31 21.73 3.54 21.93 3.84C22.1367 4.14 22.24 4.49667 22.24 4.91C22.24 5.13667 22.21 5.36333 22.15 5.59C22.09 5.81 21.9767 6.04333 21.81 6.29C21.6433 6.53667 21.4 6.81333 21.08 7.12L18.69 9.39L18.42 8.9H22.51V10H17.35ZM25.5803 10.1C25.087 10.1 24.6036 10.03 24.1303 9.89C23.6636 9.74333 23.2703 9.54333 22.9503 9.29L23.5003 8.28C23.7536 8.48667 24.0603 8.65333 24.4203 8.78C24.787 8.90667 25.167 8.97 25.5603 8.97C26.0203 8.97 26.3803 8.87333 26.6403 8.68C26.907 8.48667 27.0403 8.22667 27.0403 7.9C27.0403 7.68 26.9836 7.48667 26.8703 7.32C26.7636 7.15333 26.5703 7.02667 26.2903 6.94C26.017 6.85333 25.6403 6.81 25.1603 6.81H23.4703L23.8303 3H27.9403V4.09H24.3103L24.9903 3.47L24.7203 6.32L24.0403 5.71H25.4503C26.1436 5.71 26.7003 5.80333 27.1203 5.99C27.547 6.17 27.857 6.42333 28.0503 6.75C28.2503 7.07 28.3503 7.43667 28.3503 7.85C28.3503 8.25667 28.2503 8.63 28.0503 8.97C27.8503 9.31 27.5436 9.58333 27.1303 9.79C26.7236 9.99667 26.207 10.1 25.5803 10.1Z" fill="#FF7E00" fill-opacity="0.7"/>
<path d="M2.5 2C1.8125 2 1.2 2.28766 0.7375 2.73792C0.2875 3.18817 0 3.80102 0 4.50141C0 5.1893 0.2875 5.80214 0.7375 6.2649L5 10.5298L9.2625 6.2649C9.7125 5.81465 10 5.20181 10 4.50141C10 3.81352 9.7125 3.20068 9.2625 2.73792C8.8125 2.28766 8.2 2 7.5 2C6.8125 2 6.2 2.28766 5.7375 2.73792C5.2875 3.18817 5 3.80102 5 4.50141C5 3.81352 4.7125 3.20068 4.2625 2.73792C3.8125 2.28766 3.2 2 2.5 2Z" fill="#FF7E00" fill-opacity="0.7"/>
<path d="M70.56 10V3.5L71.13 4.09H69.08V3H71.86V10H70.56ZM75.4486 10.1C74.9553 10.1 74.4719 10.03 73.9986 9.89C73.5319 9.74333 73.1386 9.54333 72.8186 9.29L73.3786 8.28C73.6319 8.48667 73.9386 8.65333 74.2986 8.78C74.6586 8.90667 75.0353 8.97 75.4286 8.97C75.8953 8.97 76.2586 8.87667 76.5186 8.69C76.7786 8.49667 76.9086 8.23667 76.9086 7.91C76.9086 7.59 76.7886 7.33667 76.5486 7.15C76.3086 6.96333 75.9219 6.87 75.3886 6.87H74.7486V5.98L76.7486 3.6L76.9186 4.09H73.1586V3H77.9286V3.87L75.9286 6.25L75.2486 5.85H75.6386C76.4986 5.85 77.1419 6.04333 77.5686 6.43C78.0019 6.81 78.2186 7.3 78.2186 7.9C78.2186 8.29333 78.1186 8.65667 77.9186 8.99C77.7186 9.32333 77.4119 9.59333 76.9986 9.8C76.5919 10 76.0753 10.1 75.4486 10.1Z" fill="#D6D1D1"/>
<path d="M54.5 2.36133C53.8125 2.36133 53.2 2.64899 52.7375 3.09924C52.2875 3.5495 52 4.16234 52 4.86274C52 5.55063 52.2875 6.16347 52.7375 6.62623L57 10.8911L61.2625 6.62623C61.7125 6.17598 62 5.56313 62 4.86274C62 4.17485 61.7125 3.56201 61.2625 3.09924C60.8125 2.64899 60.2 2.36133 59.5 2.36133C58.8125 2.36133 58.2 2.64899 57.7375 3.09924C57.2875 3.5495 57 4.16234 57 4.86274C57 4.17485 56.7125 3.56201 56.2625 3.09924C55.8125 2.64899 55.2 2.36133 54.5 2.36133Z" fill="#D6D1D1"/>
</svg>
