<svg width="40" height="41" viewBox="0 0 40 41" fill="none" xmlns="http://www.w3.org/2000/svg">
<g clip-path="url(#clip0_1114_1390)">
<path d="M10.1431 39.9698C8.59597 39.9525 7.06334 39.6687 5.61255 39.1309C4.55312 38.7393 3.59459 38.1159 2.80706 37.3062C1.9952 36.5203 1.37086 35.5615 0.980392 34.5011C0.44304 33.0504 0.159679 31.5179 0.142745 29.9709C0.0239216 27.3992 0 26.6278 0 20.1113C0 13.5949 0.0262745 12.8262 0.141569 10.2525C0.160558 8.70614 0.444267 7.17445 0.980392 5.72388C1.37276 4.66427 1.99622 3.70536 2.80549 2.91682C3.59205 2.10569 4.55102 1.48192 5.61137 1.09172C7.06217 0.553923 8.59479 0.270163 10.142 0.252897C12.7145 0.13525 13.4871 0.111328 20 0.111328C26.5129 0.111328 27.2851 0.137603 29.8588 0.252897C31.4056 0.271752 32.9377 0.555464 34.3886 1.09172C35.4485 1.48244 36.4072 2.10599 37.1941 2.91643C38.0048 3.70358 38.6286 4.66254 39.0196 5.7227C39.5575 7.17347 39.8414 8.7061 39.8588 10.2533C39.9765 12.827 40.0004 13.5976 40.0004 20.1121C40.0004 26.6266 39.9765 27.3972 39.8588 29.9709C39.8401 31.5179 39.5563 33.0502 39.0196 34.5011C38.6136 35.5534 37.9919 36.5089 37.1943 37.3063C36.3967 38.1037 35.441 38.7252 34.3886 39.1309C32.9379 39.6689 31.4052 39.9528 29.858 39.9701C27.2867 40.0878 26.5137 40.1117 19.9992 40.1117C13.4847 40.1117 12.7141 40.089 10.1427 39.9701" fill="url(#paint0_radial_1114_1390)"/>
<path d="M10.1431 39.9698C8.59597 39.9525 7.06334 39.6687 5.61255 39.1309C4.55312 38.7393 3.59459 38.1159 2.80706 37.3062C1.9952 36.5203 1.37086 35.5615 0.980392 34.5011C0.44304 33.0504 0.159679 31.5179 0.142745 29.9709C0.0239216 27.3992 0 26.6278 0 20.1113C0 13.5949 0.0262745 12.8262 0.141569 10.2525C0.160558 8.70614 0.444267 7.17445 0.980392 5.72388C1.37276 4.66427 1.99622 3.70536 2.80549 2.91682C3.59205 2.10569 4.55102 1.48192 5.61137 1.09172C7.06217 0.553923 8.59479 0.270163 10.142 0.252897C12.7145 0.13525 13.4871 0.111328 20 0.111328C26.5129 0.111328 27.2851 0.137603 29.8588 0.252897C31.4056 0.271752 32.9377 0.555464 34.3886 1.09172C35.4485 1.48244 36.4072 2.10599 37.1941 2.91643C38.0048 3.70358 38.6286 4.66254 39.0196 5.7227C39.5575 7.17347 39.8414 8.7061 39.8588 10.2533C39.9765 12.827 40.0004 13.5976 40.0004 20.1121C40.0004 26.6266 39.9765 27.3972 39.8588 29.9709C39.8401 31.5179 39.5563 33.0502 39.0196 34.5011C38.6136 35.5534 37.9919 36.5089 37.1943 37.3063C36.3967 38.1037 35.441 38.7252 34.3886 39.1309C32.9379 39.6689 31.4052 39.9528 29.858 39.9701C27.2867 40.0878 26.5137 40.1117 19.9992 40.1117C13.4847 40.1117 12.7141 40.089 10.1427 39.9701" fill="url(#paint1_radial_1114_1390)"/>
<path d="M15.089 20.1971C15.0891 19.2174 15.3797 18.2597 15.9241 17.4452C16.4684 16.6307 17.2421 15.9958 18.1473 15.621C19.0524 15.2462 20.0484 15.1482 21.0092 15.3394C21.9701 15.5307 22.8526 16.0025 23.5453 16.6954C24.238 17.3882 24.7096 18.2709 24.9006 19.2318C25.0916 20.1927 24.9934 21.1886 24.6184 22.0937C24.2433 22.9988 23.6083 23.7723 22.7937 24.3165C21.979 24.8606 21.0213 25.151 20.0416 25.1508C18.7279 25.1506 17.4682 24.6286 16.5394 23.6996C15.6106 22.7706 15.0889 21.5107 15.089 20.1971ZM12.411 20.1971C12.411 21.7063 12.8585 23.1816 13.697 24.4364C14.5354 25.6913 15.7272 26.6693 17.1215 27.2469C18.5158 27.8244 20.05 27.9755 21.5302 27.6811C23.0104 27.3867 24.3701 26.6599 25.4372 25.5927C26.5044 24.5256 27.2311 23.166 27.5255 21.6858C27.82 20.2056 27.6689 18.6713 27.0913 17.277C26.5138 15.8827 25.5357 14.691 24.2809 13.8525C23.0261 13.014 21.5508 12.5665 20.0416 12.5665C19.0395 12.5665 18.0472 12.7638 17.1214 13.1473C16.1956 13.5307 15.3544 14.0928 14.6458 14.8013C13.9372 15.5099 13.3752 16.3511 12.9917 17.2769C12.6083 18.2028 12.4109 19.195 12.411 20.1971ZM26.191 12.2642C26.1908 12.6168 26.2953 12.9616 26.4911 13.255C26.6869 13.5483 26.9653 13.7769 27.291 13.912C27.6168 14.0472 27.9753 14.0826 28.3212 14.014C28.6672 13.9453 28.985 13.7756 29.2344 13.5264C29.4839 13.2771 29.6539 12.9595 29.7228 12.6136C29.7918 12.2677 29.7566 11.9092 29.6218 11.5833C29.487 11.2574 29.2586 10.9788 28.9654 10.7828C28.6723 10.5867 28.3276 10.482 27.9749 10.4818C27.5022 10.482 27.0489 10.6698 26.7145 11.004C26.3802 11.3382 26.1922 11.7914 26.1918 12.2642M14.0388 32.2932C13.0965 32.2828 12.163 32.1104 11.2792 31.7834C10.6383 31.5363 10.0562 31.1578 9.57033 30.6722C9.08451 30.1866 8.70575 29.6046 8.45844 28.9638C8.13129 28.08 7.95884 27.1465 7.94864 26.2042C7.87648 24.6379 7.86236 24.1673 7.86236 20.1991C7.86236 16.2308 7.87805 15.7614 7.94864 14.1936C7.96007 13.2514 8.13248 12.3181 8.45844 11.434C8.70547 10.7928 9.08411 10.2106 9.56996 9.7247C10.0558 9.23886 10.6381 8.86021 11.2792 8.61318C12.163 8.28604 13.0965 8.11359 14.0388 8.10338C15.6051 8.03122 16.0757 8.01711 20.0424 8.01711C24.009 8.01711 24.48 8.0324 26.0478 8.10378C26.99 8.11521 27.9234 8.28762 28.8075 8.61358C29.4486 8.86063 30.0309 9.23928 30.5167 9.72512C31.0025 10.211 31.3812 10.7932 31.6282 11.4344C31.9554 12.3181 32.1278 13.2517 32.138 14.194C32.2102 15.7626 32.2243 16.2308 32.2243 20.1995C32.2243 24.1681 32.2098 24.6371 32.138 26.2049C32.1271 27.1472 31.9546 28.0806 31.6282 28.9646C31.3809 29.6054 31.0022 30.1874 30.5164 30.673C30.0305 31.1586 29.4484 31.5371 28.8075 31.7842C27.9237 32.1113 26.9902 32.2838 26.0478 32.294C24.4816 32.3661 24.011 32.3802 20.0424 32.3802C16.0737 32.3802 15.6047 32.3657 14.0388 32.294M13.9157 5.4277C12.6827 5.45194 11.4627 5.68531 10.3079 6.11788C9.3206 6.4996 8.424 7.0834 7.67555 7.83186C6.92709 8.58032 6.34329 9.47691 5.96157 10.4642C5.52906 11.6191 5.29569 12.839 5.27139 14.072C5.19805 15.6563 5.18158 16.163 5.18158 20.1987C5.18158 24.2344 5.19844 24.7406 5.27139 26.3253C5.29568 27.5583 5.52905 28.7783 5.96157 29.9332C6.34331 30.9204 6.92712 31.817 7.67557 32.5655C8.42403 33.3139 9.32061 33.8977 10.3079 34.2795C11.4628 34.7118 12.6827 34.9452 13.9157 34.9697C15.5008 35.0418 16.0067 35.0595 20.0424 35.0595C24.078 35.0595 24.5843 35.0426 26.169 34.9697C27.402 34.9453 28.6219 34.7119 29.7769 34.2795C30.7641 33.8977 31.6607 33.3139 32.4091 32.5655C33.1576 31.817 33.7414 30.9204 34.1231 29.9332C34.5562 28.7784 34.7896 27.5584 34.8133 26.3253C34.8855 24.7399 34.902 24.2344 34.902 20.1987C34.902 16.163 34.8851 15.6567 34.8133 14.072C34.7891 12.839 34.5557 11.6191 34.1231 10.4642C33.7414 9.4771 33.1578 8.58064 32.4095 7.83221C31.6613 7.08377 30.765 6.49986 29.7781 6.11788C28.6232 5.68503 27.4032 5.45165 26.1702 5.4277C24.5855 5.35515 24.0792 5.33789 20.0443 5.33789C16.0094 5.33789 15.502 5.35475 13.9165 5.4277" fill="white"/>
</g>
<defs>
<radialGradient id="paint0_radial_1114_1390" cx="0" cy="0" r="1" gradientUnits="userSpaceOnUse" gradientTransform="translate(2.58863 39.2352) scale(50.7851)">
<stop offset="0.09" stop-color="#FA8F21"/>
<stop offset="0.78" stop-color="#D82D7E"/>
</radialGradient>
<radialGradient id="paint1_radial_1114_1390" cx="0" cy="0" r="1" gradientUnits="userSpaceOnUse" gradientTransform="translate(27.7067 37.9505) scale(44.6914)">
<stop offset="0.64" stop-color="#8C3AAA" stop-opacity="0"/>
<stop offset="1" stop-color="#8C3AAA"/>
</radialGradient>
<clipPath id="clip0_1114_1390">
<rect width="40" height="40" fill="white" transform="translate(0 0.111328)"/>
</clipPath>
</defs>
</svg>
