<svg width="33" height="31" viewBox="0 0 33 31" fill="none" xmlns="http://www.w3.org/2000/svg">
<ellipse cx="16.5" cy="15.5" rx="16.5" ry="15.5" fill="url(#paint0_linear_1032_1083)"/>
<g clip-path="url(#clip0_1032_1083)">
<path d="M6.43278 17.1952C6.35619 17.1636 6.27021 17.1637 6.19368 17.1954C6.11715 17.2272 6.05631 17.2879 6.02447 17.3644C5.99264 17.4409 5.99242 17.5268 6.02384 17.6035C6.05527 17.6801 6.1158 17.7412 6.19216 17.7733C6.85466 18.0483 7.49997 18.2686 8.12497 18.4827C8.68122 18.6733 9.25466 18.8718 9.83434 19.1061L11.4078 20.2014L11.0422 20.7171C10.8829 20.9455 10.8162 21.2258 10.8553 21.5015C10.8944 21.7772 11.0366 22.0279 11.2531 22.203L11.3953 22.3139C11.5715 22.4533 11.7894 22.5292 12.014 22.5296C12.0637 22.529 12.1133 22.5253 12.1625 22.5186C12.1797 22.5155 12.1968 22.5108 12.214 22.5077C12.2614 22.7607 12.3984 22.9882 12.6 23.1483L12.7906 23.2968C12.9672 23.4352 13.185 23.5105 13.4093 23.5108C13.4559 23.5109 13.5023 23.5077 13.5484 23.5014C13.5866 23.7768 13.7292 24.0269 13.9468 24.1999C14.1234 24.3383 14.3412 24.4137 14.5656 24.4139C14.6153 24.4142 14.6649 24.4105 14.714 24.403C14.8277 24.3869 14.9378 24.3509 15.039 24.2968C15.1071 24.4673 15.2193 24.6167 15.364 24.7296L15.514 24.8468C15.6898 24.9867 15.908 25.0628 16.1328 25.0624C16.1825 25.0626 16.2321 25.0589 16.2812 25.0514C16.419 25.0314 16.5511 24.9832 16.6694 24.9098C16.7877 24.8364 16.8896 24.7394 16.9687 24.6249L17.2859 24.1749L17.4203 24.2671C17.5783 24.3777 17.7665 24.4371 17.9593 24.4374C18.0233 24.4373 18.0872 24.431 18.15 24.4186C18.276 24.3926 18.3953 24.341 18.5006 24.2671C18.606 24.1932 18.6951 24.0985 18.7625 23.9889C18.8359 23.8727 18.8838 23.7422 18.9031 23.6061L19.2562 23.8421C19.414 23.9517 19.6015 24.0106 19.7937 24.0108C19.8577 24.0107 19.9216 24.0044 19.9843 23.9921C20.1103 23.9658 20.2296 23.9144 20.3351 23.8408C20.4407 23.7672 20.5302 23.673 20.5984 23.5639C20.6709 23.4462 20.7202 23.3158 20.7437 23.1796L20.7547 23.1889C20.9125 23.2986 21.1 23.3575 21.2922 23.3577C21.3562 23.3576 21.42 23.3513 21.4828 23.3389C21.609 23.3129 21.7286 23.2613 21.8341 23.1875C21.9397 23.1136 22.0291 23.0189 22.0968 22.9093C22.229 22.6953 22.277 22.4399 22.2317 22.1926C22.1864 21.9452 22.0509 21.7234 21.8515 21.5702C21.9487 21.4985 22.0319 21.4095 22.0968 21.3077C22.2276 21.0957 22.276 20.8432 22.2331 20.5979C22.1902 20.3526 22.0589 20.1315 21.864 19.9764L22.1297 19.6233L25.8656 17.0374C25.9332 16.9899 25.9793 16.9176 25.9938 16.8363C26.0083 16.7549 25.9901 16.6712 25.943 16.6033C25.8959 16.5354 25.8239 16.4888 25.7427 16.4738C25.6614 16.4589 25.5775 16.4767 25.5093 16.5233L23.5984 17.8468L21.2703 13.7718L25.8515 10.953C25.9218 10.9094 25.9718 10.8397 25.9907 10.7592C26.0097 10.6787 25.9959 10.5941 25.9524 10.5237C25.909 10.4534 25.8394 10.4031 25.759 10.384C25.6786 10.3649 25.5938 10.3785 25.5234 10.4218L20.7484 13.3593C20.7277 13.3653 20.7078 13.3737 20.689 13.3843C20.6655 13.3979 20.6439 13.4147 20.625 13.4342L19.1109 14.3655L16.1718 13.8702C15.5409 13.7388 14.8843 13.8167 14.3015 14.0921C14.2785 14.0752 14.2533 14.0615 14.2265 14.0514L12.9172 13.5983C12.8902 13.5694 12.8578 13.5461 12.8218 13.5296C11.8875 13.0952 10.8031 12.4718 9.75466 11.8686C8.62653 11.2202 7.45934 10.5483 6.44059 10.0905C6.40322 10.0735 6.36286 10.064 6.32183 10.0627C6.2808 10.0613 6.23989 10.068 6.20147 10.0825C6.16305 10.097 6.12786 10.1189 6.09793 10.147C6.068 10.1751 6.04391 10.2088 6.02704 10.2463C6.01018 10.2837 6.00087 10.3241 5.99965 10.3651C5.99843 10.4062 6.00533 10.4471 6.01994 10.4854C6.03456 10.5238 6.0566 10.5589 6.08481 10.5887C6.11303 10.6186 6.14685 10.6425 6.18434 10.6593C7.17497 11.1061 8.32809 11.7686 9.44372 12.4108C9.77653 12.603 10.114 12.7952 10.45 12.9858L8.00309 17.7796C7.48903 17.603 6.96403 17.4171 6.43278 17.1952ZM22.2499 17.7185C22.3117 17.7185 22.3722 17.7369 22.4236 17.7712C22.4749 17.8055 22.515 17.8543 22.5387 17.9114C22.5623 17.9685 22.5685 18.0314 22.5564 18.092C22.5444 18.1526 22.5146 18.2083 22.4709 18.252C22.4272 18.2957 22.3715 18.3255 22.3109 18.3375C22.2503 18.3496 22.1875 18.3434 22.1304 18.3198C22.0733 18.2961 22.0245 18.2561 21.9901 18.2047C21.9558 18.1533 21.9374 18.0928 21.9374 18.031C21.9374 17.99 21.9455 17.9494 21.9612 17.9115C21.9769 17.8735 22 17.8391 22.029 17.8101C22.058 17.7811 22.0924 17.758 22.1304 17.7423C22.1683 17.7266 22.2089 17.7185 22.2499 17.7185ZM12.3889 21.6618L12.3883 21.6627L12.34 21.7312C12.3091 21.7762 12.2693 21.8143 12.2231 21.8434C12.1769 21.8724 12.1252 21.8916 12.0713 21.8999C12.0199 21.9073 11.9677 21.9042 11.9176 21.8907C11.8675 21.8773 11.8207 21.8537 11.78 21.8216L11.6385 21.711C11.5479 21.6352 11.489 21.5283 11.4731 21.4113C11.4572 21.2942 11.4856 21.1755 11.5528 21.0783L12.5901 19.6099C12.621 19.565 12.6607 19.5268 12.7069 19.4978C12.7531 19.4688 12.8048 19.4496 12.8587 19.4414C12.91 19.4339 12.9623 19.4369 13.0124 19.4504C13.0625 19.4638 13.1093 19.4874 13.15 19.5196L13.2914 19.6301C13.3819 19.7059 13.4409 19.8127 13.4568 19.9297C13.4727 20.0467 13.4444 20.1654 13.3774 20.2626L12.3889 21.6618ZM13.7357 22.7135C13.7049 22.7585 13.6651 22.7967 13.6189 22.8257C13.5727 22.8547 13.521 22.874 13.467 22.8822C13.4157 22.8897 13.3634 22.8866 13.3134 22.8731C13.2633 22.8597 13.2165 22.8361 13.1758 22.8039L12.9853 22.6551C12.8947 22.5793 12.8358 22.4725 12.8199 22.3555C12.804 22.2385 12.8323 22.1198 12.8992 22.0226L13.8877 20.6235L13.8883 20.6225L13.9367 20.554C13.9676 20.5091 14.0074 20.4709 14.0536 20.4419C14.0998 20.4129 14.1515 20.3936 14.2054 20.3854C14.2567 20.378 14.309 20.3811 14.3591 20.3946C14.4091 20.408 14.4559 20.4315 14.4966 20.4636L14.6872 20.6125C14.7778 20.6883 14.8368 20.7952 14.8526 20.9123C14.8685 21.0293 14.8401 21.1481 14.773 21.2453L13.7357 22.7135ZM15.1523 23.2441C15.1434 23.2567 15.136 23.27 15.1277 23.2828L14.8919 23.6166C14.861 23.6616 14.8212 23.6998 14.775 23.7288C14.7288 23.7578 14.6771 23.777 14.6232 23.7853C14.5719 23.7928 14.5196 23.7897 14.4695 23.7763C14.4194 23.7628 14.3726 23.7392 14.332 23.707C14.2414 23.6312 14.1824 23.5243 14.1665 23.4072C14.1506 23.2901 14.179 23.1714 14.2462 23.0742L15.2835 21.6058C15.3144 21.5609 15.3541 21.5227 15.4003 21.4937C15.4465 21.4647 15.4982 21.4455 15.5521 21.4372C15.5705 21.4345 15.5891 21.4332 15.6077 21.4332C15.6932 21.4334 15.7762 21.4624 15.8433 21.5155C15.9307 21.5888 15.9886 21.6913 16.0064 21.8039C16.0243 21.9166 16.0008 22.0319 15.9403 22.1286L15.1523 23.2441ZM17.3222 23.0421L16.4586 24.2646C16.4277 24.3095 16.388 24.3477 16.3418 24.3767C16.2956 24.4057 16.2439 24.4249 16.19 24.4332C16.1387 24.4407 16.0864 24.4376 16.0363 24.4241C15.9862 24.4107 15.9394 24.3871 15.8987 24.3549L15.7485 24.2376C15.6611 24.1642 15.6032 24.0618 15.5854 23.9492C15.5675 23.8365 15.591 23.7212 15.6515 23.6245L16.4397 22.5089C16.4485 22.4963 16.4559 22.4831 16.4642 22.4703L16.5263 22.3823C16.5572 22.3373 16.597 22.2991 16.6431 22.2701C16.6893 22.2411 16.741 22.2219 16.7949 22.2136C16.8133 22.211 16.8319 22.2096 16.8505 22.2096C16.9361 22.2098 17.019 22.2388 17.0861 22.2919L17.2365 22.4093C17.3271 22.4852 17.3861 22.5921 17.4019 22.7091C17.4178 22.8262 17.3894 22.9449 17.3222 23.0421ZM18.2339 23.6566C18.2108 23.6945 18.1803 23.7273 18.144 23.7529C18.1078 23.7786 18.0668 23.7966 18.0234 23.8058C17.9808 23.8144 17.9368 23.8142 17.8943 23.8052C17.8518 23.7962 17.8116 23.7786 17.7761 23.7535L17.6476 23.6647L17.8326 23.4028C17.9082 23.2952 17.9633 23.1748 17.9954 23.0473L18.1309 23.1395C18.2097 23.1972 18.2639 23.2823 18.283 23.378C18.302 23.4738 18.2845 23.5731 18.2339 23.6566ZM16.0401 14.4811C16.0462 14.4825 16.0524 14.4837 16.0586 14.4848L19.0423 14.9884L21.5631 19.3375L21.3343 19.6404L16.7947 16.6605C16.3503 16.3253 15.9422 16.1883 15.5832 16.2526C15.3687 16.2887 15.176 16.4051 15.0442 16.5781L14.2127 17.6204C13.8686 17.9808 13.5578 18.1618 13.3108 18.1425C13.2208 18.1285 13.1352 18.0945 13.0601 18.043C12.985 17.9914 12.9225 17.9238 12.877 17.8449C13.0257 17.5875 13.1456 17.3146 13.2344 17.0309L13.7166 15.557C14.3718 14.1236 15.9728 14.4659 16.0401 14.4811ZM12.7328 14.1952L13.6859 14.5264C13.4554 14.7522 13.2702 15.02 13.1406 15.3155C13.1358 15.3256 13.1316 15.3361 13.1281 15.3468L12.6375 16.8436C12.5645 17.0799 12.4655 17.3074 12.3422 17.5218C12.2793 17.6244 12.2474 17.743 12.2505 17.8634C12.2535 17.9837 12.2913 18.1006 12.3593 18.1999C12.4575 18.3562 12.5897 18.4882 12.7461 18.5862C12.9025 18.6841 13.079 18.7454 13.2625 18.7655C13.7109 18.7999 14.1875 18.5561 14.675 18.0405C14.6815 18.0345 14.6873 18.0276 14.6922 18.0202L15.5375 16.9608C15.5451 16.9527 15.5519 16.9438 15.5578 16.9343C15.5955 16.8993 15.6429 16.8764 15.6937 16.8686C15.7968 16.8499 16.0281 16.8639 16.425 17.1655C16.4313 17.1688 16.4371 17.173 16.4422 17.178L21.2359 20.3233C21.2631 20.3414 21.2932 20.3546 21.325 20.3624L21.464 20.4577C21.543 20.5149 21.5974 20.5997 21.6166 20.6953C21.6357 20.7909 21.618 20.8902 21.5672 20.9733C21.5301 21.0367 21.472 21.0852 21.4029 21.1103C21.3339 21.1354 21.2582 21.1356 21.189 21.1108L18.1359 19.0014L18.1312 18.9983V18.9968C18.1203 18.9905 18.1093 18.9858 18.1 18.9796C18.0925 18.9748 18.0847 18.9706 18.0765 18.9671C18.0588 18.9599 18.0405 18.9542 18.0218 18.9499C18.0203 18.9499 18.0187 18.9483 18.0172 18.9483C17.9785 18.9408 17.9388 18.9402 17.9 18.9468H17.8984C17.8828 18.9499 17.8672 18.9546 17.8515 18.9593C17.8484 18.9608 17.8437 18.9608 17.839 18.9624C17.8278 18.9675 17.8168 18.9732 17.8062 18.9796C17.7991 18.9826 17.7923 18.9863 17.7859 18.9905C17.7777 18.9957 17.7699 19.0015 17.7625 19.0077C17.7538 19.014 17.7454 19.0208 17.7375 19.028C17.7318 19.0339 17.7266 19.0401 17.7218 19.0468C17.7127 19.0559 17.7043 19.0659 17.6968 19.0764H17.6953C17.6906 19.0843 17.6875 19.0921 17.6844 19.0983C17.6775 19.1089 17.6713 19.1199 17.6656 19.1311C17.6625 19.1389 17.6609 19.1483 17.6578 19.1561C17.6547 19.1671 17.65 19.178 17.6468 19.1905C17.6453 19.1999 17.6453 19.2093 17.6437 19.2186C17.6418 19.2289 17.6408 19.2394 17.6406 19.2499C17.6406 19.2593 17.6422 19.2686 17.6422 19.278C17.6437 19.2889 17.6437 19.2999 17.6453 19.3093C17.6472 19.3183 17.6498 19.3272 17.6531 19.3358C17.6553 19.3465 17.6584 19.357 17.6625 19.3671C17.6656 19.3764 17.6703 19.3827 17.6734 19.3905C17.6777 19.4014 17.6829 19.4118 17.689 19.4218C17.6939 19.4288 17.6991 19.4356 17.7047 19.4421C17.7125 19.4514 17.7187 19.4608 17.7265 19.4702C17.7328 19.4764 17.7406 19.4811 17.7468 19.4874C17.7562 19.4952 17.764 19.503 17.775 19.5108L20.7547 21.5858C20.7968 21.6149 20.8412 21.6405 20.8875 21.6624L21.464 22.0608C21.5439 22.1172 21.5992 22.2022 21.6184 22.2981C21.6375 22.394 21.6192 22.4936 21.5672 22.5764C21.544 22.6145 21.5134 22.6474 21.4771 22.6732C21.4409 22.6989 21.3997 22.7171 21.3562 22.7264C21.3136 22.7348 21.2698 22.7344 21.2273 22.7252C21.1849 22.7161 21.1447 22.6984 21.1093 22.6733L20.4328 22.2061C20.4076 22.1836 20.381 22.1627 20.3531 22.1436C20.3354 22.1314 20.3165 22.121 20.2968 22.1124L17.2218 19.9889C17.1537 19.9423 17.0698 19.9246 16.9886 19.9397C16.9074 19.9548 16.8355 20.0014 16.7886 20.0694C16.7417 20.1374 16.7236 20.2212 16.7383 20.3024C16.7531 20.3837 16.7994 20.4558 16.8672 20.503L20.0328 22.6889C20.0931 22.7647 20.1289 22.857 20.1353 22.9536C20.1418 23.0502 20.1185 23.1465 20.0687 23.2296C20.046 23.2678 20.0156 23.3009 19.9794 23.3267C19.9432 23.3525 19.9021 23.3704 19.8585 23.3794C19.815 23.3884 19.7701 23.3882 19.7266 23.3788C19.6832 23.3694 19.6422 23.351 19.6062 23.3249L17.8343 22.1405C17.7747 22.0561 17.7031 21.9808 17.6218 21.9171L17.4703 21.7999C17.3632 21.715 17.2399 21.6531 17.1079 21.6179C16.976 21.5827 16.8382 21.575 16.7031 21.5952C16.6705 21.6003 16.6381 21.6071 16.6062 21.6155C16.5503 21.3812 16.4171 21.1726 16.2281 21.0233C16.1222 20.9397 16.0005 20.8784 15.8702 20.8432C15.7399 20.808 15.6039 20.7996 15.4703 20.8186C15.4325 20.5431 15.2898 20.2929 15.0718 20.1202L14.8812 19.9718C14.7743 19.8868 14.6509 19.8247 14.5189 19.7895C14.3869 19.7543 14.2491 19.7467 14.114 19.7671C14.0968 19.7702 14.0797 19.7733 14.0625 19.778C14.0155 19.5248 13.8784 19.2972 13.6765 19.1374L13.5343 19.0264C13.4272 18.9419 13.3038 18.8803 13.1718 18.8453C13.0399 18.8104 12.9021 18.8029 12.7672 18.8233C12.6295 18.8436 12.4974 18.8919 12.3791 18.9652C12.2609 19.0386 12.1589 19.1355 12.0797 19.2499L11.7687 19.6905L10.4156 18.7483C10.4093 18.7344 10.4014 18.7213 10.3922 18.7093L12.7328 14.1952ZM9.50153 17.2499C9.56308 17.2511 9.62289 17.2705 9.67347 17.3055C9.72405 17.3406 9.76315 17.3899 9.78586 17.4471C9.80857 17.5043 9.81388 17.5669 9.80112 17.6271C9.78837 17.6874 9.75811 17.7425 9.71416 17.7856C9.6702 17.8287 9.6145 17.8578 9.55404 17.8694C9.49358 17.8809 9.43106 17.8744 9.3743 17.8506C9.31755 17.8267 9.2691 17.7867 9.23503 17.7354C9.20096 17.6841 9.18278 17.6239 9.18278 17.5624C9.18308 17.5209 9.19158 17.4799 9.20778 17.4417C9.22398 17.4035 9.24757 17.3689 9.27719 17.3399C9.30681 17.3108 9.34188 17.2879 9.38038 17.2725C9.41888 17.257 9.46005 17.2494 9.50153 17.2499Z" fill="white"/>
<path d="M16.4687 13.1874C17.0868 13.1874 17.691 13.0042 18.2049 12.6608C18.7188 12.3174 19.1193 11.8294 19.3558 11.2583C19.5923 10.6873 19.6542 10.059 19.5336 9.45282C19.4131 8.84664 19.1154 8.28982 18.6784 7.85278C18.2414 7.41575 17.6846 7.11812 17.0784 6.99755C16.4722 6.87697 15.8439 6.93885 15.2728 7.17538C14.7018 7.4119 14.2138 7.81243 13.8704 8.32633C13.527 8.84023 13.3437 9.44441 13.3438 10.0625C13.3447 10.891 13.6742 11.6853 14.2601 12.2711C14.8459 12.857 15.6402 13.1865 16.4687 13.1874ZM15.0255 9.6807C15.0577 9.65532 15.0947 9.63653 15.1342 9.62543C15.1737 9.61432 15.215 9.61111 15.2557 9.61597C15.2965 9.62083 15.3359 9.63367 15.3717 9.65376C15.4075 9.67385 15.4389 9.70079 15.4643 9.73304L15.8858 10.2687L17.5471 9.17641C17.5813 9.15387 17.6197 9.1383 17.66 9.13059C17.7003 9.12289 17.7418 9.12319 17.7819 9.1315C17.8221 9.1398 17.8603 9.15594 17.8942 9.17898C17.9282 9.20203 17.9572 9.23154 17.9798 9.26583C18.0023 9.30011 18.0179 9.3385 18.0256 9.3788C18.0333 9.4191 18.033 9.46053 18.0247 9.50071C18.0164 9.54089 18.0003 9.57905 17.9772 9.61299C17.9542 9.64694 17.9247 9.67601 17.8904 9.69856L15.9893 10.9485C15.9239 10.9916 15.8447 11.0085 15.7675 10.9959C15.6902 10.9834 15.6205 10.9422 15.572 10.8807L14.9731 10.1195C14.9478 10.0873 14.929 10.0504 14.9179 10.0108C14.9068 9.97134 14.9036 9.93003 14.9084 9.88928C14.9133 9.84853 14.9261 9.80914 14.9462 9.77335C14.9663 9.73756 14.9932 9.70608 15.0255 9.6807Z" fill="white"/>
</g>
<defs>
<linearGradient id="paint0_linear_1032_1083" x1="23.7794" y1="4.84375" x2="4.40955" y2="27.1614" gradientUnits="userSpaceOnUse">
<stop stop-color="#4959EE"/>
<stop offset="0.547509" stop-color="#0B2749"/>
<stop offset="1" stop-color="#0B2749"/>
</linearGradient>
<clipPath id="clip0_1032_1083">
<rect width="20" height="20" fill="white" transform="translate(6 6)"/>
</clipPath>
</defs>
</svg>
