<svg width="33" height="31" viewBox="0 0 33 31" fill="none" xmlns="http://www.w3.org/2000/svg">
<ellipse cx="16.5" cy="15.5" rx="16.5" ry="15.5" fill="url(#paint0_linear_1023_939)"/>
<path d="M13.7695 12.0578C13.7695 11.3205 14.2398 10.716 14.8326 10.6933C15.8101 10.6554 17.1337 10.5471 17.3094 10.5031C18.8541 10.1184 19.4372 8.94364 19.4944 7.0965C19.5263 6.06927 19.6959 3.99956 20.827 4C22.3323 4.00065 22.0754 6.27552 22.1099 7.55241C22.1298 8.28159 22.1592 9.17143 22.6078 9.71785C23.4136 10.6994 24.9128 10.044 25.9056 10.2779C26.4396 10.4036 26.8162 10.7166 26.9132 11.4139C26.9547 11.7115 26.9449 12.2643 26.8202 12.6936C26.719 13.0414 26.7415 13.4264 26.8668 13.7618C27.0682 14.3009 27.0409 15.1794 26.7885 15.7414C26.6209 16.1145 26.5877 16.5602 26.7239 16.9529C26.8003 17.1726 26.8497 17.4613 26.841 17.8395C26.8329 18.1894 26.7662 18.4565 26.6768 18.6589C26.5211 19.012 26.4786 19.43 26.5961 19.8052C26.6733 20.0521 26.6827 20.399 26.518 20.8788C26.1271 22.0185 23.1832 21.8739 22.8698 21.8553C22.8511 21.8542 22.8325 21.8536 22.8138 21.8538L14.87 21.8689C14.2626 21.87 13.7696 21.259 13.7696 20.5038C13.7695 18.3592 13.7695 14.2257 13.7695 12.0578Z" fill="#F5EFEA"/>
<path d="M26.7882 15.7413C27.0406 15.1793 27.0679 14.3008 26.8665 13.7617C26.7412 13.4263 26.7187 13.0413 26.8199 12.6935C26.9446 12.2643 26.9544 11.7115 26.9129 11.4138C26.8173 10.7275 26.4505 10.4137 25.9296 10.2841C25.9674 10.3901 25.9959 10.5083 26.0142 10.6403C26.0557 10.938 26.0461 11.4908 25.9211 11.9198C25.8201 12.2678 25.8427 12.6528 25.9678 12.9881C26.1692 13.5273 26.142 14.4058 25.8895 14.9676C25.7219 15.3409 25.6886 15.7866 25.8249 16.1793C25.9011 16.3991 25.9507 16.6878 25.9419 17.0657C25.9336 17.4156 25.8672 17.6829 25.7778 17.8854C25.6222 18.2385 25.5797 18.6562 25.6971 19.0316C25.7743 19.2786 25.7837 19.6252 25.619 20.1052C25.2369 21.2185 23.8855 21.1495 23.0714 21.0983C20.9272 20.9629 18.7893 20.9015 16.6428 20.8722C15.7411 20.8599 14.8398 20.8477 13.9383 20.8355C13.9064 20.8355 13.8327 20.8355 13.8018 20.8323C14.0016 21.6344 14.4312 21.8695 14.8698 21.8687L22.9088 22.0837C22.9275 22.0837 22.9088 22.0837 22.9275 22.0848C23.2411 22.1035 26.1268 22.0184 26.5176 20.8786C26.6823 20.3989 26.673 20.0519 26.5957 19.8051C26.4782 19.4299 26.5208 19.0119 26.6765 18.6588C26.7658 18.4564 26.8325 18.1893 26.8406 17.8394C26.8494 17.4611 26.8 17.1724 26.7236 16.9528C26.5873 16.5601 26.6205 16.1143 26.7882 15.7413ZM22.1096 7.55219C22.0877 6.66768 22.1149 4.99873 21.5245 4.31209V4.31187C21.3306 4.08669 21.0693 3.96921 20.7192 4.01762C20.468 4.0261 20.206 4.15131 20.0115 4.53075C20.0115 4.53075 20.6234 4.61103 20.8117 6.05947C20.8213 6.15618 20.8316 6.25256 20.8417 6.34927C20.843 6.36504 20.8445 6.38006 20.8456 6.39605L20.8465 6.39387C20.8606 6.52833 20.8742 6.66289 20.8895 6.79713C20.9168 7.03961 20.946 7.28176 20.9773 7.52336C21.0602 8.16442 21.1333 8.79482 21.4523 9.33743C21.8348 9.9886 22.5628 10.3929 23.2146 10.1499C23.2144 10.1497 22.172 10.0376 22.1096 7.55219Z" fill="#E2D6CC"/>
<path d="M10.9252 24.0003H7.57092C6.70317 24.0003 6 23.1511 6 22.1033V10.244C6 9.19606 6.70326 8.34668 7.57092 8.34668H10.9252C11.7927 8.34668 12.4961 9.19616 12.4961 10.244V22.1033C12.4961 23.1511 11.7927 24.0003 10.9252 24.0003Z" fill="#61CCFB"/>
<path d="M10.925 8.34668H10.8334C10.9665 8.62527 11.0437 8.94749 11.0437 9.29211V21.1514C11.0437 22.1993 10.3403 23.0485 9.47259 23.0485H6.20996C6.48128 23.6169 6.98853 24.0003 7.57063 24.0003H10.9249C11.7924 24.0003 12.4958 23.1511 12.4958 22.1033V10.2441C12.4959 9.19617 11.7925 8.34668 10.925 8.34668Z" fill="#2DB1E0"/>
<path d="M6.67552 22.851V10.9918C6.67552 9.94394 7.37878 9.09456 8.24643 9.09456H11.6007C11.8431 9.09456 12.0722 9.16299 12.2772 9.28156C12.0038 8.72274 11.5015 8.34668 10.9251 8.34668H7.57092C6.70317 8.34668 6 9.19616 6 10.244V22.1033C6 22.8581 6.36582 23.5079 6.8945 23.8134C6.75614 23.5311 6.67552 23.2028 6.67552 22.851Z" fill="#99E5FF"/>
<path d="M9.10288 22.308C9.82471 22.308 10.4099 21.6014 10.4099 20.7297C10.4099 19.858 9.82471 19.1514 9.10288 19.1514C8.38105 19.1514 7.7959 19.858 7.7959 20.7297C7.7959 21.6014 8.38105 22.308 9.10288 22.308Z" fill="#FF464C"/>
<path d="M9.38164 19.1875C9.42686 19.3473 9.45235 19.5179 9.45235 19.6964C9.45235 20.5682 8.86719 21.2748 8.14528 21.2748C8.04943 21.2748 7.95629 21.2614 7.86621 21.2378C8.04178 21.8593 8.5283 22.307 9.10239 22.307C9.8243 22.307 10.4095 21.6005 10.4095 20.7287C10.4095 19.973 9.96932 19.342 9.38164 19.1875Z" fill="#EF2938"/>
<path d="M8.04623 21.0814C8.04623 20.2098 8.63158 19.503 9.3533 19.503C9.68003 19.503 9.9781 19.6489 10.2072 19.8884C9.97567 19.4461 9.56815 19.1514 9.10279 19.1514C8.38106 19.1514 7.7959 19.8582 7.7959 20.7298C7.7959 21.207 7.97183 21.6337 8.24891 21.923C8.12136 21.679 8.04623 21.3912 8.04623 21.0814Z" fill="#FF8089"/>
<defs>
<linearGradient id="paint0_linear_1023_939" x1="23.7794" y1="4.84375" x2="4.40955" y2="27.1614" gradientUnits="userSpaceOnUse">
<stop stop-color="#4959EE"/>
<stop offset="0.547509" stop-color="#0B2749"/>
<stop offset="1" stop-color="#0B2749"/>
</linearGradient>
</defs>
</svg>
