<svg width="33" height="31" viewBox="0 0 33 31" fill="none" xmlns="http://www.w3.org/2000/svg">
<ellipse cx="16.5" cy="15.5" rx="16.5" ry="15.5" fill="url(#paint0_linear_1032_1112)"/>
<path fill-rule="evenodd" clip-rule="evenodd" d="M13.5312 12.6875C13.5312 11.7383 14.3008 10.9688 15.25 10.9688H17.75C18.6993 10.9688 19.4688 11.7383 19.4688 12.6875V13.9375C19.4688 14.1964 19.2589 14.4062 19 14.4062H14C13.7411 14.4062 13.5312 14.1964 13.5312 13.9375V12.6875ZM15.25 11.9062C14.8185 11.9062 14.4688 12.256 14.4688 12.6875V13.4688H18.5312V12.6875C18.5312 12.256 18.1815 11.9062 17.75 11.9062H15.25Z" fill="white"/>
<path fill-rule="evenodd" clip-rule="evenodd" d="M14.4688 11.125C14.4688 10.0032 15.3782 9.09375 16.5 9.09375C17.6218 9.09375 18.5313 10.0032 18.5313 11.125V11.4375C18.5313 11.6964 18.3214 11.9062 18.0625 11.9062H14.9375C14.6786 11.9062 14.4688 11.6964 14.4688 11.4375V11.125ZM15.4173 10.9688H17.5827C17.5069 10.4387 17.051 10.0312 16.5 10.0312C15.949 10.0312 15.4931 10.4387 15.4173 10.9688ZM19.89 10.5124C20.0556 10.3135 20.3512 10.2867 20.5501 10.4524L22.4251 12.0149C22.532 12.104 22.5938 12.2359 22.5938 12.375V13.9375C22.5938 14.1964 22.3839 14.4062 22.125 14.4062C21.8661 14.4062 21.6563 14.1964 21.6563 13.9375V12.5946L19.9499 11.1726C19.7511 11.0069 19.7242 10.7113 19.89 10.5124ZM13.1101 10.5124C12.9444 10.3135 12.6488 10.2867 12.4499 10.4524L10.5749 12.0149C10.468 12.104 10.4062 12.2359 10.4062 12.375V13.9375C10.4062 14.1964 10.6161 14.4062 10.875 14.4062C11.1339 14.4062 11.3438 14.1964 11.3438 13.9375V12.5946L13.0501 11.1726C13.249 11.0069 13.2758 10.7113 13.1101 10.5124Z" fill="white"/>
<path d="M10.875 13.4688C10.7439 13.4688 10.6188 13.5236 10.5301 13.6201C10.4413 13.7166 10.397 13.8458 10.4079 13.9764L10.9374 20.3302C11.0116 21.2211 11.7563 21.9062 12.6502 21.9062H20.3498C21.2437 21.9062 21.9884 21.2211 22.0626 20.3302L22.5921 13.9764C22.603 13.8458 22.5587 13.7166 22.4699 13.6201C22.3812 13.5236 22.2561 13.4688 22.125 13.4688H10.875Z" fill="white"/>
<defs>
<linearGradient id="paint0_linear_1032_1112" x1="23.7794" y1="4.84375" x2="4.40955" y2="27.1614" gradientUnits="userSpaceOnUse">
<stop stop-color="#4959EE"/>
<stop offset="0.547509" stop-color="#0B2749"/>
<stop offset="1" stop-color="#0B2749"/>
</linearGradient>
</defs>
</svg>
