<svg width="15" height="14" viewBox="0 0 15 14" fill="none" xmlns="http://www.w3.org/2000/svg">
<ellipse cx="7.5" cy="7" rx="7.5" ry="7" fill="url(#paint0_linear_1032_1173)"/>
<path d="M5.83539 4.91992C5.66132 4.91986 5.49113 4.97143 5.34637 5.0681C5.20161 5.16477 5.08877 5.3022 5.02212 5.46302C4.95548 5.62383 4.93803 5.80079 4.97197 5.97152C5.00592 6.14226 5.08974 6.29909 5.21282 6.42218C5.33591 6.54526 5.49274 6.62908 5.66348 6.66303C5.83421 6.69697 6.01117 6.67952 6.17198 6.61288C6.3328 6.54623 6.47023 6.43339 6.5669 6.28863C6.66357 6.14387 6.71514 5.97368 6.71508 5.79961C6.71483 5.56638 6.62207 5.34277 6.45715 5.17785C6.29223 5.01293 6.06862 4.92017 5.83539 4.91992ZM5.83539 6.34242C5.72803 6.34242 5.62309 6.31059 5.53382 6.25094C5.44456 6.1913 5.37498 6.10652 5.3339 6.00733C5.29281 5.90815 5.28206 5.79901 5.30301 5.69371C5.32395 5.58842 5.37565 5.4917 5.45156 5.41578C5.52748 5.33987 5.6242 5.28817 5.72949 5.26723C5.83479 5.24628 5.94393 5.25703 6.04312 5.29812C6.1423 5.3392 6.22708 5.40877 6.28672 5.49804C6.34637 5.5873 6.3782 5.69225 6.3782 5.79961C6.37829 5.94368 6.32115 6.08189 6.21937 6.18386C6.11758 6.28582 5.97947 6.34319 5.83539 6.34336V6.34242ZM9.85477 5.09336H8.37164C8.05624 5.09377 7.75388 5.21925 7.53086 5.44227C7.30784 5.66529 7.18237 5.96765 7.18195 6.28305V6.62117H11.0445V6.28398C11.0443 5.96842 10.9189 5.66582 10.6959 5.4426C10.4728 5.21938 10.1703 5.09377 9.85477 5.09336ZM7.51883 6.28398C7.51908 6.05788 7.60901 5.84111 7.76889 5.68123C7.92877 5.52135 8.14554 5.43142 8.37164 5.43117H9.85477C10.0809 5.43142 10.2976 5.52135 10.4575 5.68123C10.6174 5.84111 10.7073 6.05788 10.7076 6.28398H7.51883Z" fill="white"/>
<path d="M11.6196 6.05051V7.06051H4.38082V4.8252H4.04395V7.06051V8.4527V9.17395H4.38082V8.4527H11.6196V9.17395H11.9564V8.4527V7.06051V6.05051H11.6196Z" fill="white"/>
<defs>
<linearGradient id="paint0_linear_1032_1173" x1="10.8088" y1="2.1875" x2="2.06928" y2="12.3224" gradientUnits="userSpaceOnUse">
<stop stop-color="#4959EE"/>
<stop offset="0.547509" stop-color="#0B2749"/>
<stop offset="1" stop-color="#0B2749"/>
</linearGradient>
</defs>
</svg>
