<svg width="15" height="14" viewBox="0 0 15 14" fill="none" xmlns="http://www.w3.org/2000/svg">
<ellipse cx="7.5" cy="7" rx="7.5" ry="7" fill="url(#paint0_linear_1032_1151)"/>
<g clip-path="url(#clip0_1032_1151)">
<path fill-rule="evenodd" clip-rule="evenodd" d="M5.92972 5.18641C5.86499 5.18641 5.8125 5.13412 5.8125 5.06943L5.81253 3.69335C5.81253 3.62866 5.86498 3.57617 5.92968 3.57617C5.99439 3.57617 6.04686 3.62866 6.04686 3.69335L6.0469 5.06943C6.0469 5.13412 5.99437 5.18641 5.92972 5.18641Z" fill="white"/>
<path fill-rule="evenodd" clip-rule="evenodd" d="M6.27582 4.44527H5.93C5.86527 4.44527 5.81278 4.39279 5.81278 4.32809C5.81282 4.26339 5.86527 4.21091 5.92996 4.21091H6.27582C6.40197 4.21091 6.50448 4.12119 6.50448 4.01072C6.50451 3.90046 6.40194 3.81054 6.27581 3.81054H5.93C5.86527 3.81054 5.81278 3.75825 5.81278 3.69335C5.81282 3.62866 5.86527 3.57617 5.92996 3.57617H6.27582C6.53115 3.57617 6.73884 3.77128 6.73884 4.01072C6.73887 4.25038 6.53113 4.44527 6.27582 4.44527ZM4.96018 10.1614C4.51731 10.1611 4.07397 10.161 3.63088 10.161C3.56621 10.161 3.5137 10.1087 3.5137 10.0438C3.51371 9.96463 3.51227 9.88366 3.51064 9.80533C3.49865 9.17487 3.48501 8.46018 4.37445 8.33079C5.61016 8.11148 6.40946 7.80673 7.05173 7.56199C8.50676 7.00721 9.23708 6.7287 12.413 8.26651C12.4535 8.28603 12.4791 8.32693 12.4791 8.37189C12.4791 8.43638 12.4816 8.53159 12.4842 8.64185C12.4944 9.05809 12.5001 9.41533 12.4655 9.56853C12.4263 9.7443 12.2468 10.153 11.4345 10.153L11.0402 10.1548C11.04 10.1548 11.0404 10.1548 11.0402 10.1548C10.9758 10.1548 10.9226 10.1028 10.9224 10.0381C10.9222 9.97337 10.9745 9.92069 11.0392 9.92048L11.4339 9.91865C12.0543 9.91865 12.2033 9.6672 12.2368 9.51726C12.2678 9.37953 12.257 8.93908 12.2498 8.64755C12.248 8.57187 12.2464 8.5031 12.2456 8.44574C9.21699 6.98747 8.56066 7.2375 7.13514 7.78089C6.48335 8.0295 5.6722 8.33873 4.41351 8.5619C4.4123 8.5621 4.41107 8.56231 4.40984 8.56251C3.7564 8.65691 3.73157 9.09451 3.745 9.80086C3.74583 9.84215 3.74663 9.88427 3.74724 9.92658C4.15148 9.92679 4.55571 9.92679 4.96015 9.92699C5.02485 9.92699 5.07733 9.97948 5.07733 10.0442C5.07735 10.1089 5.02485 10.1614 4.96018 10.1614ZM6.85725 10.1618C6.66829 10.1618 6.48373 10.1618 6.30511 10.1618C6.24044 10.1618 6.18793 10.1093 6.18793 10.0446C6.18793 9.97988 6.24041 9.92739 6.30511 9.92739C7.3148 9.9276 8.50694 9.92739 9.69443 9.92475C9.75918 9.92475 9.81181 9.97704 9.81181 10.0415C9.81205 10.1064 9.75973 10.1589 9.69504 10.1591C8.71755 10.1614 7.73672 10.1618 6.85725 10.1618Z" fill="white"/>
<path fill-rule="evenodd" clip-rule="evenodd" d="M7.123 8.356L10.7774 8.36028C10.4142 8.19671 9.99026 8.02725 9.57951 7.92369C9.35718 7.86775 9.15859 7.83723 8.97305 7.83052C8.77086 7.8232 8.57614 7.84334 8.37718 7.89217C8.02076 7.97923 7.64662 8.1365 7.2849 8.28827C7.2312 8.31084 7.17728 8.33343 7.123 8.356ZM11.2996 8.59525L6.49799 8.58976C6.44063 8.58976 6.39179 8.54826 6.38243 8.49171C6.37311 8.43535 6.40603 8.38022 6.46014 8.36171C6.70163 8.27891 6.95207 8.17393 7.19416 8.07221C7.56443 7.91678 7.9471 7.75606 8.32143 7.66452C8.54175 7.6104 8.7576 7.58822 8.98139 7.59636C9.18383 7.60348 9.39824 7.63644 9.63687 7.69645C10.2655 7.85494 10.9165 8.15847 11.3515 8.37289C11.4003 8.3971 11.4261 8.45163 11.4137 8.50472C11.4014 8.55782 11.3541 8.59525 11.2996 8.59525Z" fill="white"/>
<path fill-rule="evenodd" clip-rule="evenodd" d="M8.98489 8.59215C8.92022 8.59215 8.86769 8.53966 8.86769 8.47497L8.86771 7.71288C8.86771 7.64819 8.92018 7.5957 8.98487 7.5957C9.04957 7.5957 9.10205 7.64819 9.10205 7.71289L9.10207 8.47497C9.10207 8.53966 9.04956 8.59215 8.98489 8.59215ZM3.99552 9.27673C3.87893 9.27673 3.75604 9.25863 3.62706 9.22262C3.56483 9.20532 3.52839 9.14063 3.54589 9.07838C3.56318 9.01592 3.62788 8.97951 3.69013 8.997C3.95766 9.07167 4.18896 9.05315 4.37796 8.94167C4.71225 8.74453 4.81678 8.31731 4.8178 8.31304C4.83286 8.25017 4.89592 8.21111 4.95878 8.22576C5.02168 8.24061 5.06071 8.30327 5.04605 8.36633C5.04118 8.3877 4.91952 8.89305 4.49881 9.14247C4.34807 9.23198 4.1796 9.27673 3.99552 9.27673ZM5.63239 9.48852C5.32621 9.48852 5.07718 9.73774 5.07718 10.0439C5.0772 10.3501 5.32619 10.5993 5.63237 10.5993C5.93876 10.5993 6.18776 10.3501 6.18776 10.0439C6.18777 9.73773 5.93875 9.48852 5.63239 9.48852ZM5.63239 10.8337C5.19703 10.8337 4.84281 10.4793 4.84281 10.0439C4.84284 9.60855 5.197 9.25416 5.63237 9.25416C6.06798 9.25416 6.42212 9.60855 6.42212 10.0439C6.42213 10.4793 6.06794 10.8337 5.63239 10.8337ZM10.3671 9.9194C10.2983 9.9194 10.2426 9.97535 10.2426 10.0439C10.2426 10.1125 10.2983 10.1684 10.3671 10.1684C10.4356 10.1684 10.4916 10.1125 10.4916 10.0439C10.4916 9.97535 10.4356 9.9194 10.3671 9.9194ZM10.3671 10.4028C10.1691 10.4028 10.0082 10.2419 10.0082 10.0439C10.0082 9.84596 10.1691 9.68503 10.3671 9.68503C10.5648 9.68503 10.7259 9.84596 10.7259 10.0439C10.726 10.2419 10.5648 10.4028 10.3671 10.4028Z" fill="white"/>
<path fill-rule="evenodd" clip-rule="evenodd" d="M5.63262 9.91936C5.56404 9.91936 5.50829 9.97531 5.50829 10.0439C5.50829 10.1124 5.56403 10.1684 5.63259 10.1684C5.70137 10.1684 5.7571 10.1124 5.7571 10.0439C5.75712 9.97531 5.70136 9.91936 5.63262 9.91936ZM5.63262 10.4027C5.43487 10.4027 5.27393 10.2418 5.27393 10.0439C5.27393 9.84592 5.43485 9.685 5.63259 9.685C5.83054 9.685 5.99146 9.84592 5.99146 10.0439C5.99148 10.2418 5.83053 10.4027 5.63262 10.4027ZM10.3673 9.48849C10.0611 9.48849 9.81188 9.73771 9.81188 10.0439C9.81189 10.3501 10.0611 10.5993 10.3673 10.5993C10.6735 10.5993 10.9225 10.3501 10.9225 10.0439C10.9225 9.7377 10.6735 9.48849 10.3673 9.48849ZM10.3673 10.8336C9.93173 10.8336 9.57752 10.4792 9.57752 10.0439C9.57753 9.60852 9.93171 9.25412 10.3673 9.25412C10.8027 9.25412 11.1568 9.60852 11.1568 10.0439C11.1568 10.4792 10.8026 10.8336 10.3673 10.8336ZM12.3703 9.47872H11.7967C11.732 9.47872 11.6795 9.42623 11.6795 9.36153L11.6795 8.7921C11.6795 8.7274 11.732 8.67492 11.7966 8.67492H12.3706C12.4353 8.67492 12.4877 8.72741 12.4877 8.79211C12.4878 8.8568 12.4352 8.90929 12.3706 8.90929L11.9138 8.90928V9.24435H12.3703C12.4351 9.24435 12.4875 9.29684 12.4875 9.36153C12.4875 9.42623 12.435 9.47872 12.3703 9.47872ZM6.54036 7.99421C6.47569 7.99421 6.42317 7.94173 6.42317 7.87703L6.42318 5.47949C6.42318 5.41479 6.47566 5.36231 6.54035 5.36231C6.60505 5.36231 6.65753 5.4148 6.65753 5.47949L6.65755 7.87703C6.65755 7.94173 6.60505 7.99421 6.54036 7.99421ZM6.01144 8.17182C5.94672 8.17182 5.89422 8.11934 5.89422 8.05464L5.89426 5.47949C5.89426 5.41479 5.94671 5.3623 6.0114 5.3623C6.07612 5.3623 6.12859 5.41479 6.12859 5.47949L6.12863 8.05464C6.12863 8.11934 6.0761 8.17183 6.01144 8.17182Z" fill="white"/>
<path fill-rule="evenodd" clip-rule="evenodd" d="M5.04006 5.3622H7.51146V3.3994H5.04006V5.3622ZM7.62864 5.59656H4.92288C4.85797 5.59656 4.80566 5.54407 4.80566 5.47938L4.8057 3.28222C4.8057 3.21752 4.85795 3.16504 4.92285 3.16504H7.62863C7.69331 3.16504 7.74578 3.21753 7.74578 3.28222L7.74581 5.47938C7.74581 5.54407 7.69331 5.59656 7.62864 5.59656Z" fill="white"/>
</g>
<defs>
<linearGradient id="paint0_linear_1032_1151" x1="10.8088" y1="2.1875" x2="2.06928" y2="12.3224" gradientUnits="userSpaceOnUse">
<stop stop-color="#4959EE"/>
<stop offset="0.547509" stop-color="#0B2749"/>
<stop offset="1" stop-color="#0B2749"/>
</linearGradient>
<clipPath id="clip0_1032_1151">
<rect width="10" height="10" fill="white" transform="translate(3 2)"/>
</clipPath>
</defs>
</svg>
