<svg width="20" height="20" viewBox="0 0 20 20" fill="none" xmlns="http://www.w3.org/2000/svg">
<g clip-path="url(#clip0_1065_5366)">
<g clip-path="url(#clip1_1065_5366)">
<path d="M7.34776 7.5275V7.79844C7.34776 7.95781 7.47636 8.08734 7.63433 8.08734C7.79229 8.08734 7.92089 7.95781 7.92089 7.79844V7.51656C8.35651 7.40562 8.67573 7.04937 8.71964 6.62109C8.76355 6.19297 8.52104 5.63094 7.69308 5.45609C7.31292 5.37594 7.09308 5.16922 7.11901 4.91625C7.14026 4.71062 7.32401 4.5025 7.63417 4.5025C8.01589 4.5025 8.21542 4.69516 8.27011 4.85984C8.29417 4.93313 8.34526 4.9925 8.41386 5.02688C8.48214 5.06141 8.55995 5.06672 8.63276 5.04234C8.70542 5.01797 8.76417 4.96656 8.79855 4.8975C8.83276 4.82844 8.83823 4.75 8.81401 4.67672C8.7173 4.38562 8.43261 4.04563 7.92104 3.95047V3.67969C7.92104 3.52031 7.79245 3.39062 7.63448 3.39062C7.47651 3.39062 7.34792 3.52031 7.34792 3.67969V3.96141C6.91229 4.0725 6.59308 4.42875 6.54917 4.85687C6.50511 5.28516 6.74761 5.84719 7.57573 6.02203C7.95573 6.10219 8.17558 6.30891 8.1498 6.56172C8.12855 6.76734 7.94464 6.97547 7.63448 6.97547C7.25276 6.97547 7.05323 6.78281 6.99854 6.61812C6.97433 6.54469 6.92308 6.48531 6.85433 6.45078C6.78558 6.41625 6.70808 6.41109 6.63589 6.43562C6.56323 6.46016 6.50433 6.51156 6.47011 6.58078C6.43589 6.64984 6.43058 6.72812 6.4548 6.80125C6.55136 7.09234 6.8362 7.43234 7.34776 7.5275ZM9.39933 10.4795C9.33776 10.4352 9.25854 10.4236 9.18714 10.4483L5.9298 11.5745C5.83511 11.6073 5.77151 11.6972 5.77151 11.798V19.4511C5.77151 19.5816 5.87636 19.6873 6.00589 19.6873H9.26323C9.39276 19.6873 9.49761 19.5816 9.49761 19.4511V10.6717C9.49745 10.5955 9.46089 10.5237 9.39933 10.4795ZM4.34339 12.6194C4.28183 12.575 4.20276 12.5633 4.1312 12.5881L0.873857 13.7144C0.77917 13.7472 0.715576 13.837 0.715576 13.9378V19.4511C0.715576 19.5816 0.82042 19.6873 0.949951 19.6873H4.20729C4.33683 19.6873 4.44167 19.5816 4.44167 19.4511V12.8117C4.44151 12.7353 4.40495 12.6637 4.34339 12.6194ZM14.4553 8.17062C14.3937 8.12625 14.3146 8.11469 14.2431 8.13937L10.9857 9.26562C10.891 9.29844 10.8275 9.38828 10.8275 9.48906V19.4509C10.8275 19.5814 10.9323 19.6872 11.0618 19.6872H14.3192C14.4487 19.6872 14.5535 19.5814 14.5535 19.4509V8.36297C14.5534 8.28672 14.5168 8.215 14.4553 8.17062ZM19.5112 5.86187C19.4496 5.8175 19.3706 5.80578 19.299 5.83063L16.0417 6.95703C15.947 6.98984 15.8834 7.07969 15.8834 7.18047V19.4511C15.8834 19.5816 15.9882 19.6873 16.1178 19.6873H19.375C19.5045 19.6873 19.6093 19.5816 19.6093 19.4511V6.05422C19.6093 5.97781 19.5728 5.90609 19.5112 5.86187Z" fill="white"/>
<path d="M17.2533 4.22821C17.5908 3.98462 17.8787 3.77305 18.121 3.59087L17.9029 4.66962C17.8821 4.77274 17.9022 4.87774 17.9597 4.96555C18.0174 5.05337 18.1054 5.11321 18.2077 5.1343C18.2338 5.13962 18.2601 5.14212 18.2858 5.14212C18.4705 5.14212 18.6313 5.00962 18.6683 4.82712L19.0946 2.71962C19.1151 2.6179 19.0944 2.51009 19.0374 2.42337C18.9797 2.33571 18.8915 2.27587 18.789 2.25493L16.7057 1.83165C16.4944 1.78837 16.2883 1.92774 16.2462 2.13977C16.2035 2.35274 16.3405 2.56087 16.5518 2.60384L17.7777 2.8529C15.488 4.5743 7.41334 10.3016 0.588497 10.9502C0.484591 10.9601 0.390685 11.0101 0.324122 11.0912C0.25756 11.1724 0.22631 11.2746 0.236154 11.3793C0.255216 11.5827 0.422247 11.7362 0.624747 11.7362C0.637404 11.7362 0.65006 11.7356 0.661622 11.7343C5.01272 11.321 9.74787 8.95946 12.9541 7.05118C14.7768 5.96649 16.298 4.91727 17.2533 4.22821ZM0.729591 4.24774H1.85803V6.39415C1.85803 6.49618 1.92287 6.58665 2.01897 6.61852C2.04318 6.62649 2.06787 6.6304 2.0924 6.6304C2.16522 6.6304 2.23568 6.59602 2.28068 6.53477L4.82631 3.07118C4.87897 2.99946 4.88725 2.90399 4.8474 2.8243C4.80756 2.74462 4.72662 2.6943 4.63803 2.6943H3.50459V0.548679C3.50459 0.446648 3.43959 0.356179 3.34365 0.324304C3.24756 0.292586 3.14209 0.326179 3.08178 0.408367L0.541154 3.87102C0.488497 3.94274 0.480529 4.03821 0.520372 4.11774C0.56006 4.19759 0.641154 4.24774 0.729591 4.24774Z" fill="white"/>
</g>
</g>
<defs>
<clipPath id="clip0_1065_5366">
<rect width="20" height="20" fill="white"/>
</clipPath>
<clipPath id="clip1_1065_5366">
<rect width="20" height="20" fill="white"/>
</clipPath>
</defs>
</svg>
