<svg width="33" height="31" viewBox="0 0 33 31" fill="none" xmlns="http://www.w3.org/2000/svg">
<ellipse cx="16.5" cy="15.5" rx="16.5" ry="15.5" fill="url(#paint0_linear_1032_1094)"/>
<path d="M21 10.625C19.8557 10.6239 18.757 11.0728 17.9409 11.875H17.0766C16.86 11.5031 16.4613 11.25 16 11.25C15.5384 11.25 15.14 11.5031 14.9234 11.875H14.0591C13.243 11.0728 12.1443 10.6239 11 10.625C8.58312 10.625 6.625 12.5847 6.625 15C6.625 17.4153 8.58312 19.375 11 19.375C13.4169 19.375 15.375 17.4153 15.375 15H16.625C16.625 17.4153 18.5831 19.375 21 19.375C23.4169 19.375 25.375 17.4153 25.375 15C25.375 12.5847 23.4169 10.625 21 10.625ZM11 18.125C9.27688 18.125 7.875 16.7231 7.875 15C7.875 13.2769 9.27688 11.875 11 11.875C12.7231 11.875 14.125 13.2769 14.125 15C14.125 16.7231 12.7231 18.125 11 18.125ZM21 18.125C19.2769 18.125 17.875 16.7231 17.875 15C17.875 13.2769 19.2769 11.875 21 11.875C22.7231 11.875 24.125 13.2769 24.125 15C24.125 16.7231 22.7231 18.125 21 18.125Z" fill="white"/>
<defs>
<linearGradient id="paint0_linear_1032_1094" x1="23.7794" y1="4.84375" x2="4.40955" y2="27.1614" gradientUnits="userSpaceOnUse">
<stop stop-color="#4959EE"/>
<stop offset="0.547509" stop-color="#0B2749"/>
<stop offset="1" stop-color="#0B2749"/>
</linearGradient>
</defs>
</svg>
