<svg width="141" height="139" viewBox="0 0 141 139" fill="none" xmlns="http://www.w3.org/2000/svg">
<path fill-rule="evenodd" clip-rule="evenodd" d="M23.2375 45.9572C33.6293 61.112 79.5709 58.8556 82.2424 57.9901C84.9118 57.1246 78.4459 53.3153 76.9529 51.0494C54.5326 45.3522 39.8105 43.7746 28.1029 33.3936C22.7394 28.6381 18.3049 38.7639 23.2375 45.9572Z" fill="#FBB017"/>
<path fill-rule="evenodd" clip-rule="evenodd" d="M20.1844 93.4143C38.5245 94.5558 65.0308 56.964 65.9937 54.3261C66.9552 51.6896 64.3806 50.1256 61.6761 49.9067C43.3834 64.0669 28.668 79.0109 13.2795 81.8455C6.23032 83.1444 11.4793 92.8727 20.1844 93.4143Z" fill="#009B95"/>
<path fill-rule="evenodd" clip-rule="evenodd" d="M54.7421 124.789C66.933 111.04 53.629 67.0084 52.1433 64.6257C50.6575 62.2448 48.4809 63.11 46.6437 65.1069C46.5398 88.2395 48.6153 109.236 41.3748 123.108C38.058 129.462 48.9558 131.315 54.7421 124.789Z" fill="#1F61AD"/>
<path fill-rule="evenodd" clip-rule="evenodd" d="M101.475 117.027C98.1461 98.9553 55.2584 82.3307 52.4661 82.0348C49.675 81.7398 48.6767 84.0605 49.1188 86.7376C67.2838 101.061 85.4479 112.28 91.9208 126.526C94.8861 133.051 103.056 125.604 101.475 117.027Z" fill="#5F439A"/>
<path fill-rule="evenodd" clip-rule="evenodd" d="M124.648 75.4797C108.358 66.9774 68.8536 90.5385 66.9012 92.5564C64.9502 94.574 66.5164 96.7872 68.898 98.0867C91.3688 92.5916 111.04 85.1872 126.251 88.8568C133.219 90.5376 132.381 79.515 124.648 75.4797Z" fill="#AF3862"/>
<path fill-rule="evenodd" clip-rule="evenodd" d="M106.095 32.0582C89.3653 39.6604 83.6103 85.2959 83.9985 88.0771C84.3872 90.8566 86.9682 91.3691 89.4587 90.2926C98.9631 69.2021 105.367 48.7583 117.623 39.0311C123.237 34.5752 114.035 28.4495 106.095 32.0582Z" fill="#ED2F24"/>
<path fill-rule="evenodd" clip-rule="evenodd" d="M60.6158 20.6609C56.3067 38.524 88.7249 71.1552 91.1553 72.5614C93.585 73.9662 96.4534 72.6067 97.1384 69.9813C86.3699 49.5074 73.327 31.5164 73.2078 15.8695C73.1532 8.70188 62.661 12.182 60.6158 20.6609Z" fill="#F47E20"/>
<path fill-rule="evenodd" clip-rule="evenodd" d="M71.7067 50.1212C69.9538 56.3185 72.6252 56.7514 73.698 58.6596C77.0592 63.0179 85.9056 59.5804 87.1942 59.0488C87.427 58.9666 87.669 58.8804 87.8793 58.8047C89.8997 58.0801 91.2039 56.3796 90.7659 55.1606C90.5311 54.5063 89.8474 54.0903 88.9532 53.9543C89.9053 53.1457 90.3899 52.1208 90.098 51.308C89.8155 50.5207 88.8843 50.0777 87.7169 50.055C88.5502 49.2735 88.9555 48.3259 88.6823 47.5652C88.3228 46.5629 86.9133 46.115 85.3022 46.3887C85.8239 45.7548 86.049 45.0542 85.8396 44.4721C85.4368 43.3489 83.6019 42.9794 81.7409 43.6478C81.0459 43.8968 80.4462 44.2558 79.9879 44.6656C77.4081 45.0161 72.8753 45.9885 71.7067 50.1212Z" fill="#FBB017"/>
<path fill-rule="evenodd" clip-rule="evenodd" d="M91.2135 60.4478C84.9696 62.0268 85.9293 64.5567 84.8125 66.4397C82.7174 71.5291 90.1155 77.4738 91.22 78.3242C91.4074 78.4846 91.6029 78.6509 91.7741 78.7955C93.4114 80.1837 95.5357 80.4636 96.373 79.4748C96.8223 78.9445 96.841 78.144 96.512 77.3021C97.6882 77.7223 98.818 77.6297 99.376 76.9708C99.9169 76.3325 99.8352 75.3043 99.2716 74.2822C100.365 74.6137 101.388 74.4911 101.911 73.8746C102.599 73.0618 102.283 71.6174 101.24 70.3582C102.05 70.494 102.77 70.3385 103.169 69.8663C103.941 68.9562 103.344 67.1819 101.835 65.9043C101.272 65.4266 100.661 65.0867 100.077 64.894C98.4846 62.8349 95.377 59.3949 91.2135 60.4478Z" fill="#F47E20"/>
<path fill-rule="evenodd" clip-rule="evenodd" d="M93.156 80.3005C87.9835 76.4634 86.6313 78.8073 84.4662 79.1333C79.1987 80.7297 79.2739 90.2199 79.3144 91.6134C79.3084 91.8598 79.3033 92.1166 79.2993 92.3405C79.26 94.4868 80.3865 96.3092 81.6821 96.3321C82.3771 96.3451 83.0089 95.8532 83.4529 95.0654C83.8712 96.2426 84.6573 97.059 85.5212 97.0745C86.3573 97.0896 87.1021 96.3763 87.5375 95.2931C87.9724 96.3497 88.7144 97.0646 89.5223 97.0792C90.5877 97.0986 91.5057 95.9397 91.822 94.3362C92.2292 95.049 92.8046 95.508 93.4232 95.5189C94.6161 95.5406 95.6128 93.9563 95.6479 91.9791C95.662 91.2413 95.5387 90.5528 95.3189 89.9788C95.9059 87.4425 96.6048 82.8597 93.156 80.3005Z" fill="#ED2F24"/>
<path fill-rule="evenodd" clip-rule="evenodd" d="M78.7335 96.0807C77.9987 89.6823 75.3638 90.2972 73.6459 88.9401C68.8805 86.1865 62.0048 92.7281 61.015 93.7095C60.8309 93.8738 60.64 94.0459 60.4743 94.1958C58.8805 95.6339 58.3206 97.7025 59.1892 98.6638C59.6549 99.1797 60.4457 99.3046 61.3241 99.0904C60.751 100.201 60.6925 101.332 61.2714 101.973C61.8315 102.594 62.8615 102.65 63.9496 102.227C63.4757 103.268 63.4609 104.297 64.0028 104.897C64.7167 105.688 66.19 105.566 67.577 104.701C67.3352 105.486 67.3928 106.219 67.8077 106.678C68.6072 107.563 70.4451 107.208 71.9124 105.883C72.4607 105.388 72.8788 104.828 73.1476 104.275C75.4001 102.97 79.2228 100.348 78.7335 96.0807Z" fill="#AF3862"/>
<path fill-rule="evenodd" clip-rule="evenodd" d="M58.4395 93.9092C63.4116 89.8155 61.4633 87.9376 61.669 85.7582C61.3914 80.261 52.1635 78.0439 50.8013 77.7464C50.5634 77.6814 50.3154 77.6145 50.0993 77.5567C48.0261 77.0007 45.9853 77.6543 45.6506 78.9059C45.4703 79.5771 45.7952 80.3091 46.4524 80.9301C45.2091 81.0518 44.2273 81.6181 44.004 82.4519C43.787 83.2601 44.2997 84.1552 45.2459 84.8388C44.1153 85.0059 43.2428 85.553 43.0335 86.3343C42.7579 87.3629 43.6607 88.5341 45.1409 89.2277C44.3506 89.4509 43.7664 89.8979 43.6065 90.496C43.2974 91.6486 44.5944 92.9981 46.5045 93.5092C47.2175 93.7005 47.9151 93.7472 48.5254 93.6725C50.8448 94.8547 55.1237 96.6387 58.4395 93.9092Z" fill="#5F439A"/>
<path fill-rule="evenodd" clip-rule="evenodd" d="M47.6864 75.7777C54.0989 76.3788 54.0406 73.6731 55.7226 72.272C59.4002 68.177 54.4168 60.1001 53.6605 58.929C53.5374 58.715 53.409 58.4931 53.2963 58.2994C52.2175 56.4437 50.3093 55.4688 49.1897 56.121C48.5887 56.4699 48.3032 57.2185 48.3319 58.1215C47.3643 57.3319 46.2686 57.0416 45.5223 57.4756C44.7991 57.896 44.5316 58.8924 44.7209 60.0443C43.801 59.3658 42.7964 59.1393 42.0975 59.5458C41.1769 60.0811 40.9921 61.5481 41.5529 63.0837C40.835 62.685 40.1053 62.5904 39.5706 62.902C38.539 63.5017 38.5075 65.3732 39.5024 67.0817C39.873 67.7205 40.3348 68.2452 40.8209 68.6223C41.6325 71.0955 43.4105 75.3773 47.6864 75.7777Z" fill="#1F61AD"/>
<path fill-rule="evenodd" clip-rule="evenodd" d="M77.9836 50.9622C71.5505 49.3274 65.7539 48.0321 60.4778 46.7705C64.7961 49.9421 68.9438 53.76 70.9279 58.5491C77.5882 58.5623 82.4557 58.1676 83.2731 57.9027C85.9425 57.0372 79.4766 53.2279 77.9836 50.9622Z" fill="#FBB017"/>
<path fill-rule="evenodd" clip-rule="evenodd" d="M56.4456 57.1274C60.9934 61.6874 62.6772 59.5694 64.8668 59.5668C70.3127 58.7675 71.642 49.3705 71.8084 47.9863C71.8505 47.7431 71.8935 47.4905 71.9303 47.2695C72.2866 45.1526 71.4421 43.1833 70.1641 42.9691C69.4791 42.8534 68.7811 43.2464 68.2256 43.9597C67.9859 42.734 67.3291 41.81 66.4775 41.6672C65.6524 41.5279 64.8101 42.1237 64.2194 43.1305C63.9457 42.0212 63.318 41.2043 62.5208 41.0703C61.4707 40.8936 60.3907 41.9039 59.8412 43.4431C59.5437 42.6778 59.0426 42.1389 58.4325 42.0369C57.2558 41.8384 56.0354 43.258 55.7087 45.2081C55.5856 45.9364 55.6053 46.6349 55.7383 47.2353C54.7817 49.6569 53.4127 54.086 56.4456 57.1274Z" fill="#009B95"/>
<path d="M29.3018 108.009L11.5674 85.5516L17.5054 60.0973" stroke="#009B95" stroke-width="23" stroke-miterlimit="10" stroke-linejoin="round"/>
<path d="M72.6927 126.588L43.8647 126.451L29.3018 108.009" stroke="#1F61AD" stroke-width="23" stroke-miterlimit="10" stroke-linejoin="round"/>
<path d="M113.57 104.855L95.978 126.7L72.6926 126.588" stroke="#5F439A" stroke-width="23" stroke-miterlimit="10" stroke-linejoin="round"/>
<path d="M122.837 60.0045L128.665 86.1113L113.57 104.855" stroke="#AF3862" stroke-width="23" stroke-miterlimit="10" stroke-linejoin="round"/>
<path d="M93.2686 23.5295L117.312 35.2501L122.837 60.0045" stroke="#ED2F24" stroke-width="23" stroke-miterlimit="10" stroke-linejoin="round"/>
<path d="M45.6155 24.2361L70.4666 12.4142L93.2685 23.5295" stroke="#F47E20" stroke-width="23" stroke-miterlimit="10" stroke-linejoin="round"/>
<path d="M17.5054 60.0973L23.4064 34.801L45.6157 24.2361" stroke="#FBB017" stroke-width="23" stroke-miterlimit="10" stroke-linejoin="round"/>
</svg>
