<svg width="25" height="25" viewBox="0 0 25 25" fill="none" xmlns="http://www.w3.org/2000/svg">
<path d="M23.4375 7.85244H20.4609C20.2537 7.85244 20.055 7.93475 19.9085 8.08126C19.762 8.22778 19.6797 8.42649 19.6797 8.63369V9.25088H18.3672L16.1562 7.03213C15.7535 6.6282 15.2749 6.30771 14.7481 6.08904C14.2212 5.87037 13.6564 5.75781 13.0859 5.75781C12.5155 5.75781 11.9507 5.87037 11.4238 6.08904C10.8969 6.30771 10.4184 6.6282 10.0156 7.03213L8.1875 8.86025H1.5625C1.3553 8.86025 1.15659 8.94256 1.01007 9.08908C0.86356 9.23559 0.78125 9.4343 0.78125 9.6415V13.2821V18.3993C0.78125 18.6065 0.86356 18.8052 1.01007 18.9517C1.15659 19.0983 1.3553 19.1806 1.5625 19.1806H14.8906C15.0978 19.1806 15.2965 19.0983 15.4431 18.9517C15.5896 18.8052 15.6719 18.6065 15.6719 18.3993V15.4306H16.8516C17.1415 15.7696 17.5007 16.0426 17.905 16.2313C18.3092 16.4199 18.7492 16.5199 19.1953 16.5243H19.6484V17.1493C19.6484 17.3565 19.7307 17.5552 19.8773 17.7017C20.0238 17.8483 20.2225 17.9306 20.4297 17.9306H23.4375C23.6447 17.9306 23.8434 17.8483 23.9899 17.7017C24.1364 17.5552 24.2188 17.3565 24.2188 17.1493V8.63369C24.2188 8.42649 24.1364 8.22778 23.9899 8.08126C23.8434 7.93475 23.6447 7.85244 23.4375 7.85244ZM8.49219 10.4384H14.1172V11.6728H12.0859C11.7739 11.6759 11.4676 11.7568 11.1947 11.9082C10.9219 12.0597 10.6911 12.2768 10.5234 12.5399H2.34375V10.4384H8.49219ZM14.1172 17.6649H2.34375V14.0634H10.2891C10.4046 14.4484 10.6409 14.7861 10.9631 15.0267C11.2852 15.2672 11.6761 15.3979 12.0781 15.3993H14.1094L14.1172 17.6649ZM19.2344 14.9618C18.9709 14.9619 18.7117 14.8953 18.4808 14.7682C18.25 14.6412 18.055 14.4579 17.9141 14.2353C17.8437 14.1227 17.7458 14.0299 17.6296 13.9656C17.5134 13.9014 17.3828 13.8678 17.25 13.8681H12.0781C12.0324 13.8753 11.9857 13.8725 11.9411 13.8599C11.8966 13.8473 11.8553 13.8252 11.8201 13.7951C11.785 13.7651 11.7567 13.7277 11.7373 13.6857C11.718 13.6437 11.7079 13.5979 11.7079 13.5517C11.7079 13.5054 11.718 13.4596 11.7373 13.4176C11.7567 13.3756 11.785 13.3382 11.8201 13.3082C11.8553 13.2781 11.8966 13.256 11.9411 13.2434C11.9857 13.2308 12.0324 13.228 12.0781 13.2353H17.2422C17.4494 13.2353 17.6481 13.1529 17.7946 13.0064C17.9411 12.8599 18.0234 12.6612 18.0234 12.454C18.0234 12.2468 17.9411 12.0481 17.7946 11.9016C17.6481 11.7551 17.4494 11.6728 17.2422 11.6728H15.6797V9.65713C15.6797 9.44993 15.5974 9.25121 15.4509 9.1047C15.3044 8.95819 15.1056 8.87588 14.8984 8.87588H10.4062L11.125 8.15713C11.6529 7.65825 12.3518 7.38031 13.0781 7.38031C13.8045 7.38031 14.5033 7.65825 15.0312 8.15713L17.4688 10.5946C17.5417 10.667 17.6283 10.7243 17.7235 10.7632C17.8187 10.8021 17.9206 10.8218 18.0234 10.8212H19.6641V14.9696L19.2344 14.9618ZM22.6562 16.3681H21.2422V9.41494H22.6562V16.3681Z" fill="white"/>
</svg>
