<svg width="33" height="31" viewBox="0 0 33 31" fill="none" xmlns="http://www.w3.org/2000/svg">
<ellipse cx="16.5" cy="15.5" rx="16.5" ry="15.5" fill="url(#paint0_linear_1032_1109)"/>
<path d="M19.4186 9.25C21.5442 9.25 22.7442 10.4556 22.7505 12.5812V18.4187C22.7505 20.5437 21.5442 21.75 19.4186 21.75H13.5817C11.4561 21.75 10.2505 20.5437 10.2505 18.4187V12.5812C10.2505 10.4556 11.4561 9.25 13.5817 9.25H19.4186ZM16.813 11.8313C16.6374 11.725 16.4249 11.725 16.2567 11.8313C16.0874 11.9369 15.9942 12.1313 16.0124 12.325V18.6938C16.0442 18.9625 16.2686 19.1625 16.5311 19.1625C16.8005 19.1625 17.0249 18.9625 17.0499 18.6938V12.325C17.0749 12.1313 16.9817 11.9369 16.813 11.8313ZM13.8942 13.8812C13.7255 13.775 13.5124 13.775 13.3442 13.8812C13.1749 13.9875 13.0817 14.1806 13.1005 14.375V18.6938C13.1249 18.9625 13.3499 19.1625 13.6186 19.1625C13.888 19.1625 14.1124 18.9625 14.1374 18.6938V14.375C14.1567 14.1806 14.0624 13.9875 13.8942 13.8812ZM19.6811 16.15C19.513 16.0437 19.3005 16.0437 19.1255 16.15C18.9561 16.2562 18.863 16.4431 18.888 16.6438V18.6938C18.913 18.9625 19.1374 19.1625 19.4067 19.1625C19.6692 19.1625 19.8936 18.9625 19.9255 18.6938V16.6438C19.9436 16.4431 19.8505 16.2562 19.6811 16.15Z" fill="white"/>
<defs>
<linearGradient id="paint0_linear_1032_1109" x1="23.7794" y1="4.84375" x2="4.40955" y2="27.1614" gradientUnits="userSpaceOnUse">
<stop stop-color="#4959EE"/>
<stop offset="0.547509" stop-color="#0B2749"/>
<stop offset="1" stop-color="#0B2749"/>
</linearGradient>
</defs>
</svg>
