<svg width="53" height="52" viewBox="0 0 53 52" fill="none" xmlns="http://www.w3.org/2000/svg">
<path fill-rule="evenodd" clip-rule="evenodd" d="M15.282 20.4188C17.8585 24.1762 29.249 23.6167 29.9114 23.4021C30.5732 23.1875 28.9701 22.2431 28.5999 21.6813C23.0412 20.2688 19.391 19.8776 16.4883 17.3038C15.1585 16.1248 14.0591 18.6353 15.282 20.4188Z" fill="#FBB017"/>
<path fill-rule="evenodd" clip-rule="evenodd" d="M14.525 32.1854C19.0722 32.4684 25.644 23.1482 25.8827 22.4941C26.1211 21.8405 25.4828 21.4527 24.8122 21.3984C20.2769 24.9092 16.6284 28.6144 12.8131 29.3171C11.0654 29.6392 12.3668 32.0511 14.525 32.1854Z" fill="#009B95"/>
<path fill-rule="evenodd" clip-rule="evenodd" d="M23.0931 39.9646C26.1156 36.5557 22.8171 25.6389 22.4487 25.0482C22.0804 24.4579 21.5407 24.6724 21.0852 25.1675C21.0594 30.9028 21.574 36.1087 19.7789 39.5479C18.9565 41.1233 21.6585 41.5827 23.0931 39.9646Z" fill="#1F61AD"/>
<path fill-rule="evenodd" clip-rule="evenodd" d="M34.6798 38.0394C33.8544 33.5589 23.221 29.4371 22.5287 29.3637C21.8367 29.2906 21.5892 29.866 21.6988 30.5297C26.2026 34.081 30.706 36.8625 32.3109 40.3945C33.0461 42.0124 35.0717 40.1661 34.6798 38.0394Z" fill="#5F439A"/>
<path fill-rule="evenodd" clip-rule="evenodd" d="M40.4251 27.7382C36.3863 25.6302 26.5918 31.4718 26.1077 31.9721C25.624 32.4723 26.0123 33.021 26.6028 33.3432C32.174 31.9808 37.0512 30.145 40.8225 31.0548C42.5501 31.4715 42.3423 28.7387 40.4251 27.7382Z" fill="#AF3862"/>
<path fill-rule="evenodd" clip-rule="evenodd" d="M35.8251 16.9737C31.6774 18.8585 30.2505 30.1731 30.3467 30.8627C30.4431 31.5518 31.083 31.6788 31.7005 31.4119C34.057 26.1829 35.6446 21.1142 38.6833 18.7025C40.0754 17.5977 37.7938 16.079 35.8251 16.9737Z" fill="#ED2F24"/>
<path fill-rule="evenodd" clip-rule="evenodd" d="M24.5494 14.1473C23.481 18.5762 31.5186 26.6666 32.1212 27.0152C32.7236 27.3635 33.4347 27.0265 33.6046 26.3755C30.9347 21.2994 27.7009 16.8388 27.6714 12.9594C27.6578 11.1823 25.0564 12.0451 24.5494 14.1473Z" fill="#F47E20"/>
<path fill-rule="evenodd" clip-rule="evenodd" d="M27.2992 21.4512C26.8645 22.9877 27.5269 23.0951 27.7929 23.5682C28.6262 24.6487 30.8195 23.7965 31.139 23.6647C31.1967 23.6443 31.2567 23.6229 31.3089 23.6041C31.8098 23.4245 32.1332 23.0029 32.0246 22.7006C31.9664 22.5384 31.7969 22.4353 31.5752 22.4016C31.8112 22.2011 31.9314 21.947 31.859 21.7455C31.7889 21.5503 31.5581 21.4404 31.2686 21.4348C31.4752 21.241 31.5757 21.0061 31.508 20.8175C31.4188 20.569 31.0694 20.4579 30.6699 20.5258C30.7993 20.3686 30.8551 20.1949 30.8032 20.0506C30.7033 19.7721 30.2484 19.6805 29.787 19.8462C29.6147 19.908 29.466 19.997 29.3524 20.0986C28.7127 20.1855 27.5889 20.4266 27.2992 21.4512Z" fill="#FBB017"/>
<path fill-rule="evenodd" clip-rule="evenodd" d="M32.1356 24.0114C30.5875 24.4029 30.8254 25.0302 30.5486 25.497C30.0291 26.7589 31.8633 28.2328 32.1372 28.4436C32.1836 28.4834 32.2321 28.5246 32.2746 28.5605C32.6805 28.9046 33.2072 28.974 33.4148 28.7289C33.5262 28.5974 33.5308 28.3989 33.4493 28.1902C33.7409 28.2944 34.021 28.2714 34.1593 28.1081C34.2934 27.9498 34.2732 27.6949 34.1335 27.4415C34.4046 27.5237 34.6582 27.4933 34.7878 27.3404C34.9585 27.1389 34.88 26.7808 34.6215 26.4686C34.8224 26.5022 35.0008 26.4637 35.0998 26.3466C35.2911 26.1209 35.1431 25.681 34.769 25.3643C34.6293 25.2458 34.478 25.1616 34.3332 25.1138C33.9383 24.6033 33.1678 23.7504 32.1356 24.0114Z" fill="#F47E20"/>
<path fill-rule="evenodd" clip-rule="evenodd" d="M32.6171 28.9334C31.3347 27.9821 30.9994 28.5632 30.4627 28.644C29.1567 29.0398 29.1753 31.3928 29.1853 31.7383C29.1839 31.7993 29.1826 31.863 29.1816 31.9185C29.1719 32.4507 29.4512 32.9025 29.7724 32.9082C29.9447 32.9114 30.1013 32.7895 30.2114 32.5941C30.3151 32.886 30.51 33.0884 30.7242 33.0923C30.9315 33.096 31.1162 32.9192 31.2241 32.6506C31.332 32.9126 31.5159 33.0898 31.7162 33.0934C31.9804 33.0982 32.208 32.8109 32.2864 32.4133C32.3874 32.5901 32.53 32.7039 32.6834 32.7066C32.9791 32.712 33.2263 32.3192 33.235 31.8289C33.2385 31.646 33.2079 31.4753 33.1534 31.333C33.2989 30.7042 33.4722 29.5679 32.6171 28.9334Z" fill="#ED2F24"/>
<path fill-rule="evenodd" clip-rule="evenodd" d="M29.0414 32.847C28.8592 31.2607 28.2059 31.4131 27.78 31.0766C26.5985 30.3939 24.8938 32.0158 24.6484 32.2591C24.6027 32.2999 24.5554 32.3425 24.5143 32.3797C24.1192 32.7363 23.9803 33.2491 24.1957 33.4875C24.3111 33.6154 24.5072 33.6464 24.725 33.5932C24.5829 33.8685 24.5684 34.1491 24.7119 34.308C24.8508 34.462 25.1062 34.4758 25.3759 34.371C25.2585 34.6289 25.2548 34.8842 25.3891 35.033C25.5662 35.229 25.9314 35.1988 26.2753 34.9842C26.2154 35.1788 26.2296 35.3607 26.3325 35.4744C26.5307 35.694 26.9864 35.6059 27.3502 35.2773C27.4861 35.1547 27.5898 35.0157 27.6564 34.8786C28.2149 34.5551 29.1627 33.9049 29.0414 32.847Z" fill="#AF3862"/>
<path fill-rule="evenodd" clip-rule="evenodd" d="M24.0098 32.309C25.2425 31.294 24.7595 30.8284 24.8105 30.2881C24.7417 28.9251 22.4538 28.3754 22.116 28.3017C22.057 28.2855 21.9956 28.269 21.942 28.2546C21.428 28.1168 20.922 28.2788 20.839 28.5891C20.7943 28.7556 20.8748 28.937 21.0378 29.091C20.7295 29.1212 20.4861 29.2616 20.4307 29.4683C20.3769 29.6687 20.5041 29.8906 20.7387 30.0601C20.4583 30.1015 20.242 30.2372 20.1901 30.4309C20.1218 30.6859 20.3456 30.9763 20.7126 31.1483C20.5167 31.2036 20.3718 31.3144 20.3322 31.4627C20.2556 31.7485 20.5771 32.0831 21.0507 32.2098C21.2275 32.2572 21.4004 32.2688 21.5518 32.2503C22.1268 32.5434 23.1877 32.9857 24.0098 32.309Z" fill="#5F439A"/>
<path fill-rule="evenodd" clip-rule="evenodd" d="M21.3437 27.8125C22.9336 27.9615 22.9192 27.2906 23.3362 26.9433C24.248 25.928 23.0124 23.9254 22.8249 23.6351C22.7944 23.582 22.7626 23.527 22.7346 23.479C22.4672 23.0189 21.994 22.7772 21.7165 22.9389C21.5674 23.0254 21.4967 23.211 21.5038 23.4349C21.2639 23.2391 20.9922 23.1671 20.8072 23.2747C20.6279 23.379 20.5616 23.626 20.6085 23.9116C20.3804 23.7434 20.1314 23.6872 19.9581 23.788C19.7298 23.9207 19.684 24.2845 19.823 24.6652C19.645 24.5663 19.4641 24.5429 19.3316 24.6201C19.0758 24.7688 19.068 25.2328 19.3146 25.6564C19.4065 25.8148 19.521 25.9449 19.6415 26.0384C19.8428 26.6516 20.2836 27.7132 21.3437 27.8125Z" fill="#1F61AD"/>
<path fill-rule="evenodd" clip-rule="evenodd" d="M28.8554 21.6604C27.2604 21.255 25.8233 20.9339 24.5151 20.6211C25.5858 21.4075 26.6142 22.354 27.1061 23.5414C28.7574 23.5447 29.9642 23.4468 30.1669 23.3811C30.8287 23.1666 29.2256 22.2221 28.8554 21.6604Z" fill="#FBB017"/>
<path fill-rule="evenodd" clip-rule="evenodd" d="M23.5154 23.1892C24.643 24.3198 25.0604 23.7946 25.6033 23.794C26.9535 23.5958 27.2831 21.266 27.3244 20.9228C27.3348 20.8625 27.3455 20.7999 27.3546 20.7451C27.4429 20.2202 27.2336 19.732 26.9167 19.6789C26.7469 19.6502 26.5738 19.7476 26.4361 19.9245C26.3767 19.6206 26.2138 19.3915 26.0027 19.3561C25.7981 19.3215 25.5893 19.4693 25.4428 19.7189C25.375 19.4438 25.2193 19.2413 25.0217 19.2081C24.7613 19.1643 24.4935 19.4148 24.3573 19.7964C24.2835 19.6066 24.1593 19.473 24.008 19.4477C23.7163 19.3985 23.4137 19.7505 23.3327 20.234C23.3022 20.4146 23.3071 20.5877 23.3401 20.7366C23.1029 21.337 22.7635 22.4351 23.5154 23.1892Z" fill="#009B95"/>
<path d="M16.7855 35.8047L12.3886 30.2368L13.8608 23.9258" stroke="#009B95" stroke-width="23" stroke-miterlimit="10" stroke-linejoin="round"/>
<path d="M27.5436 40.4112L20.3962 40.3771L16.7855 35.8047" stroke="#1F61AD" stroke-width="23" stroke-miterlimit="10" stroke-linejoin="round"/>
<path d="M37.6785 35.0215L33.3168 40.4376L27.5436 40.41" stroke="#5F439A" stroke-width="23" stroke-miterlimit="10" stroke-linejoin="round"/>
<path d="M39.9762 23.9023L41.421 30.3751L37.6785 35.0223" stroke="#AF3862" stroke-width="23" stroke-miterlimit="10" stroke-linejoin="round"/>
<path d="M32.6451 14.8594L38.6062 17.7653L39.9761 23.9028" stroke="#ED2F24" stroke-width="23" stroke-miterlimit="10" stroke-linejoin="round"/>
<path d="M20.8303 15.0346L26.9917 12.1035L32.6451 14.8594" stroke="#F47E20" stroke-width="23" stroke-miterlimit="10" stroke-linejoin="round"/>
<path d="M13.8608 23.9244L15.3239 17.6526L20.8303 15.0332" stroke="#FBB017" stroke-width="23" stroke-miterlimit="10" stroke-linejoin="round"/>
</svg>
