<svg width="189" height="37" viewBox="0 0 189 37" fill="none" xmlns="http://www.w3.org/2000/svg">
<g opacity="0.4" filter="url(#filter0_b_518_3042)">
<path d="M23.8085 30.5372C23.8085 30.9039 23.5204 31.192 23.1537 31.192H0.654801C0.288113 31.192 0 30.9039 0 30.5372C0 25.1155 5.34317 20.7152 11.9043 20.7152C13.2532 20.7152 14.5628 20.8986 15.7677 21.2521C14.995 22.1689 14.5235 23.3606 14.5235 24.644C14.5235 25.6262 14.7984 26.556 15.283 27.3418C15.5449 27.7871 15.8854 28.193 16.2783 28.5335C17.195 29.3717 18.4131 29.8824 19.762 29.8824C21.2287 29.8824 22.5514 29.28 23.4943 28.3109C23.7039 29.0181 23.8085 29.7646 23.8085 30.5372Z" fill="#0B2749"/>
</g>
<g filter="url(#filter1_b_518_3042)">
<path d="M23.6514 21.1474C22.7085 20.0735 21.3072 19.4056 19.7618 19.4056C18.2951 19.4056 16.9593 20.0081 16.0033 20.9903C15.0866 21.9332 14.5234 23.2297 14.5234 24.6441C14.5234 25.6263 14.7985 26.5561 15.283 27.3418C15.5449 27.7871 15.8854 28.1931 16.2783 28.5336C17.195 29.3717 18.413 29.8825 19.7618 29.8825C21.6739 29.8825 23.3371 28.861 24.2407 27.3418C24.5157 26.8966 24.7252 26.3858 24.8431 25.862C24.9479 25.4691 25.0003 25.0631 25.0003 24.6441C25.0003 23.3083 24.4895 22.0772 23.6514 21.1474ZM21.7263 25.6001H20.7441V26.6216C20.7441 27.1585 20.2988 27.6038 19.7618 27.6038C19.2249 27.6038 18.7796 27.1585 18.7796 26.6216V25.6001H17.7974C17.2605 25.6001 16.8152 25.1548 16.8152 24.6179C16.8152 24.0809 17.2605 23.6357 17.7974 23.6357H18.7796V22.7058C18.7796 22.1689 19.2249 21.7236 19.7618 21.7236C20.2988 21.7236 20.7441 22.1689 20.7441 22.7058V23.6357H21.7263C22.2632 23.6357 22.7085 24.0809 22.7085 24.6179C22.7085 25.1548 22.2632 25.6001 21.7263 25.6001Z" fill="#0B2749"/>
</g>
<g filter="url(#filter2_b_518_3042)">
<path d="M11.9045 18.096C15.5208 18.096 18.4525 15.1644 18.4525 11.548C18.4525 7.93165 15.5208 5 11.9045 5C8.2881 5 5.35645 7.93165 5.35645 11.548C5.35645 15.1644 8.2881 18.096 11.9045 18.096Z" fill="#0B2749"/>
</g>
<g filter="url(#filter3_b_518_3042)">
<path d="M48.142 29V8H57.742C59.662 8 61.312 8.31 62.692 8.93C64.092 9.55 65.172 10.45 65.932 11.63C66.692 12.79 67.072 14.17 67.072 15.77C67.072 17.35 66.692 18.72 65.932 19.88C65.172 21.02 64.092 21.9 62.692 22.52C61.312 23.12 59.662 23.42 57.742 23.42H51.442L54.082 20.93V29H48.142ZM61.132 29L55.912 21.35H62.242L67.492 29H61.132ZM54.082 21.56L51.442 18.83H57.382C58.622 18.83 59.542 18.56 60.142 18.02C60.762 17.48 61.072 16.73 61.072 15.77C61.072 14.79 60.762 14.03 60.142 13.49C59.542 12.95 58.622 12.68 57.382 12.68H51.442L54.082 9.95V21.56ZM78.599 29.27C76.679 29.27 74.999 28.91 73.559 28.19C72.139 27.45 71.029 26.45 70.229 25.19C69.449 23.91 69.059 22.46 69.059 20.84C69.059 19.22 69.439 17.78 70.199 16.52C70.979 15.24 72.049 14.25 73.409 13.55C74.769 12.83 76.299 12.47 77.999 12.47C79.599 12.47 81.059 12.8 82.379 13.46C83.699 14.1 84.749 15.05 85.529 16.31C86.309 17.57 86.699 19.1 86.699 20.9C86.699 21.1 86.689 21.33 86.669 21.59C86.649 21.85 86.629 22.09 86.609 22.31H73.739V19.31H83.579L81.419 20.15C81.439 19.41 81.299 18.77 80.999 18.23C80.719 17.69 80.319 17.27 79.799 16.97C79.299 16.67 78.709 16.52 78.029 16.52C77.349 16.52 76.749 16.67 76.229 16.97C75.729 17.27 75.339 17.7 75.059 18.26C74.779 18.8 74.639 19.44 74.639 20.18V21.05C74.639 21.85 74.799 22.54 75.119 23.12C75.459 23.7 75.939 24.15 76.559 24.47C77.179 24.77 77.919 24.92 78.779 24.92C79.579 24.92 80.259 24.81 80.819 24.59C81.399 24.35 81.969 23.99 82.529 23.51L85.529 26.63C84.749 27.49 83.789 28.15 82.649 28.61C81.509 29.05 80.159 29.27 78.599 29.27ZM97.2771 35.09C95.7171 35.09 94.2271 34.91 92.8071 34.55C91.4071 34.19 90.2071 33.66 89.2071 32.96L91.2771 28.97C91.9571 29.51 92.7971 29.93 93.7971 30.23C94.8171 30.55 95.8071 30.71 96.7671 30.71C98.3071 30.71 99.4171 30.37 100.097 29.69C100.777 29.03 101.117 28.06 101.117 26.78V24.86L101.417 20.3L101.387 15.71V12.74H106.817V26.03C106.817 29.11 105.987 31.39 104.327 32.87C102.667 34.35 100.317 35.09 97.2771 35.09ZM96.2871 28.16C94.8471 28.16 93.5171 27.84 92.2971 27.2C91.0971 26.54 90.1271 25.63 89.3871 24.47C88.6671 23.29 88.3071 21.9 88.3071 20.3C88.3071 18.7 88.6671 17.32 89.3871 16.16C90.1271 14.98 91.0971 14.07 92.2971 13.43C93.5171 12.79 94.8471 12.47 96.2871 12.47C97.6671 12.47 98.8471 12.75 99.8271 13.31C100.807 13.85 101.547 14.7 102.047 15.86C102.567 17.02 102.827 18.5 102.827 20.3C102.827 22.1 102.567 23.58 102.047 24.74C101.547 25.9 100.807 26.76 99.8271 27.32C98.8471 27.88 97.6671 28.16 96.2871 28.16ZM97.6371 23.63C98.3171 23.63 98.9171 23.49 99.4371 23.21C99.9771 22.93 100.397 22.54 100.697 22.04C101.017 21.54 101.177 20.96 101.177 20.3C101.177 19.64 101.017 19.06 100.697 18.56C100.397 18.06 99.9771 17.68 99.4371 17.42C98.9171 17.14 98.3171 17 97.6371 17C96.9571 17 96.3471 17.14 95.8071 17.42C95.2671 17.68 94.8371 18.06 94.5171 18.56C94.2171 19.06 94.0671 19.64 94.0671 20.3C94.0671 20.96 94.2171 21.54 94.5171 22.04C94.8371 22.54 95.2671 22.93 95.8071 23.21C96.3471 23.49 96.9571 23.63 97.6371 23.63ZM110.479 29V12.74H116.179V29H110.479ZM113.329 10.94C112.289 10.94 111.449 10.65 110.809 10.07C110.169 9.49 109.849 8.77 109.849 7.91C109.849 7.05 110.169 6.33 110.809 5.75C111.449 5.17 112.289 4.88 113.329 4.88C114.369 4.88 115.209 5.16 115.849 5.72C116.489 6.26 116.809 6.96 116.809 7.82C116.809 8.72 116.489 9.47 115.849 10.07C115.229 10.65 114.389 10.94 113.329 10.94ZM125.794 29.27C124.414 29.27 123.064 29.11 121.744 28.79C120.444 28.47 119.394 28.07 118.594 27.59L120.304 23.69C121.064 24.15 121.954 24.52 122.974 24.8C123.994 25.06 124.994 25.19 125.974 25.19C126.934 25.19 127.594 25.09 127.954 24.89C128.334 24.69 128.524 24.42 128.524 24.08C128.524 23.76 128.344 23.53 127.984 23.39C127.644 23.23 127.184 23.11 126.604 23.03C126.044 22.95 125.424 22.86 124.744 22.76C124.064 22.66 123.374 22.53 122.674 22.37C121.994 22.19 121.364 21.93 120.784 21.59C120.224 21.23 119.774 20.75 119.434 20.15C119.094 19.55 118.924 18.79 118.924 17.87C118.924 16.83 119.224 15.91 119.824 15.11C120.444 14.29 121.344 13.65 122.524 13.19C123.704 12.71 125.144 12.47 126.844 12.47C127.984 12.47 129.134 12.59 130.294 12.83C131.474 13.05 132.464 13.39 133.264 13.85L131.554 17.72C130.754 17.26 129.954 16.95 129.154 16.79C128.354 16.61 127.594 16.52 126.874 16.52C125.914 16.52 125.234 16.63 124.834 16.85C124.454 17.07 124.264 17.34 124.264 17.66C124.264 17.98 124.434 18.23 124.774 18.41C125.114 18.57 125.564 18.7 126.124 18.8C126.704 18.88 127.334 18.97 128.014 19.07C128.694 19.15 129.374 19.28 130.054 19.46C130.754 19.64 131.384 19.91 131.944 20.27C132.524 20.61 132.984 21.08 133.324 21.68C133.664 22.26 133.834 23.01 133.834 23.93C133.834 24.93 133.524 25.83 132.904 26.63C132.304 27.43 131.404 28.07 130.204 28.55C129.024 29.03 127.554 29.27 125.794 29.27ZM143.55 29.27C141.47 29.27 139.85 28.76 138.69 27.74C137.53 26.7 136.95 25.14 136.95 23.06V9.11H142.65V23C142.65 23.58 142.81 24.04 143.13 24.38C143.45 24.7 143.86 24.86 144.36 24.86C145.04 24.86 145.62 24.69 146.1 24.35L147.51 28.34C147.03 28.66 146.44 28.89 145.74 29.03C145.04 29.19 144.31 29.27 143.55 29.27ZM134.58 17.6V13.34H146.37V17.6H134.58ZM157.759 29.27C155.839 29.27 154.159 28.91 152.719 28.19C151.299 27.45 150.189 26.45 149.389 25.19C148.609 23.91 148.219 22.46 148.219 20.84C148.219 19.22 148.599 17.78 149.359 16.52C150.139 15.24 151.209 14.25 152.569 13.55C153.929 12.83 155.459 12.47 157.159 12.47C158.759 12.47 160.219 12.8 161.539 13.46C162.859 14.1 163.909 15.05 164.689 16.31C165.469 17.57 165.859 19.1 165.859 20.9C165.859 21.1 165.849 21.33 165.829 21.59C165.809 21.85 165.789 22.09 165.769 22.31H152.899V19.31H162.739L160.579 20.15C160.599 19.41 160.459 18.77 160.159 18.23C159.879 17.69 159.479 17.27 158.959 16.97C158.459 16.67 157.869 16.52 157.189 16.52C156.509 16.52 155.909 16.67 155.389 16.97C154.889 17.27 154.499 17.7 154.219 18.26C153.939 18.8 153.799 19.44 153.799 20.18V21.05C153.799 21.85 153.959 22.54 154.279 23.12C154.619 23.7 155.099 24.15 155.719 24.47C156.339 24.77 157.079 24.92 157.939 24.92C158.739 24.92 159.419 24.81 159.979 24.59C160.559 24.35 161.129 23.99 161.689 23.51L164.689 26.63C163.909 27.49 162.949 28.15 161.809 28.61C160.669 29.05 159.319 29.27 157.759 29.27ZM168.487 29V12.74H173.917V17.48L173.107 16.13C173.587 14.91 174.367 14 175.447 13.4C176.527 12.78 177.837 12.47 179.377 12.47V17.6C179.117 17.56 178.887 17.54 178.687 17.54C178.507 17.52 178.307 17.51 178.087 17.51C176.927 17.51 175.987 17.83 175.267 18.47C174.547 19.09 174.187 20.11 174.187 21.53V29H168.487Z" fill="#0B2749"/>
</g>
<defs>
<filter id="filter0_b_518_3042" x="-4" y="16.7152" width="31.8086" height="18.4768" filterUnits="userSpaceOnUse" color-interpolation-filters="sRGB">
<feFlood flood-opacity="0" result="BackgroundImageFix"/>
<feGaussianBlur in="BackgroundImageFix" stdDeviation="2"/>
<feComposite in2="SourceAlpha" operator="in" result="effect1_backgroundBlur_518_3042"/>
<feBlend mode="normal" in="SourceGraphic" in2="effect1_backgroundBlur_518_3042" result="shape"/>
</filter>
<filter id="filter1_b_518_3042" x="10.5234" y="15.4056" width="18.4766" height="18.4768" filterUnits="userSpaceOnUse" color-interpolation-filters="sRGB">
<feFlood flood-opacity="0" result="BackgroundImageFix"/>
<feGaussianBlur in="BackgroundImageFix" stdDeviation="2"/>
<feComposite in2="SourceAlpha" operator="in" result="effect1_backgroundBlur_518_3042"/>
<feBlend mode="normal" in="SourceGraphic" in2="effect1_backgroundBlur_518_3042" result="shape"/>
</filter>
<filter id="filter2_b_518_3042" x="1.35645" y="1" width="21.0957" height="21.0961" filterUnits="userSpaceOnUse" color-interpolation-filters="sRGB">
<feFlood flood-opacity="0" result="BackgroundImageFix"/>
<feGaussianBlur in="BackgroundImageFix" stdDeviation="2"/>
<feComposite in2="SourceAlpha" operator="in" result="effect1_backgroundBlur_518_3042"/>
<feBlend mode="normal" in="SourceGraphic" in2="effect1_backgroundBlur_518_3042" result="shape"/>
</filter>
<filter id="filter3_b_518_3042" x="44.1416" y="0.880005" width="139.235" height="38.21" filterUnits="userSpaceOnUse" color-interpolation-filters="sRGB">
<feFlood flood-opacity="0" result="BackgroundImageFix"/>
<feGaussianBlur in="BackgroundImageFix" stdDeviation="2"/>
<feComposite in2="SourceAlpha" operator="in" result="effect1_backgroundBlur_518_3042"/>
<feBlend mode="normal" in="SourceGraphic" in2="effect1_backgroundBlur_518_3042" result="shape"/>
</filter>
</defs>
</svg>
