<svg width="83" height="25" viewBox="0 0 83 25" fill="none" xmlns="http://www.w3.org/2000/svg">
<rect width="83" height="25" rx="12.5" fill="url(#paint0_linear_446_565)"/>
<path d="M17.83 16L19.01 10.1H16.69L16.91 9H22.84L22.62 10.1H20.3L19.13 16H17.83ZM22.1787 16L23.2387 10.66H24.4287L24.1287 12.18L24.0187 11.74C24.2653 11.3067 24.5787 11.01 24.9587 10.85C25.3387 10.6833 25.802 10.6 26.3487 10.6L26.1187 11.79C26.0653 11.7767 26.0153 11.77 25.9687 11.77C25.922 11.7633 25.8687 11.76 25.8087 11.76C25.322 11.76 24.9187 11.89 24.5987 12.15C24.2787 12.4033 24.0653 12.81 23.9587 13.37L23.4287 16H22.1787ZM28.6802 16.07C28.2469 16.07 27.8502 15.9767 27.4902 15.79C27.1369 15.6033 26.8536 15.3367 26.6402 14.99C26.4336 14.6367 26.3302 14.2133 26.3302 13.72C26.3302 13.2667 26.4036 12.85 26.5502 12.47C26.7036 12.09 26.9169 11.76 27.1902 11.48C27.4636 11.2 27.7802 10.9833 28.1402 10.83C28.5069 10.6767 28.9069 10.6 29.3402 10.6C29.7869 10.6 30.1702 10.68 30.4902 10.84C30.8169 11 31.0636 11.2433 31.2302 11.57C31.3969 11.89 31.4736 12.29 31.4602 12.77C31.4469 13.43 31.3269 14.01 31.1002 14.51C30.8736 15.0033 30.5569 15.3867 30.1502 15.66C29.7436 15.9333 29.2536 16.07 28.6802 16.07ZM29.0002 15C29.3602 15 29.6769 14.9167 29.9502 14.75C30.2236 14.5767 30.4402 14.34 30.6002 14.04C30.7602 13.74 30.8402 13.3933 30.8402 13C30.8402 12.5867 30.7169 12.26 30.4702 12.02C30.2236 11.78 29.8769 11.66 29.4302 11.66C29.0769 11.66 28.7602 11.7467 28.4802 11.92C28.2069 12.0867 27.9902 12.32 27.8302 12.62C27.6702 12.92 27.5902 13.2667 27.5902 13.66C27.5902 14.0733 27.7136 14.4 27.9602 14.64C28.2069 14.88 28.5536 15 29.0002 15ZM30.3102 16L30.5502 14.78L30.8902 13.36L31.0602 11.93L31.3102 10.66H32.5602L31.5002 16H30.3102ZM35.8057 16.07C35.279 16.07 34.8157 15.9733 34.4157 15.78C34.0224 15.58 33.719 15.3067 33.5057 14.96C33.2924 14.6067 33.1857 14.1933 33.1857 13.72C33.1857 13.12 33.3224 12.5867 33.5957 12.12C33.869 11.6467 34.2457 11.2767 34.7257 11.01C35.2057 10.7367 35.759 10.6 36.3857 10.6C36.9257 10.6 37.389 10.7067 37.7757 10.92C38.169 11.1267 38.4724 11.4367 38.6857 11.85L37.6157 12.4C37.4957 12.1467 37.3224 11.96 37.0957 11.84C36.8757 11.72 36.6057 11.66 36.2857 11.66C35.939 11.66 35.6257 11.7467 35.3457 11.92C35.0657 12.0867 34.8457 12.32 34.6857 12.62C34.5257 12.92 34.4457 13.2667 34.4457 13.66C34.4457 14.0733 34.569 14.4 34.8157 14.64C35.0624 14.88 35.4124 15 35.8657 15C36.159 15 36.4324 14.94 36.6857 14.82C36.939 14.7 37.1524 14.5133 37.3257 14.26L38.2457 14.88C37.999 15.2533 37.659 15.5467 37.2257 15.76C36.7924 15.9667 36.319 16.07 35.8057 16.07ZM40.1974 14.77L40.4674 13.23L43.6774 10.66H45.3774L42.3774 13.08L41.7074 13.57L40.1974 14.77ZM38.8974 16L40.3774 8.58H41.6274L40.1474 16H38.8974ZM42.9774 16L41.4874 13.59L42.3474 12.63L44.4274 16H42.9774Z" fill="white"/>
<path d="M16 17.25H44.8574V17.75H16V17.25Z" fill="white"/>
<path d="M62.0375 9C58.875 9 57 12.75 57 12.75C57 12.75 58.875 16.5 62.0375 16.5C65.125 16.5 67 12.75 67 12.75C67 12.75 65.125 9 62.0375 9ZM62 10.25C63.3875 10.25 64.5 11.375 64.5 12.75C64.5 14.1375 63.3875 15.25 62 15.25C60.625 15.25 59.5 14.1375 59.5 12.75C59.5 11.375 60.625 10.25 62 10.25ZM62 11.5C61.3125 11.5 60.75 12.0625 60.75 12.75C60.75 13.4375 61.3125 14 62 14C62.6875 14 63.25 13.4375 63.25 12.75C63.25 12.625 63.2 12.5125 63.175 12.4C63.075 12.6 62.875 12.75 62.625 12.75C62.275 12.75 62 12.475 62 12.125C62 11.875 62.15 11.675 62.35 11.575C62.2375 11.5375 62.125 11.5 62 11.5Z" fill="white"/>
<defs>
<linearGradient id="paint0_linear_446_565" x1="-58.942" y1="0.59523" x2="99.773" y2="23.679" gradientUnits="userSpaceOnUse">
<stop offset="0.782421" stop-color="#0B2749"/>
<stop offset="0.859845" stop-color="#4959EE"/>
</linearGradient>
</defs>
</svg>
