<svg width="50" height="42" viewBox="0 0 50 42" fill="none" xmlns="http://www.w3.org/2000/svg">
<path d="M50 5.60779C48.1192 6.42811 46.13 6.97329 44.0938 7.22654C46.2396 5.9535 47.844 3.93768 48.6031 1.56091C46.5938 2.75259 44.3954 3.59178 42.1031 4.04216C40.6976 2.54147 38.8733 1.49816 36.8672 1.04777C34.861 0.597382 32.7658 0.760737 30.8537 1.51661C28.9416 2.27249 27.301 3.58595 26.1451 5.28634C24.9892 6.98673 24.3713 8.99546 24.3719 11.0515C24.3719 11.864 24.4406 12.6453 24.6094 13.389C20.5315 13.1891 16.5417 12.1307 12.9009 10.2832C9.26014 8.43556 6.05029 5.84034 3.48125 2.66716C2.16506 4.92297 1.75815 7.59563 2.34339 10.1409C2.92862 12.6862 4.46198 14.9128 6.63125 16.3672C5.00862 16.3236 3.42023 15.8906 2 15.1047V15.2172C2.00272 17.5841 2.82083 19.8779 4.31662 21.7123C5.8124 23.5468 7.89453 24.8099 10.2125 25.289C9.33558 25.5201 8.43183 25.6336 7.525 25.6265C6.87372 25.6381 6.22308 25.5794 5.58437 25.4515C6.24669 27.486 7.52341 29.2651 9.23873 30.5439C10.9541 31.8227 13.0236 32.5383 15.1625 32.5922C11.5342 35.4298 7.05929 36.9691 2.45312 36.964C1.6125 36.964 0.80625 36.9265 0 36.8234C4.68713 39.8439 10.149 41.4416 15.725 41.4234C34.5875 41.4234 44.9 25.7984 44.9 12.2547C44.9 11.8015 44.8844 11.364 44.8625 10.9297C46.8843 9.48275 48.6252 7.67929 50 5.60779Z" fill="#03A9F4"/>
</svg>
