<svg width="41" height="42" viewBox="0 0 41 42" fill="none" xmlns="http://www.w3.org/2000/svg">
<path d="M31.6795 13.5993C31.0176 11.0804 29.5453 8.84918 27.4895 7.25C25.4338 5.65082 22.909 4.77252 20.3046 4.75059C17.7002 4.72867 15.161 5.56433 13.0786 7.12867C10.9963 8.69301 9.48655 10.8991 8.78234 13.4066C6.81149 13.4433 4.93436 14.2545 3.55699 15.6647C2.17963 17.0748 1.41279 18.9705 1.42234 20.9416C1.4319 22.9128 2.2171 24.801 3.60807 26.1977C4.99905 27.5944 6.88396 28.3873 8.85507 28.405L9.51174 28.4105C9.50099 28.2024 9.48354 27.9962 9.48531 27.7852C9.50904 24.9674 10.6512 22.2744 12.6604 20.2987C14.6697 18.323 17.3816 17.2263 20.1994 17.2501C23.0172 17.2738 25.7102 18.4159 27.6859 20.4252C29.6617 22.4345 30.7583 25.1463 30.7346 27.9641C30.7328 28.1751 30.7116 28.381 30.6976 28.5889L31.3543 28.5944C33.3254 28.6099 35.2234 27.8488 36.6377 26.4757C38.052 25.1026 38.8689 23.228 38.9116 21.2573C38.9544 19.2865 38.2195 17.3782 36.8661 15.9451C35.5127 14.512 33.6495 13.6693 31.6795 13.5993Z" fill="url(#paint0_linear_1067_492)"/>
<path d="M20.1889 18.4998C18.3347 18.4842 16.5176 19.0188 14.9673 20.0359C13.417 21.053 12.2031 22.507 11.4791 24.214C10.7551 25.9211 10.5536 27.8044 10.9 29.626C11.2464 31.4475 12.1252 33.1255 13.4253 34.4476C14.7253 35.7697 16.3882 36.6766 18.2036 37.0536C20.0191 37.4307 21.9056 37.2609 23.6246 36.5658C25.3435 35.8706 26.8178 34.6814 27.8609 33.1484C28.9039 31.6154 29.469 29.8076 29.4846 27.9534C29.5028 25.4679 28.5343 23.0767 26.7916 21.3044C25.0489 19.5321 22.6743 18.5235 20.1889 18.4998ZM23.7304 27.0453C23.6257 27.1739 23.4742 27.2556 23.3092 27.2726C23.1442 27.2895 22.9793 27.2402 22.8506 27.1355L20.7556 25.4303L20.6981 32.2546C20.6967 32.4204 20.6295 32.5788 20.5113 32.695C20.3931 32.8112 20.2336 32.8757 20.0679 32.8743C19.9021 32.8729 19.7437 32.8057 19.6275 32.6875C19.5113 32.5693 19.4467 32.4098 19.4481 32.2441L19.5056 25.4198L17.3821 27.0894C17.3176 27.1402 17.2437 27.1777 17.1647 27.1999C17.0856 27.2222 17.003 27.2286 16.9215 27.2188C16.84 27.2091 16.7612 27.1834 16.6896 27.1432C16.618 27.1031 16.5551 27.0492 16.5043 26.9847C16.4536 26.9202 16.416 26.8463 16.3938 26.7672C16.3716 26.6882 16.3652 26.6056 16.3749 26.5241C16.3846 26.4426 16.4103 26.3638 16.4505 26.2922C16.4907 26.2206 16.5446 26.1577 16.6091 26.1069L19.755 23.6333C19.8108 23.6032 19.8666 23.573 19.9224 23.5429C19.9925 23.5156 20.067 23.5012 20.1423 23.5004L20.1468 23.4996L20.1512 23.5006C20.2265 23.5026 20.3008 23.5183 20.3705 23.5468C20.4257 23.5779 20.481 23.6089 20.5362 23.6399L23.6401 26.1662C23.7686 26.2708 23.8503 26.4222 23.8673 26.587C23.8842 26.7519 23.835 26.9167 23.7304 27.0453Z" fill="url(#paint1_linear_1067_492)"/>
<defs>
<linearGradient id="paint0_linear_1067_492" x1="20.3046" y1="4.75059" x2="20.1047" y2="28.4997" gradientUnits="userSpaceOnUse">
<stop stop-color="#0B2749"/>
<stop offset="1" stop-color="#0D99FF"/>
</linearGradient>
<linearGradient id="paint1_linear_1067_492" x1="20.1889" y1="18.4998" x2="20.031" y2="37.2492" gradientUnits="userSpaceOnUse">
<stop stop-color="#0B2749"/>
<stop offset="1" stop-color="#0D99FF"/>
</linearGradient>
</defs>
</svg>
