<svg width="112" height="107" viewBox="0 0 112 107" fill="none" xmlns="http://www.w3.org/2000/svg">
<g filter="url(#filter0_bd_904_659)">
<rect x="4" width="104" height="99" rx="9" fill="#0B2749"/>
</g>
<path d="M12.684 93L8.988 84.6H10.284L13.68 92.352H12.936L16.356 84.6H17.556L13.872 93H12.684ZM18.6272 93V84.6H19.8272V93H18.6272ZM22.342 93V84.6H25.618C26.354 84.6 26.982 84.716 27.502 84.948C28.022 85.18 28.422 85.516 28.702 85.956C28.982 86.396 29.122 86.92 29.122 87.528C29.122 88.136 28.982 88.66 28.702 89.1C28.422 89.532 28.022 89.864 27.502 90.096C26.982 90.328 26.354 90.444 25.618 90.444H23.002L23.542 89.892V93H22.342ZM27.958 93L25.822 89.952H27.106L29.266 93H27.958ZM23.542 90.012L23.002 89.424H25.582C26.35 89.424 26.93 89.26 27.322 88.932C27.722 88.596 27.922 88.128 27.922 87.528C27.922 86.928 27.722 86.464 27.322 86.136C26.93 85.808 26.35 85.644 25.582 85.644H23.002L23.542 85.044V90.012ZM32.6116 93V85.644H29.7316V84.6H36.6796V85.644H33.7996V93H32.6116ZM41.3142 93.096C40.2102 93.096 39.3422 92.78 38.7102 92.148C38.0782 91.516 37.7622 90.592 37.7622 89.376V84.6H38.9622V89.328C38.9622 90.264 39.1662 90.948 39.5742 91.38C39.9902 91.812 40.5742 92.028 41.3262 92.028C42.0862 92.028 42.6702 91.812 43.0782 91.38C43.4942 90.948 43.7022 90.264 43.7022 89.328V84.6H44.8662V89.376C44.8662 90.592 44.5502 91.516 43.9182 92.148C43.2942 92.78 42.4262 93.096 41.3142 93.096ZM45.8786 93L49.6826 84.6H50.8706L54.6866 93H53.4266L50.0306 85.272H50.5106L47.1146 93H45.8786ZM47.4986 90.9L47.8226 89.94H52.5506L52.8986 90.9H47.4986ZM55.9397 93V84.6H57.1397V91.956H61.6877V93H55.9397ZM67.9553 93V85.644H65.0753V84.6H72.0233V85.644H69.1433V93H67.9553ZM77.0051 93.096C76.3651 93.096 75.7691 92.988 75.2171 92.772C74.6731 92.556 74.2011 92.256 73.8011 91.872C73.4011 91.48 73.0891 91.024 72.8651 90.504C72.6411 89.984 72.5291 89.416 72.5291 88.8C72.5291 88.184 72.6411 87.616 72.8651 87.096C73.0891 86.576 73.4011 86.124 73.8011 85.74C74.2011 85.348 74.6731 85.044 75.2171 84.828C75.7611 84.612 76.3571 84.504 77.0051 84.504C77.6451 84.504 78.2331 84.612 78.7691 84.828C79.3131 85.036 79.7851 85.336 80.1851 85.728C80.5931 86.112 80.9051 86.564 81.1211 87.084C81.3451 87.604 81.4571 88.176 81.4571 88.8C81.4571 89.424 81.3451 89.996 81.1211 90.516C80.9051 91.036 80.5931 91.492 80.1851 91.884C79.7851 92.268 79.3131 92.568 78.7691 92.784C78.2331 92.992 77.6451 93.096 77.0051 93.096ZM77.0051 92.028C77.4691 92.028 77.8971 91.948 78.2891 91.788C78.6891 91.628 79.0331 91.404 79.3211 91.116C79.6171 90.82 79.8451 90.476 80.0051 90.084C80.1731 89.692 80.2571 89.264 80.2571 88.8C80.2571 88.336 80.1731 87.908 80.0051 87.516C79.8451 87.124 79.6171 86.784 79.3211 86.496C79.0331 86.2 78.6891 85.972 78.2891 85.812C77.8971 85.652 77.4691 85.572 77.0051 85.572C76.5331 85.572 76.0971 85.652 75.6971 85.812C75.3051 85.972 74.9611 86.2 74.6651 86.496C74.3691 86.784 74.1371 87.124 73.9691 87.516C73.8091 87.908 73.7291 88.336 73.7291 88.8C73.7291 89.264 73.8091 89.692 73.9691 90.084C74.1371 90.476 74.3691 90.82 74.6651 91.116C74.9611 91.404 75.3051 91.628 75.6971 91.788C76.0971 91.948 76.5331 92.028 77.0051 92.028ZM86.7713 93.096C85.6673 93.096 84.7993 92.78 84.1673 92.148C83.5353 91.516 83.2193 90.592 83.2193 89.376V84.6H84.4193V89.328C84.4193 90.264 84.6233 90.948 85.0312 91.38C85.4473 91.812 86.0313 92.028 86.7833 92.028C87.5433 92.028 88.1273 91.812 88.5353 91.38C88.9513 90.948 89.1593 90.264 89.1593 89.328V84.6H90.3233V89.376C90.3233 90.592 90.0073 91.516 89.3753 92.148C88.7513 92.78 87.8833 93.096 86.7713 93.096ZM92.7834 93V84.6H96.0594C96.7954 84.6 97.4234 84.716 97.9434 84.948C98.4634 85.18 98.8634 85.516 99.1434 85.956C99.4234 86.396 99.5634 86.92 99.5634 87.528C99.5634 88.136 99.4234 88.66 99.1434 89.1C98.8634 89.532 98.4634 89.864 97.9434 90.096C97.4234 90.328 96.7954 90.444 96.0594 90.444H93.4434L93.9834 89.892V93H92.7834ZM98.3994 93L96.2634 89.952H97.5474L99.7074 93H98.3994ZM93.9834 90.012L93.4434 89.424H96.0234C96.7914 89.424 97.3714 89.26 97.7634 88.932C98.1634 88.596 98.3634 88.128 98.3634 87.528C98.3634 86.928 98.1634 86.464 97.7634 86.136C97.3714 85.808 96.7914 85.644 96.0234 85.644H93.4434L93.9834 85.044V90.012Z" fill="white"/>
<g filter="url(#filter1_d_904_659)">
<circle cx="56" cy="50" r="31" fill="#276490"/>
</g>
<path d="M56.5 36C49.0412 36 43 42.265 43 50C43 57.735 49.0412 64 56.5 64C63.9587 64 70 57.735 70 50C70 42.265 63.9587 36 56.5 36ZM53.125 43L63.25 50L53.125 57V43Z" fill="white"/>
<defs>
<filter id="filter0_bd_904_659" x="-78" y="-82" width="268" height="263" filterUnits="userSpaceOnUse" color-interpolation-filters="sRGB">
<feFlood flood-opacity="0" result="BackgroundImageFix"/>
<feGaussianBlur in="BackgroundImageFix" stdDeviation="41"/>
<feComposite in2="SourceAlpha" operator="in" result="effect1_backgroundBlur_904_659"/>
<feColorMatrix in="SourceAlpha" type="matrix" values="0 0 0 0 0 0 0 0 0 0 0 0 0 0 0 0 0 0 127 0" result="hardAlpha"/>
<feOffset dy="4"/>
<feGaussianBlur stdDeviation="2"/>
<feComposite in2="hardAlpha" operator="out"/>
<feColorMatrix type="matrix" values="0 0 0 0 0 0 0 0 0 0 0 0 0 0 0 0 0 0 0.25 0"/>
<feBlend mode="normal" in2="effect1_backgroundBlur_904_659" result="effect2_dropShadow_904_659"/>
<feBlend mode="normal" in="SourceGraphic" in2="effect2_dropShadow_904_659" result="shape"/>
</filter>
<filter id="filter1_d_904_659" x="21" y="19" width="70" height="70" filterUnits="userSpaceOnUse" color-interpolation-filters="sRGB">
<feFlood flood-opacity="0" result="BackgroundImageFix"/>
<feColorMatrix in="SourceAlpha" type="matrix" values="0 0 0 0 0 0 0 0 0 0 0 0 0 0 0 0 0 0 127 0" result="hardAlpha"/>
<feOffset dy="4"/>
<feGaussianBlur stdDeviation="2"/>
<feComposite in2="hardAlpha" operator="out"/>
<feColorMatrix type="matrix" values="0 0 0 0 0 0 0 0 0 0 0 0 0 0 0 0 0 0 0.25 0"/>
<feBlend mode="normal" in2="BackgroundImageFix" result="effect1_dropShadow_904_659"/>
<feBlend mode="normal" in="SourceGraphic" in2="effect1_dropShadow_904_659" result="shape"/>
</filter>
</defs>
</svg>
