<svg width="50" height="51" viewBox="0 0 50 51" fill="none" xmlns="http://www.w3.org/2000/svg">
<g clip-path="url(#clip0_1114_1382)">
<path d="M42.7138 7.29814C38.0135 2.59461 31.7635 0.00286973 25.1046 0C11.3829 0 0.216109 11.1632 0.210616 24.8843C0.209017 29.2703 1.35502 33.5517 3.53327 37.3257L0.00161743 50.221L13.1982 46.7607C16.8341 48.7436 20.9279 49.7884 25.0939 49.7901H25.1045H25.1046C38.8241 49.7901 49.9926 38.625 49.9984 24.9045C50.0007 18.2546 47.4135 12.002 42.7138 7.29814ZM25.1046 45.5871H25.0965C21.3832 45.5851 17.7417 44.5881 14.5655 42.7034L13.8096 42.2553L5.97849 44.3086L8.0693 36.676L7.57681 35.8936C5.50548 32.6001 4.41199 28.794 4.41354 24.8859C4.41809 13.4813 13.6995 4.20322 25.1124 4.20322C30.6392 4.20551 35.8337 6.35978 39.7404 10.2692C43.6469 14.1786 45.7967 19.3756 45.7951 24.9027C45.7902 36.3077 36.5086 45.5871 25.1046 45.5871Z" fill="#E0E0E0"/>
<path d="M1.14439 48.7911L4.51472 36.4848C2.43544 32.8833 1.34199 28.7971 1.3433 24.6123C1.34875 11.5182 12.0055 0.865234 25.0993 0.865234C31.4544 0.868104 37.419 3.34132 41.9036 7.83012C46.3891 12.3189 48.8579 18.2854 48.8553 24.6308C48.8498 37.7253 38.1924 48.3792 25.1003 48.3792C25.0993 48.3792 25.1009 48.3792 25.1003 48.3792H25.0897C21.114 48.3779 17.2075 47.3799 13.7379 45.4889L1.14439 48.7911Z" fill="url(#paint0_linear_1114_1382)"/>
<path fill-rule="evenodd" clip-rule="evenodd" d="M18.953 14.319C18.4925 13.295 18.0076 13.2745 17.5694 13.2566C17.211 13.2413 16.8007 13.2422 16.3911 13.2422C15.9811 13.2422 15.315 13.3963 14.7516 14.0115C14.1879 14.6268 12.5993 16.1142 12.5993 19.1393C12.5993 22.1646 14.8028 25.0879 15.11 25.4985C15.4174 25.9084 19.3637 32.3147 25.6133 34.7793C30.8073 36.8275 31.8643 36.4201 32.9917 36.3176C34.1191 36.2151 36.6294 34.8305 37.1419 33.3947C37.6544 31.9592 37.6544 30.7287 37.5006 30.4715C37.3469 30.2152 36.9369 30.0615 36.322 29.754C35.707 29.4466 32.6842 27.9588 32.1205 27.7539C31.5568 27.5489 31.1469 27.4464 30.7369 28.062C30.3269 28.6769 29.1492 30.0615 28.7905 30.4715C28.4318 30.8824 28.0731 30.9336 27.4581 30.6261C26.8432 30.3177 24.8629 29.6691 22.5136 27.5745C20.6858 25.9449 19.4517 23.9322 19.093 23.3166C18.7343 22.7017 19.0545 22.3686 19.363 22.0621C19.6391 21.7866 19.9779 21.3443 20.2854 20.9853C20.5922 20.6262 20.6947 20.37 20.8997 19.96C21.1047 19.5494 21.0022 19.1904 20.8485 18.8829C20.6947 18.5755 19.4998 15.5348 18.953 14.319Z" fill="white"/>
<path d="M42.5105 7.21829C37.8641 2.56875 31.6859 0.00681698 25.1035 0.00390625C11.5392 0.00390625 0.500622 11.0389 0.495169 24.6026C0.49357 28.9383 1.62642 33.1705 3.77966 36.9011L0.288589 49.6484L13.3337 46.2277C16.9279 48.1878 20.9747 49.2208 25.0929 49.2224H25.1033H25.1035C38.6655 49.2224 49.7056 38.1854 49.7114 24.6224C49.7137 18.0489 47.1562 11.8682 42.5105 7.21829ZM25.1035 45.0677H25.0955C21.4247 45.0658 17.825 44.0802 14.6853 42.2172L13.9381 41.7742L6.19684 43.8039L8.26362 36.259L7.77679 35.4855C5.72923 32.2298 4.64829 28.4674 4.64989 24.6042C4.65435 13.3306 13.8292 4.15895 25.1112 4.15895C30.5746 4.16121 35.7093 6.29075 39.5713 10.1553C43.4329 14.0198 45.558 19.1572 45.5564 24.6209C45.5516 35.8948 36.3764 45.0677 25.1035 45.0677Z" fill="white"/>
</g>
<defs>
<linearGradient id="paint0_linear_1114_1382" x1="24.9999" y1="48.7911" x2="24.9999" y2="0.865314" gradientUnits="userSpaceOnUse">
<stop stop-color="#20B038"/>
<stop offset="1" stop-color="#60D66A"/>
</linearGradient>
<clipPath id="clip0_1114_1382">
<rect width="50" height="50.221" fill="white"/>
</clipPath>
</defs>
</svg>
